<?xml version="1.0" encoding="UTF-8"?>
<!DOCTYPE svg PUBLIC "-//W3C//DTD SVG 1.1//EN" "http://www.w3.org/Graphics/SVG/1.1/DTD/svg11.dtd">
<!-- Creator: CorelDRAW -->
<svg xmlns="http://www.w3.org/2000/svg" xml:space="preserve" width="210mm" height="297mm" version="1.1" style="shape-rendering:geometricPrecision; text-rendering:geometricPrecision; image-rendering:optimizeQuality; fill-rule:evenodd; clip-rule:evenodd"
viewBox="0 0 21000 29700"
 xmlns:xlink="http://www.w3.org/1999/xlink"
 xmlns:xodm="http://www.corel.com/coreldraw/odm/2003">
 <defs>
  <style type="text/css">
   <![CDATA[
    .fil2 {fill:#151618}
    .fil5 {fill:#161616}
    .fil1 {fill:#B9120C}
    .fil4 {fill:#DE1C13}
    .fil3 {fill:#DE1D13}
    .fil0 {fill:#E01C13}
    .fil6 {fill:#FEFEFE;fill-rule:nonzero}
   ]]>
  </style>
 </defs>
 <g id="Camada_x0020_1">
  <metadata id="CorelCorpID_0Corel-Layer"/>
  <g id="_1963151748944">
   <path class="fil0" d="M9862.64 16553.64c190.73,-30.7 336.9,87.19 357.02,248.36 22.7,181.84 -62.62,326.81 -243.96,354.28 -91.19,13.81 -190.48,-3.97 -251.68,-49.26 -61.06,-45.19 -90.99,-105.62 -105.98,-198.15 -15,-92.68 12.42,-184.64 53.54,-244.41 46.43,-67.49 111.8,-98.06 191.06,-110.82zm1008.54 3.83c124.44,-7.04 288.83,-17.22 374.3,63.7 38.04,36.02 52.96,109.96 30.95,172.08 -27.22,76.8 -116.16,96.41 -116.32,96.14 -0.59,-0.96 -2.24,0.99 -3.26,1.65 8.38,17.33 31.87,37.47 46.32,60.78l110.44 205.78 -130 -1.12c-26.73,-43.39 -49.42,-95.78 -72.57,-142.02 -47.22,-94.32 -61.93,-92 -127.5,-88.2l-1.36 231.37 -113.31 -0.53 2.31 -599.63zm-145.89 431.9c14.6,11.4 54.02,62.37 56,84.15 -6.33,35.97 -185.83,133.51 -340.15,63.03 -105.75,-48.28 -167.98,-136.5 -166.26,-279.47 2.58,-215.34 174.72,-336.2 363.54,-302.82 43.34,7.66 128.93,43.3 146.28,77.91 -0.76,27.53 -38.23,75.82 -59.41,84.1 -16.17,-7.12 -92,-103.58 -211.62,-49.62 -34.58,15.6 -52.08,33.14 -75.57,68.89 -48.23,73.42 -49.68,260.55 73.42,309.57 32.04,12.76 89.68,15.15 124.82,3.1 35.98,-12.34 62.4,-52.83 88.95,-58.84zm-1171.2 -1770.38c-0.04,-26.53 7.58,-20.81 33.87,-20.75l1052.45 0.02c213.8,0.01 490.69,-4.26 704.34,1.27l0.31 83.12c1.25,292.12 -110.82,536.71 -263.83,695.39 -144.85,150.21 -358.05,295.39 -661.62,284.13 -273.82,-10.16 -500.6,-168.38 -627.05,-322.56 -156.17,-190.41 -238.01,-409.09 -238.47,-720.62zm-37.88 -463.36c56.96,-12.06 222.45,-4.05 292.42,-4.01l1485.32 0.85c163.33,-0.32 161.08,10.5 161.12,135.51 0.01,49.39 -0.52,99.21 0.4,148.55 0.92,48.75 -9.38,85.35 -55.24,89.12 -87.36,7.18 -206.31,0.34 -297.25,0.57l-1485.32 -0.35c-156.81,-0.21 -160.96,12.96 -161.54,-136.04 -0.19,-49.13 -1.28,-99.74 -0.17,-148.71 1.15,-51.31 15.32,-75.97 60.26,-85.49zm845.29 -623.75c-33.72,3.78 -70.11,4.07 -103.41,7.22 -63.23,5.99 -128.99,22.41 -190.81,35.47 -167.72,35.42 -338.55,112.62 -486.89,192.94 -55.46,30.03 -156.01,99.45 -206.3,136.83l-122.85 102.28c-27.52,26.67 -62.32,53.15 -87.76,81.81 -10.47,11.79 -16.2,16.16 -29.88,29.58 -101.85,99.95 -211.92,264.1 -280.95,393.63l-72.77 155.76c-47.58,113.67 -54.42,180.74 -81.96,257.65 -9.17,25.6 -37.08,204.76 -40.14,241.22 -7.43,88.41 -14.22,182.29 -8.92,275.4 9.52,167.09 46.71,312.07 93.51,463.53 22.19,71.83 84.96,217.93 115.99,284.03 7.58,16.13 12.35,18.16 19.72,35.56l19.74 41.6c0.29,0.34 1.17,1.15 1.49,1.51 42.47,48.8 70.06,109.14 108.83,161.52 47.37,64.02 103.1,125.83 154.87,184.62 8.57,9.74 16.39,17.45 27.55,27.72 50.1,46.1 96.07,91.26 149.98,134.38 129.14,103.29 273.55,187.1 425.14,253.8 236.95,104.25 507.89,141.37 772.89,133.47 131.99,-3.93 266.72,-36.16 387.03,-62.42 30.75,-6.71 54.18,-18.55 83.35,-26.52l82.15 -30.9c79.05,-32.47 158.12,-65.61 231.69,-108.31 74.03,-42.97 142.06,-86.14 208.95,-134.77l153.89 -126.26c13.46,-10.82 18.23,-18.8 29.72,-29.82 38.74,-37.15 78.35,-71.61 109.41,-115.11 49,-68.64 97.77,-126.75 141.38,-198.48 42.9,-70.59 88.17,-141.75 119.54,-219.88 69.61,-173.37 98.58,-250.78 138.04,-430.92 25.75,-117.56 38.46,-290.89 26.55,-423.43 -2.81,-31.28 -7.09,-62.18 -9.55,-98.81 -2.44,-36.4 -12.15,-63.68 -16.08,-97.27 -12.27,-104.72 -57.82,-259.8 -95.62,-356.25 -19.16,-48.88 -41.83,-117.06 -67.33,-161.04l-3.33 -5.24c-0.49,-0.79 -1.23,-1.78 -1.7,-2.57 -1.51,-2.49 -3.2,-5.17 -4.6,-8.07 -24.9,-51.5 -90.28,-174.24 -124.22,-215.66l-37.09 -51.6c-32.43,-47.21 -62.62,-80.21 -100.98,-124.12 -18.36,-21.02 -33.78,-38.21 -55.4,-59.22 -55.73,-54.13 -118.44,-112.2 -181.36,-158.3l-94.84 -70.56c-32.35,-24.26 -71.03,-42.56 -104.56,-65.26 -42.41,-28.71 -136.68,-73.03 -186.74,-97.78 -100.07,-49.47 -273.69,-102.61 -387.77,-124.19 -112.9,-21.36 -295.39,-42.47 -417.6,-28.77z"/>
   <path class="fil1" d="M10361.5 14131.88c122.21,-13.7 304.7,7.41 417.6,28.77 114.08,21.58 287.7,74.72 387.77,124.19 50.06,24.75 144.33,69.07 186.74,97.78 33.53,22.7 72.21,41 104.56,65.26l94.84 70.56c62.92,46.1 125.63,104.17 181.36,158.3 21.62,21.01 37.04,38.2 55.4,59.22 38.36,43.91 68.55,76.91 100.98,124.12l37.09 51.6c33.94,41.42 99.32,164.16 124.22,215.66 1.4,2.9 3.09,5.58 4.6,8.07 0.47,0.79 1.21,1.78 1.7,2.57l3.33 5.24c25.5,43.98 48.17,112.16 67.33,161.04 37.8,96.45 83.35,251.53 95.62,356.25 3.93,33.59 13.64,60.87 16.08,97.27 2.46,36.63 6.74,67.53 9.55,98.81 11.91,132.54 -0.8,305.87 -26.55,423.43 -39.46,180.14 -68.43,257.55 -138.04,430.92 -31.37,78.13 -76.64,149.29 -119.54,219.88 -43.61,71.73 -92.38,129.84 -141.38,198.48 -31.06,43.5 -70.67,77.96 -109.41,115.11 -11.49,11.02 -16.26,19 -29.72,29.82l-153.89 126.26c-66.89,48.63 -134.92,91.8 -208.95,134.77 -73.57,42.7 -152.64,75.84 -231.69,108.31l-82.15 30.9c-29.17,7.97 -52.6,19.81 -83.35,26.52 -120.31,26.26 -255.04,58.49 -387.03,62.42 -265,7.9 -535.94,-29.22 -772.89,-133.47 -151.59,-66.7 -296,-150.51 -425.14,-253.8 -53.91,-43.12 -99.88,-88.28 -149.98,-134.38 -11.16,-10.27 -18.98,-17.98 -27.55,-27.72 -51.77,-58.79 -107.5,-120.6 -154.87,-184.62 -38.77,-52.38 -66.36,-112.72 -108.83,-161.52 -0.32,-0.36 -1.2,-1.17 -1.49,-1.51l-19.74 -41.6c-7.37,-17.4 -12.14,-19.43 -19.72,-35.56 -31.03,-66.1 -93.8,-212.2 -115.99,-284.03 -46.8,-151.46 -83.99,-296.44 -93.51,-463.53 -5.3,-93.11 1.49,-186.99 8.92,-275.4 3.06,-36.46 30.97,-215.62 40.14,-241.22 27.54,-76.91 34.38,-143.98 81.96,-257.65l72.77 -155.76c69.03,-129.53 179.1,-293.68 280.95,-393.63 13.68,-13.42 19.41,-17.79 29.88,-29.58 25.44,-28.66 60.24,-55.14 87.76,-81.81l122.85 -102.28c50.29,-37.38 150.84,-106.8 206.3,-136.83 148.34,-80.32 319.17,-157.52 486.89,-192.94 61.82,-13.06 127.58,-29.48 190.81,-35.47 33.3,-3.15 69.69,-3.44 103.41,-7.22zm-44.31 -217.8c-82.54,8.56 -150.11,13.19 -228.77,26.81 -71.19,12.32 -141.07,29.66 -206.49,48.9 -371.74,109.3 -703.89,319.86 -942.42,589.21 -368.84,416.5 -558.67,916.55 -526.45,1509.95 22.76,419.17 184.7,803.42 419.24,1112.14 217.48,286.26 541.84,530.02 877.81,658.77 671.37,257.27 1427.79,151.26 1989.49,-283.15 189.51,-146.56 358.64,-330.22 487.15,-535.64 67.3,-107.57 119.28,-212.54 172.5,-341.25 96.59,-233.61 161.02,-586.36 136.31,-880.01 -26.21,-311.4 -97.63,-559.58 -221.17,-800.02 -230.93,-449.48 -608.92,-784.91 -1074.8,-971.26 -235.89,-94.36 -590.18,-164.74 -882.4,-134.45z"/>
   <path class="fil2" d="M10175.29 15800.39c-25.75,-159.92 101.12,-307.52 231.29,-323.28 167.6,-20.29 292.64,93.43 317.41,235.12 29.35,167.95 -93.47,305 -231.4,323.6 -169.69,22.9 -294.2,-91.91 -317.3,-235.44zm-621.2 -581.4c0.46,311.53 82.3,530.21 238.47,720.62 126.45,154.18 353.23,312.4 627.05,322.56 303.57,11.26 516.77,-133.92 661.62,-284.13 153.01,-158.68 265.08,-403.27 263.83,-695.39l-0.31 -83.12c-213.65,-5.53 -490.54,-1.26 -704.34,-1.27l-1052.45 -0.02c-26.29,-0.06 -33.91,-5.78 -33.87,20.75z"/>
   <path class="fil2" d="M9516.21 14755.63c-44.94,9.52 -59.11,34.18 -60.26,85.49 -1.11,48.97 -0.02,99.58 0.17,148.71 0.58,149 4.73,135.83 161.54,136.04l1485.32 0.35c90.94,-0.23 209.89,6.61 297.25,-0.57 45.86,-3.77 56.16,-40.37 55.24,-89.12 -0.92,-49.34 -0.39,-99.16 -0.4,-148.55 -0.04,-125.01 2.21,-135.83 -161.12,-135.51l-1485.32 -0.85c-69.97,-0.04 -235.46,-8.05 -292.42,4.01z"/>
   <path class="fil3" d="M10420.76 15630.45c72.16,-19.28 137.92,38.07 152.7,91.79 22.73,82.64 -33.25,141.35 -89.78,159.03 -160.1,50.07 -229.78,-206.24 -62.92,-250.82zm-245.47 169.94c23.1,143.53 147.61,258.34 317.3,235.44 137.93,-18.6 260.75,-155.65 231.4,-323.6 -24.77,-141.69 -149.81,-255.41 -317.41,-235.12 -130.17,15.76 -257.04,163.36 -231.29,323.28z"/>
   <path class="fil4" d="M9912.88 16766.08c23.16,-144.23 -33.05,-274.67 -155.92,-302.71 -331.08,-75.57 -339.75,450.32 -111.73,495.34 153.57,30.33 244.81,-50.4 267.65,-192.63z"/>
   <path class="fil5" d="M10420.76 15630.45c-166.86,44.58 -97.18,300.89 62.92,250.82 56.53,-17.68 112.51,-76.39 89.78,-159.03 -14.78,-53.72 -80.54,-111.07 -152.7,-91.79z"/>
   <path class="fil3" d="M11113.28 16681.81c50.6,-0.13 95.8,1.9 127.14,-28.52 46.17,-44.83 100.98,-227.05 -195.58,-200.19l-0.7 228.75 69.14 -0.04z"/>
   <rect class="fil0" x="9216.98" y="16464.4" width="2457.77" height="754.22"/>
   <path class="fil6" d="M10171.33 17313.89c0,0 -7.02,-1.04 -20.19,-2.97 -1.65,-0.25 -3.4,-0.5 -5.24,-0.77 -1.89,-0.29 -3.87,-0.59 -5.95,-0.91 -4.16,-0.64 -8.7,-1.33 -13.61,-2.09 -4.93,-0.73 -10.13,-1.58 -15.7,-2.47 -5.57,-0.91 -11.49,-1.86 -17.74,-2.87 -24.99,-4.13 -55.29,-9.42 -89.96,-16.1 -8.67,-1.63 -17.6,-3.47 -26.79,-5.27 -9.2,-1.86 -18.64,-3.83 -28.34,-5.85 -4.84,-1.04 -9.75,-2.09 -14.71,-3.17 -2.48,-0.53 -4.98,-1.07 -7.49,-1.6 -2.51,-0.57 -5.03,-1.13 -7.57,-1.7 -5.08,-1.13 -10.22,-2.28 -15.41,-3.44 -5.18,-1.2 -10.43,-2.41 -15.72,-3.64 -21.18,-4.96 -43.2,-10.31 -65.91,-16.24 -22.72,-5.92 -46.15,-12.29 -70.13,-19.29 -47.96,-14.02 -98.2,-30.28 -149.45,-49.72 -25.62,-9.72 -51.48,-20.24 -77.39,-31.72 -25.9,-11.53 -51.83,-24.06 -77.54,-37.8 -12.83,-6.95 -25.65,-14.05 -38.3,-21.72l-4.76 -2.83 -4.73 -2.94c-3.14,-1.96 -6.29,-3.92 -9.44,-5.89 -6.24,-4.07 -12.51,-8.07 -18.67,-12.35 -6.22,-4.15 -12.31,-8.6 -18.42,-12.98l-9.07 -6.8c-1.52,-1.13 -3.01,-2.3 -4.5,-3.48l-4.47 -3.53c-11.89,-9.48 -23.51,-19.49 -34.66,-30.2 -11.13,-10.76 -21.8,-22.24 -31.71,-34.61 -9.9,-12.36 -19.04,-25.64 -26.87,-39.95 -0.49,-0.89 -1.01,-1.75 -1.47,-2.67l-1.38 -2.75 -2.76 -5.49 -0.68 -1.38 -0.63 -1.41 -1.25 -2.84 -2.48 -5.66c-0.77,-1.93 -1.48,-3.89 -2.22,-5.82 -0.72,-1.95 -1.5,-3.86 -2.14,-5.85l-1.89 -5.97 -0.93 -2.99c-0.32,-0.99 -0.54,-2.03 -0.81,-3.04 -4,-14.91 -6.14,-30.46 -6.17,-45.93 0,-1.31 0.01,-2.62 0.04,-3.93l0.02 -2.24 0.09 -1.31 0.16 -2.62 0.17 -2.61c0.01,-0.2 0.02,-0.43 0.05,-0.73l0.08 -0.85 0.17 -1.69 0.34 -3.36 0.18 -1.68c0.06,-0.56 0.11,-1.13 0.2,-1.63l0.96 -6.15 0.24 -1.53 0.31 -1.52 0.62 -3.03 0.63 -3.02c0.2,-1.01 0.49,-2 0.73,-2.99 0.52,-1.99 1.01,-3.98 1.55,-5.95l1.79 -5.83c2.52,-7.71 5.39,-15.23 8.8,-22.36l1.25 -2.69c0.43,-0.89 0.89,-1.76 1.34,-2.64l2.69 -5.22 2.87 -5.08 1.44 -2.53 1.52 -2.46 3.05 -4.9 3.18 -4.75 1.6 -2.36 1.66 -2.3 3.33 -4.58c4.57,-5.95 9.22,-11.77 14.13,-17.22 9.76,-10.98 20.08,-21.02 30.72,-30.3 21.32,-18.5 43.74,-34.12 66.3,-47.9 22.59,-13.74 45.29,-25.74 67.76,-36.39 44.92,-21.33 88.66,-37.7 129.38,-51.28 40.76,-13.49 78.55,-24.09 112.2,-32.69 33.66,-8.57 63.17,-15.19 87.52,-20.3 24.36,-5.1 43.55,-8.76 56.64,-11.18 13.11,-2.37 20.1,-3.64 20.1,-3.64 0,0 -6.87,1.79 -19.75,5.16 -12.86,3.42 -31.71,8.53 -55.53,15.46 -23.84,6.94 -52.65,15.76 -85.33,26.81 -32.67,11.06 -69.22,24.42 -108.22,40.73 -38.96,16.4 -80.47,35.71 -122.07,59.52 -20.8,11.89 -41.54,25 -61.7,39.48 -20.13,14.5 -39.62,30.52 -57.22,48.34 -8.77,8.93 -17.02,18.32 -24.49,28.16 -3.77,4.9 -7.21,9.99 -10.55,15.1l-2.39 3.89 -1.19 1.94 -1.12 1.97 -2.23 3.95 -2.07 3.99 -1.03 2 -0.95 2.03 -1.89 4.04 -1.71 4.09c-0.28,0.68 -0.58,1.36 -0.85,2.04l-0.76 2.07c-2.13,5.47 -3.73,11.05 -5.1,16.63l-0.94 4.19 -0.73 4.2c-0.11,0.7 -0.27,1.4 -0.35,2.11l-0.26 2.1 -0.26 2.11 -0.14 1.05 -0.07 1.05 -0.33 4.21c-0.03,0.37 -0.03,0.67 -0.03,0.97l-0.02 0.93 -0.04 1.85 -0.04 0.92 -0.01 0.46c-0.01,0.13 -0.01,0.33 -0.01,0.57l0.04 2.61 0.04 2.62 0.01 1.31c0.02,-1.17 0.03,-0.02 0.05,-0.15l0.05 0.53c1.32,22.35 9.24,44.14 22.49,64.18 13.13,20.09 30.89,38.39 50.77,54.85 9.99,8.22 20.54,15.98 31.44,23.38l4.1 2.75c1.36,0.93 2.73,1.84 4.14,2.72l8.37 5.33c5.69,3.44 11.31,6.93 17.14,10.2 5.72,3.37 11.64,6.51 17.47,9.72 2.97,1.55 5.93,3.09 8.89,4.64l4.45 2.31 4.5 2.23c11.93,6.03 24.13,11.61 36.33,17.07 24.51,10.76 49.37,20.52 74.3,29.4 24.95,8.84 49.94,16.84 74.74,24.13 49.62,14.59 98.45,26.37 145.08,36.2 23.32,4.91 46.13,9.26 68.23,13.25 22.1,4 43.54,7.5 64.15,10.68 5.15,0.79 10.25,1.56 15.3,2.33 5.05,0.73 10.05,1.45 14.99,2.16 2.47,0.36 4.93,0.71 7.37,1.07 2.44,0.33 4.87,0.66 7.29,0.99 4.83,0.65 9.6,1.31 14.32,1.94 9.43,1.22 18.62,2.42 27.56,3.52 8.96,1.06 17.63,2.17 26.07,3.09 33.72,3.85 63.18,6.69 87.46,8.82 6.07,0.51 11.82,0.99 17.23,1.44 5.41,0.45 10.48,0.88 15.14,1.22 4.68,0.35 9,0.68 12.96,0.98 1.98,0.15 3.88,0.29 5.67,0.43 1.85,0.12 3.61,0.24 5.27,0.36 13.28,0.93 20.36,1.42 20.36,1.42l-14.95 138.29z"/>
   <polygon class="fil6" points="10139.37,17057.26 10440.97,17263.14 10111.89,17421.44 "/>
   <path class="fil6" d="M11156.5 16485.76c0,0 1.91,0.4 5.59,1.18 3.66,0.79 9.14,1.93 16.24,3.51 14.22,3.12 35.07,7.84 61.47,14.51 26.39,6.68 58.33,15.33 94.6,26.82 18.12,5.73 37.33,12.2 57.42,19.58 10.05,3.65 20.3,7.61 30.76,11.75 10.46,4.18 21.11,8.62 31.92,13.32 10.8,4.75 21.77,9.78 32.85,15.14 11.09,5.37 22.26,11.12 33.53,17.27 22.5,12.3 45.3,26.24 67.64,42.72 11.15,8.25 22.19,17.14 32.92,26.84 10.71,9.74 21.1,20.31 30.85,31.93 2.39,2.95 4.85,5.86 7.15,8.95 1.16,1.54 2.36,3.03 3.48,4.61 1.12,1.58 2.25,3.16 3.37,4.74 1.16,1.58 2.21,3.24 3.29,4.86l1.65 2.45c0.52,0.83 1.03,1.67 1.55,2.51 1.04,1.69 2.09,3.36 3.11,5.07 0.98,1.74 1.98,3.47 2.96,5.21 3.85,7.03 7.45,14.33 10.55,21.97 3.08,7.66 5.73,15.6 7.86,23.8 2.14,8.19 3.6,16.66 4.51,25.24 0.21,2.15 0.48,4.3 0.56,6.47l0.19 3.25 0.08 1.62c0.02,0.48 0.04,0.08 0.04,1.28l0.01 0.69 0.07 2.76 0.03 1.39c0,0.21 0,0.46 0,0.77l-0.01 0.88 -0.07 3.52 -0.05 1.77 -0.09 1.65c-0.79,17.47 -4.32,34.93 -10.01,51.44 -5.7,16.54 -13.48,32.15 -22.55,46.67 -9.07,14.53 -19.41,28.03 -30.55,40.62 -11.13,12.58 -23.02,24.33 -35.41,35.32 -6.2,5.51 -12.51,10.87 -18.95,16.02 -6.42,5.17 -12.93,10.22 -19.54,15.08 -26.43,19.49 -54.13,36.84 -82.44,52.63 -14.13,7.92 -28.46,15.42 -42.87,22.61 -14.41,7.2 -28.92,14.06 -43.51,20.62 -29.17,13.14 -58.6,25.16 -88.03,36.22 -58.89,22.13 -117.78,40.62 -175.21,56.47 -57.43,15.85 -113.44,29.01 -166.78,40.14 -53.35,11.13 -104.05,20.18 -150.97,27.65 -46.93,7.45 -90.09,13.33 -128.41,18 -38.32,4.66 -71.79,8.17 -99.38,10.79 -27.59,2.63 -49.31,4.41 -64.11,5.58 -14.81,1.13 -22.71,1.73 -22.71,1.73l-5.37 -159.13c0,0 7.6,0.03 21.87,0.09 14.26,0.02 35.19,-0.03 61.81,-0.42 26.63,-0.38 58.97,-1.17 96.04,-2.68 37.07,-1.53 78.87,-3.84 124.39,-7.37 45.51,-3.53 94.75,-8.31 146.6,-14.84 51.85,-6.55 106.33,-14.82 162.21,-25.52 55.87,-10.68 113.13,-23.76 170.22,-40.13 28.55,-8.18 57.02,-17.24 85.16,-27.28 14.07,-5.01 28.06,-10.3 41.89,-15.88 13.83,-5.57 27.56,-11.4 41.04,-17.59 27.02,-12.34 53.23,-26.01 77.91,-41.31 24.63,-15.31 47.75,-32.32 67.62,-51.41 19.8,-19.07 36.31,-40.33 46.34,-63.24 5.02,-11.43 8.43,-23.23 9.99,-35.21l0.15 -1.12 0.1 -0.99 0.22 -2 0.07 -0.51c0.02,-0.14 0.03,-0.36 0.05,-0.6l0.08 -1.38 0.16 -2.76 0.03 -0.69c0,0.74 0.02,-0.12 0.02,-0.1l0.03 -1.13 0.05 -2.26c0.09,-1.52 0,-3.02 -0.01,-4.53 -0.16,-6.03 -0.67,-12.08 -1.72,-18.08 -1.05,-6 -2.51,-11.98 -4.32,-17.88 -1.85,-5.91 -4.15,-11.72 -6.71,-17.46 -0.66,-1.43 -1.32,-2.86 -1.99,-4.28 -0.69,-1.42 -1.44,-2.82 -2.15,-4.23 -0.35,-0.7 -0.69,-1.41 -1.08,-2.11l-1.16 -2.08c-0.78,-1.39 -1.5,-2.79 -2.34,-4.16 -0.81,-1.37 -1.64,-2.73 -2.45,-4.1 -0.8,-1.38 -1.73,-2.7 -2.58,-4.05 -1.68,-2.72 -3.56,-5.33 -5.37,-7.98 -7.45,-10.48 -15.75,-20.44 -24.57,-29.87 -8.84,-9.41 -18.22,-18.3 -27.88,-26.71 -19.34,-16.83 -39.8,-31.75 -60.33,-45.22 -10.29,-6.73 -20.58,-13.12 -30.85,-19.15 -10.29,-6.04 -20.51,-11.76 -30.63,-17.22 -10.14,-5.41 -20.17,-10.57 -30.06,-15.48 -9.9,-4.86 -19.63,-9.55 -29.2,-13.92 -19.13,-8.82 -37.53,-16.72 -54.98,-23.81 -34.88,-14.21 -65.87,-25.34 -91.55,-34.08 -25.68,-8.73 -46.06,-15.09 -59.96,-19.34 -6.97,-2.15 -12.32,-3.72 -15.92,-4.79 -3.61,-1.08 -5.47,-1.63 -5.47,-1.63z"/>
   <path class="fil6" d="M9802.14 16844.26c23.55,14.16 77.65,40.46 131.73,40.46 68.92,0 103.81,-38.44 103.81,-88 0,-64.73 -55.83,-94.07 -114.28,-94.07l-54.08 0 0 -110.25 51.47 0c44.49,-1.01 101.19,-20.23 101.19,-75.86 0,-39.45 -27.91,-68.78 -83.75,-68.78 -46.23,0 -95.09,23.27 -118.64,39.45l-27.04 -111.26c34.01,-25.29 102.06,-49.56 175.34,-49.56 121.26,0 188.44,73.83 188.44,163.85 0,69.8 -34.03,124.41 -103.81,152.73l0 2.03c68.04,14.16 123,73.84 123,159.81 0,116.32 -88.11,201.28 -232.06,201.28 -73.27,0 -135.21,-22.25 -168.36,-46.52l27.04 -115.31z"/>
   <path class="fil6" d="M9775.54 16959.4c30.74,22.41 90.91,46.3 167.92,46.3 138.57,0 231.66,-80.73 231.66,-200.89 0,-80.09 -49.3,-144.15 -122.69,-159.42l-0.32 -0.07 0 -2.61 0.25 -0.1c67.76,-27.5 103.57,-80.18 103.57,-152.37 0,-81.36 -58.15,-163.46 -188.04,-163.46 -74.81,0 -141.68,24.75 -174.9,49.33l26.85 110.44c21.61,-14.71 70.32,-39.19 118.39,-39.19 26.6,0 48.41,6.81 63.08,19.7 13.78,12.11 21.07,29.22 21.07,49.48 0,54.58 -54.72,75.19 -101.58,76.26l-51.09 0 0 109.45 53.69 0c30.84,0 58.99,8.11 79.3,22.84 23.15,16.79 35.38,41.56 35.38,71.63 0,25.51 -9.06,47.26 -26.19,62.88 -18.31,16.69 -45.29,25.52 -78.02,25.52 -60.63,0 -119.12,-32.88 -131.47,-40.24l-26.86 114.52zm167.92 47.09c-77.38,0 -137.83,-24.07 -168.6,-46.61l-0.21 -0.15 27.23 -116.1 0.47 0.29c11.22,6.74 70.3,40.4 131.52,40.4 63.79,0 103.42,-33.57 103.42,-87.6 0,-69.14 -61.35,-93.67 -113.89,-93.67l-54.48 0 0 -111.05 51.87 0c46.49,-1.05 100.79,-21.45 100.79,-75.46 0,-42.18 -31.93,-68.38 -83.35,-68.38 -48.24,0 -97.13,24.75 -118.42,39.38l-0.47 0.33 -27.24 -112.08 0.21 -0.16c33.24,-24.71 100.43,-49.64 175.58,-49.64 57.6,0 106,16.69 139.96,48.28 31.52,29.3 48.87,70.49 48.87,115.97 0,35.39 -8.68,66.39 -25.8,92.14 -17.59,26.48 -43.84,46.95 -78.01,60.86l0 1.43c34.15,7.19 65.01,26.02 86.93,53.05 23.6,29.11 36.08,66.14 36.08,107.09 0,28.89 -5.4,56.03 -16.05,80.68 -10.57,24.47 -26.1,45.96 -46.14,63.88 -41.79,37.37 -100.67,57.12 -170.27,57.12z"/>
   <path class="fil6" d="M10552.37 16776.49c0,-60.69 -27.91,-113.29 -84.62,-113.29 -35.76,0 -65.42,25.29 -78.51,58.67 -3.49,8.09 -5.23,20.23 -5.23,38.44 2.61,69.79 31.4,132.5 91.59,132.5 47.12,0 76.77,-49.56 76.77,-116.32zm72.41 -329.74c-14.83,-1.01 -30.53,0 -51.47,2.02 -117.77,11.13 -170.11,80.92 -184.94,157.79l2.62 0c27.91,-33.38 67.17,-52.59 120.38,-52.59 95.09,0 175.35,77.88 175.35,214.42 0,130.49 -86.37,237.7 -209.37,237.7 -150.92,0 -225.07,-130.48 -225.07,-287.25 0,-123.4 39.26,-226.57 100.32,-292.32 56.71,-59.68 129.98,-92.04 218.97,-97.1 24.42,-2.02 40.13,-2.02 53.21,-1.01l0 118.34z"/>
   <path class="fil6" d="M10467.75 16663.6c-33.55,0 -64.23,22.93 -78.14,58.41 -3.55,8.25 -5.21,20.41 -5.21,38.3 1.37,36.42 9.95,69.17 24.16,92.21 16.09,26.1 39.27,39.89 67.04,39.89 22.63,0 41.89,-11.39 55.72,-32.94 13.32,-20.76 20.66,-50.23 20.66,-82.98 0,-31.12 -7.45,-59.24 -20.98,-79.18 -14.96,-22.05 -36.83,-33.71 -63.25,-33.71zm7.85 229.61c-28.06,0 -51.48,-13.93 -67.72,-40.27 -14.28,-23.16 -22.9,-56.05 -24.27,-92.62 0,-18.01 1.67,-30.28 5.27,-38.61 14.02,-35.78 44.99,-58.9 78.87,-58.9 26.69,0 48.79,11.77 63.9,34.05 13.63,20.07 21.12,48.35 21.12,79.63 0,32.9 -7.37,62.52 -20.78,83.41 -13.98,21.79 -33.48,33.31 -56.39,33.31zm131.14 -565.07c-10.04,0 -21.54,0.55 -35.14,1.68 -88.78,5.04 -162.36,37.67 -218.71,96.97 -63.69,68.57 -100.22,175.02 -100.22,292.05 0,174.26 88.19,286.86 224.68,286.86 119.13,0 208.98,-102.02 208.98,-237.31 0,-126.01 -71.95,-214.03 -174.96,-214.03 -50.57,0 -90.97,17.65 -120.08,52.46l-0.12 0.14 -3.28 0 0.09 -0.47c8.16,-42.33 26.33,-77.24 53.98,-103.76 32.19,-30.88 76.37,-49.16 131.32,-54.35 13.01,-1.26 26.78,-2.43 39.31,-2.43 4.14,0 8.01,0.13 11.8,0.37l0 -117.54c-5.66,-0.43 -11.44,-0.64 -17.65,-0.64zm-129.39 678.35c-36.57,0 -69.89,-7.7 -99.02,-22.88 -27.46,-14.31 -51.16,-35.21 -70.44,-62.12 -18.38,-25.66 -32.53,-56.46 -42.05,-91.53 -9.26,-34.1 -13.96,-71.49 -13.96,-111.12 0,-60.12 9.18,-116.62 27.28,-167.91 17.35,-49.15 41.96,-91.1 73.15,-124.68 56.5,-59.46 130.26,-92.17 219.23,-97.23 13.62,-1.12 25.14,-1.67 35.2,-1.67 6.37,0 12.28,0.21 18.07,0.66l0.37 0.03 0 119.14 -0.43 -0.03c-3.9,-0.27 -7.88,-0.4 -12.16,-0.4 -12.49,0 -26.24,1.16 -39.24,2.42 -136.27,12.87 -174.09,103.66 -184.5,156.99l1.95 0c29.26,-34.9 69.83,-52.59 120.57,-52.59 48.07,0 91.98,19.94 123.64,56.14 34.09,38.99 52.11,93.87 52.11,158.68 0,64.25 -20.83,123.93 -58.65,168.04 -38.74,45.18 -92.41,70.06 -151.12,70.06z"/>
   <path class="fil6" d="M10871.66 16667.25c-0.88,150.71 30.53,222.53 82,222.53 51.46,0 79.38,-74.85 79.38,-224.55 0,-145.65 -27.04,-222.52 -80.26,-222.52 -48.85,0 -82,71.81 -81.12,224.54zm293.99 -4.05c0,203.31 -70.67,342.89 -215.48,342.89 -146.56,0 -211.12,-152.73 -211.99,-338.84 0,-190.16 69.79,-340.86 216.34,-340.86 151.8,0 211.13,156.77 211.13,336.81z"/>
   <path class="fil6" d="M10952.78 16443.1c-13.14,0 -25.04,5.27 -35.38,15.66 -30.27,30.45 -45.95,102.54 -45.35,208.49 -0.3,53.5 3.47,98.33 11.24,133.26 7.47,33.63 18.63,58.1 33.18,72.72 10.64,10.71 23.15,16.15 37.19,16.15 25.61,0 45.33,-18.8 58.62,-55.88 13.51,-37.71 20.37,-94.32 20.37,-168.27 0,-72.68 -6.78,-128.44 -20.15,-165.75 -13.41,-37.41 -33.5,-56.38 -59.72,-56.38zm0.88 447.07c-14.26,0 -26.95,-5.51 -37.77,-16.38 -14.64,-14.73 -25.87,-39.33 -33.38,-73.11 -7.78,-34.98 -11.56,-79.87 -11.26,-133.43 -0.6,-106.16 15.16,-178.45 45.59,-209.05 10.48,-10.55 22.58,-15.89 35.94,-15.89 26.59,0 46.94,19.14 60.46,56.9 13.41,37.4 20.21,93.25 20.21,166.02 0,74.04 -6.88,130.74 -20.43,168.54 -13.41,37.43 -33.39,56.4 -59.36,56.4zm0.86 -563.39c-68.82,0 -125.11,34.21 -162.78,98.93 -34.78,59.75 -53.16,143.27 -53.16,241.54 0.46,97.51 18.2,180.16 51.31,239.02 37.11,65.97 91.04,99.43 160.28,99.43 69.9,0 124.3,-31.97 161.7,-95.02 34.92,-58.88 53.38,-144.45 53.38,-247.48 0,-96.2 -16.8,-177.71 -48.59,-235.73 -36.59,-66.81 -91.16,-100.69 -162.14,-100.69zm-4.35 679.71c-35.5,0 -67.47,-9.03 -95.05,-26.84 -25.91,-16.73 -48.09,-41.29 -65.92,-72.99 -33.18,-58.98 -50.96,-141.76 -51.42,-239.41 0,-98.41 18.43,-182.07 53.27,-241.94 18.39,-31.58 41.14,-56.06 67.63,-72.74 28.01,-17.64 60.26,-26.58 95.84,-26.58 36.62,0 69.33,9.21 97.25,27.37 25.99,16.91 48.04,41.72 65.59,73.73 31.85,58.13 48.68,139.78 48.68,236.11 0,103.17 -18.49,188.89 -53.48,247.89 -18.2,30.7 -40.9,54.37 -67.43,70.35 -27.58,16.62 -59.52,25.05 -94.96,25.05z"/>
   <path class="fil6" d="M11193.86 16228.05c-21.65,0 -39.26,17.61 -39.26,39.26 0,21.65 17.61,39.26 39.26,39.26 21.65,0 39.26,-17.61 39.26,-39.26 0,-21.65 -17.61,-39.26 -39.26,-39.26zm0 126.29c-47.99,0 -87.03,-39.04 -87.03,-87.03 0,-47.99 39.04,-87.03 87.03,-87.03 47.99,0 87.03,39.04 87.03,87.03 0,47.99 -39.04,87.03 -87.03,87.03z"/>
  </g>
 </g>
</svg>
