<?xml version="1.0" encoding="UTF-8"?>
<!DOCTYPE svg PUBLIC "-//W3C//DTD SVG 1.1//EN" "http://www.w3.org/Graphics/SVG/1.1/DTD/svg11.dtd">
<!-- Creator: CorelDRAW -->
<svg xmlns="http://www.w3.org/2000/svg" xml:space="preserve" width="210mm" height="297mm" version="1.1" style="shape-rendering:geometricPrecision; text-rendering:geometricPrecision; image-rendering:optimizeQuality; fill-rule:evenodd; clip-rule:evenodd"
viewBox="0 0 21000 29700"
 xmlns:xlink="http://www.w3.org/1999/xlink"
 xmlns:xodm="http://www.corel.com/coreldraw/odm/2003">
 <defs>
  <style type="text/css">
   <![CDATA[
    .fil2 {fill:#151618}
    .fil6 {fill:#161616}
    .fil1 {fill:#B9120C}
    .fil5 {fill:#DE1C13}
    .fil3 {fill:#DE1D13}
    .fil0 {fill:#E01C13}
    .fil4 {fill:#F5F9FA}
   ]]>
  </style>
   <clipPath id="id0">
    <rect x="21251.75" y="-10423.35" width="8725.25" height="8725.25"/>
   </clipPath>
   <clipPath id="id1">
    <rect x="42841.58" y="-10142.97" width="33866.66" height="33866.66"/>
   </clipPath>
   <clipPath id="id2">
    <rect x="35561.78" y="164.77" width="8424.32" height="8204.2"/>
   </clipPath>
 </defs>
 <g id="Camada_x0020_1">
  <metadata id="CorelCorpID_0Corel-Layer"/>
  <g style="clip-path:url(#id0)">
   <image x="21251.75" y="-10423.35" width="8725.25" height="8725.25" xlink:href="OCR_Images\OCR_ImgID1.png"/>
  </g>
  <g id="_2302270210816">
   <path class="fil0" d="M9237.81 13522.59c219.23,-35.28 387.24,100.22 410.36,285.46 26.1,209.01 -71.97,375.64 -280.4,407.21 -104.82,15.88 -218.94,-4.56 -289.29,-56.62 -70.18,-51.94 -104.58,-121.4 -121.8,-227.75 -17.25,-106.52 14.27,-212.23 61.53,-280.92 53.37,-77.58 128.5,-112.71 219.6,-127.38zm1159.21 4.4c143.03,-8.09 331.98,-19.79 430.22,73.23 43.73,41.39 60.88,126.38 35.57,197.78 -31.28,88.27 -133.51,110.81 -133.69,110.51 -0.68,-1.12 -2.57,1.13 -3.75,1.89 9.63,19.92 36.64,43.07 53.24,69.86l126.94 236.52 -149.41 -1.29c-30.73,-49.87 -56.81,-110.09 -83.42,-163.24 -54.27,-108.4 -71.18,-105.74 -146.55,-101.38l-1.56 265.94 -130.24 -0.6 2.65 -689.22zm-167.68 496.43c16.78,13.1 62.09,71.69 64.36,96.72 -7.26,41.34 -213.58,153.45 -390.96,72.45 -121.54,-55.5 -193.08,-156.89 -191.1,-321.22 2.97,-247.52 200.82,-386.44 417.85,-348.07 49.82,8.81 148.2,49.78 168.13,89.55 -0.86,31.65 -43.94,87.15 -68.28,96.67 -18.58,-8.18 -105.74,-119.06 -243.23,-57.04 -39.75,17.93 -59.86,38.1 -86.86,79.19 -55.44,84.39 -57.1,299.47 84.38,355.81 36.83,14.67 103.09,17.41 143.47,3.56 41.35,-14.18 71.72,-60.71 102.24,-67.62zm-1346.17 -2034.86c-0.04,-30.5 8.71,-23.92 38.93,-23.85l1209.68 0.01c245.74,0.01 564,-4.88 809.56,1.47l0.36 95.53c1.43,335.77 -127.37,616.9 -303.25,799.28 -166.48,172.65 -411.53,339.53 -760.45,326.58 -314.73,-11.68 -575.39,-193.54 -720.73,-370.75 -179.5,-218.86 -273.57,-470.2 -274.1,-828.27zm-43.54 -532.59c65.47,-13.86 255.69,-4.65 336.11,-4.61l1707.22 0.98c187.72,-0.37 185.14,12.06 185.18,155.75 0.01,56.77 -0.6,114.04 0.47,170.75 1.05,56.03 -10.79,98.1 -63.5,102.43 -100.41,8.25 -237.13,0.39 -341.65,0.66l-1707.22 -0.41c-180.24,-0.24 -185,14.89 -185.67,-156.36 -0.22,-56.47 -1.47,-114.64 -0.21,-170.93 1.33,-58.97 17.62,-87.31 69.27,-98.26zm971.58 -716.94c-38.76,4.35 -80.59,4.69 -118.86,8.31 -72.69,6.88 -148.27,25.76 -219.32,40.76 -192.77,40.72 -389.13,129.45 -559.63,221.77 -63.74,34.51 -179.31,114.3 -237.12,157.27l-141.2 117.57c-31.63,30.64 -71.63,61.09 -100.88,94.02 -12.03,13.55 -18.61,18.58 -34.33,34 -117.07,114.88 -243.58,303.55 -322.93,452.44l-83.64 179.03c-54.69,130.65 -62.55,207.74 -94.2,296.14 -10.54,29.43 -42.62,235.35 -46.14,277.25 -8.54,101.63 -16.34,209.53 -10.25,316.55 10.94,192.05 53.69,358.69 107.47,532.78 25.51,82.55 97.66,250.49 133.33,326.46 8.7,18.53 14.19,20.88 22.66,40.87l22.69 47.81c0.33,0.4 1.35,1.32 1.71,1.74 48.81,56.09 80.53,125.45 125.09,185.65 54.45,73.58 118.51,144.63 178,212.2 9.86,11.19 18.85,20.06 31.68,31.87 57.58,52.98 110.41,104.88 172.38,154.45 148.43,118.72 314.42,215.05 488.66,291.71 272.34,119.83 583.75,162.49 888.35,153.42 151.71,-4.52 306.56,-41.57 444.84,-71.75 35.35,-7.71 62.28,-21.32 95.8,-30.48l94.43 -35.52c90.86,-37.33 181.75,-75.42 266.31,-124.5 85.08,-49.38 163.28,-99 240.16,-154.9l176.88 -145.11c15.46,-12.44 20.95,-21.62 34.16,-34.28 44.53,-42.7 90.06,-82.31 125.75,-132.31 56.32,-78.89 112.38,-145.69 162.5,-228.13 49.32,-81.13 101.35,-162.93 137.41,-252.73 80,-199.27 113.3,-288.24 158.65,-495.3 29.6,-135.12 44.21,-334.35 30.52,-486.69 -3.23,-35.95 -8.15,-71.46 -10.97,-113.56 -2.81,-41.84 -13.97,-73.2 -18.49,-111.8 -14.1,-120.37 -66.45,-298.62 -109.9,-409.47 -22.02,-56.19 -48.08,-134.56 -77.39,-185.11l-3.83 -6.02c-0.56,-0.9 -1.41,-2.04 -1.96,-2.95 -1.72,-2.86 -3.67,-5.95 -5.28,-9.27 -28.61,-59.2 -103.76,-200.27 -142.77,-247.88l-42.64 -59.31c-37.28,-54.27 -71.97,-92.2 -116.06,-142.67 -21.11,-24.16 -38.83,-43.92 -63.68,-68.06 -64.05,-62.23 -136.14,-128.97 -208.45,-181.95l-109.01 -81.11c-37.19,-27.88 -81.65,-48.91 -120.18,-75 -48.75,-33.01 -157.1,-83.94 -214.64,-112.39 -115.02,-56.86 -314.58,-117.94 -445.69,-142.75 -129.77,-24.54 -339.52,-48.82 -479.99,-33.07z"/>
   <path class="fil1" d="M9811.21 10739.03c140.47,-15.75 350.22,8.53 479.99,33.07 131.11,24.81 330.67,85.89 445.69,142.75 57.54,28.45 165.89,79.38 214.64,112.39 38.53,26.09 82.99,47.12 120.18,75l109.01 81.11c72.31,52.98 144.4,119.72 208.45,181.95 24.85,24.14 42.57,43.9 63.68,68.06 44.09,50.47 78.78,88.4 116.06,142.67l42.64 59.31c39.01,47.61 114.16,188.68 142.77,247.88 1.61,3.32 3.56,6.41 5.28,9.27 0.55,0.91 1.4,2.05 1.96,2.95l3.83 6.02c29.31,50.55 55.37,128.92 77.39,185.11 43.45,110.85 95.8,289.1 109.9,409.47 4.52,38.6 15.68,69.96 18.49,111.8 2.82,42.1 7.74,77.61 10.97,113.56 13.69,152.34 -0.92,351.57 -30.52,486.69 -45.35,207.06 -78.65,296.03 -158.65,495.3 -36.06,89.8 -88.09,171.6 -137.41,252.73 -50.12,82.44 -106.18,149.24 -162.5,228.13 -35.69,50 -81.22,89.61 -125.75,132.31 -13.21,12.66 -18.7,21.84 -34.16,34.28l-176.88 145.11c-76.88,55.9 -155.08,105.52 -240.16,154.9 -84.56,49.08 -175.45,87.17 -266.31,124.5l-94.43 35.52c-33.52,9.16 -60.45,22.77 -95.8,30.48 -138.28,30.18 -293.13,67.23 -444.84,71.75 -304.6,9.07 -616.01,-33.59 -888.35,-153.42 -174.24,-76.66 -340.23,-172.99 -488.66,-291.71 -61.97,-49.57 -114.8,-101.47 -172.38,-154.45 -12.83,-11.81 -21.82,-20.68 -31.68,-31.87 -59.49,-67.57 -123.55,-138.62 -178,-212.2 -44.56,-60.2 -76.28,-129.56 -125.09,-185.65 -0.36,-0.42 -1.38,-1.34 -1.71,-1.74l-22.69 -47.81c-8.47,-19.99 -13.96,-22.34 -22.66,-40.87 -35.67,-75.97 -107.82,-243.91 -133.33,-326.46 -53.78,-174.09 -96.53,-340.73 -107.47,-532.78 -6.09,-107.02 1.71,-214.92 10.25,-316.55 3.52,-41.9 35.6,-247.82 46.14,-277.25 31.65,-88.4 39.51,-165.49 94.2,-296.14l83.64 -179.03c79.35,-148.89 205.86,-337.56 322.93,-452.44 15.72,-15.42 22.3,-20.45 34.33,-34 29.25,-32.93 69.25,-63.38 100.88,-94.02l141.2 -117.57c57.81,-42.97 173.38,-122.76 237.12,-157.27 170.5,-92.32 366.86,-181.05 559.63,-221.77 71.05,-15 146.63,-33.88 219.32,-40.76 38.27,-3.62 80.1,-3.96 118.86,-8.31zm-50.94 -250.33c-94.87,9.84 -172.53,15.16 -262.95,30.81 -81.82,14.17 -162.14,34.1 -237.34,56.21 -427.26,125.63 -809.04,367.65 -1083.2,677.23 -423.94,478.73 -642.13,1053.48 -605.1,1735.53 26.16,481.79 212.29,923.45 481.87,1278.29 249.97,329.02 622.79,609.2 1008.95,757.18 771.67,295.71 1641.1,173.86 2286.7,-325.44 217.83,-168.47 412.23,-379.56 559.94,-615.66 77.35,-123.64 137.09,-244.3 198.26,-392.24 111.02,-268.51 185.08,-673.95 156.67,-1011.47 -30.12,-357.93 -112.21,-643.18 -254.2,-919.55 -265.44,-516.63 -699.89,-902.16 -1235.37,-1116.36 -271.13,-108.46 -678.35,-189.35 -1014.23,-154.53z"/>
   <path class="fil2" d="M9597.17 12656.81c-29.59,-183.81 116.24,-353.46 265.85,-371.57 192.64,-23.32 336.36,107.38 364.82,270.24 33.74,193.04 -107.43,350.57 -265.96,371.95 -195.04,26.31 -338.15,-105.65 -364.71,-270.62zm-714 -668.25c0.53,358.07 94.6,609.41 274.1,828.27 145.34,177.21 406,359.07 720.73,370.75 348.92,12.95 593.97,-153.93 760.45,-326.58 175.88,-182.38 304.68,-463.51 303.25,-799.28l-0.36 -95.53c-245.56,-6.35 -563.82,-1.46 -809.56,-1.47l-1209.68 -0.01c-30.22,-0.07 -38.97,-6.65 -38.93,23.85z"/>
   <path class="fil2" d="M8839.63 11455.97c-51.65,10.95 -67.94,39.29 -69.27,98.26 -1.26,56.29 -0.01,114.46 0.21,170.93 0.67,171.25 5.43,156.12 185.67,156.36l1707.22 0.41c104.52,-0.27 241.24,7.59 341.65,-0.66 52.71,-4.33 64.55,-46.4 63.5,-102.43 -1.07,-56.71 -0.46,-113.98 -0.47,-170.75 -0.04,-143.69 2.54,-156.12 -185.18,-155.75l-1707.22 -0.98c-80.42,-0.04 -270.64,-9.25 -336.11,4.61z"/>
   <path class="fil3" d="M9879.31 12461.48c82.94,-22.16 158.53,43.77 175.51,105.51 26.13,94.99 -38.21,162.46 -103.18,182.78 -184.03,57.55 -264.11,-237.05 -72.33,-288.29zm-282.14 195.33c26.56,164.97 169.67,296.93 364.71,270.62 158.53,-21.38 299.7,-178.91 265.96,-371.95 -28.46,-162.86 -172.18,-293.56 -364.82,-270.24 -149.61,18.11 -295.44,187.76 -265.85,371.57z"/>
   <path class="fil4" d="M9491.52 13920.15c-20.9,130.2 -104.42,204.09 -245,176.33 -208.71,-41.21 -200.77,-522.58 102.28,-453.41 112.47,25.67 163.91,145.06 142.72,277.08zm-253.71 -397.56c-91.1,14.67 -166.23,49.8 -219.6,127.38 -47.26,68.69 -78.78,174.4 -61.53,280.92 17.22,106.35 51.62,175.81 121.8,227.75 70.35,52.06 184.47,72.5 289.29,56.62 208.43,-31.57 306.5,-198.2 280.4,-407.21 -23.12,-185.24 -191.13,-320.74 -410.36,-285.46z"/>
   <path class="fil4" d="M10590.29 13843.02l-63.28 0.03 0.64 -209.38c271.46,-24.59 221.29,142.22 179.02,183.24 -28.69,27.85 -70.05,26 -116.38,26.11zm-195.92 373.19l130.24 0.6 1.56 -265.94c75.37,-4.36 92.28,-7.02 146.55,101.38 26.61,53.15 52.69,113.37 83.42,163.24l149.41 1.29 -126.94 -236.52c-16.6,-26.79 -43.61,-49.94 -53.24,-69.86 1.18,-0.76 3.07,-3.01 3.75,-1.89 0.18,0.3 102.41,-22.24 133.69,-110.51 25.31,-71.4 8.16,-156.39 -35.57,-197.78 -98.24,-93.02 -287.19,-81.32 -430.22,-73.23l-2.65 689.22z"/>
   <path class="fil4" d="M10229.34 14023.42c-30.52,6.91 -60.89,53.44 -102.24,67.62 -40.38,13.85 -106.64,11.11 -143.47,-3.56 -141.48,-56.34 -139.82,-271.42 -84.38,-355.81 27,-41.09 47.11,-61.26 86.86,-79.19 137.49,-62.02 224.65,48.86 243.23,57.04 24.34,-9.52 67.42,-65.02 68.28,-96.67 -19.93,-39.77 -118.31,-80.74 -168.13,-89.55 -217.03,-38.37 -414.88,100.55 -417.85,348.07 -1.98,164.33 69.56,265.72 191.1,321.22 177.38,81 383.7,-31.11 390.96,-72.45 -2.27,-25.03 -47.58,-83.62 -64.36,-96.72z"/>
   <path class="fil5" d="M9491.52 13920.15c21.19,-132.02 -30.25,-251.41 -142.72,-277.08 -303.05,-69.17 -310.99,412.2 -102.28,453.41 140.58,27.76 224.1,-46.13 245,-176.33z"/>
   <path class="fil6" d="M9879.31 12461.48c-191.78,51.24 -111.7,345.84 72.33,288.29 64.97,-20.32 129.31,-87.79 103.18,-182.78 -16.98,-61.74 -92.57,-127.67 -175.51,-105.51z"/>
   <path class="fil3" d="M10590.29 13843.02c46.33,-0.11 87.69,1.74 116.38,-26.11 42.27,-41.02 92.44,-207.83 -179.02,-183.24l-0.64 209.38 63.28 -0.03z"/>
  </g>
  <g style="clip-path:url(#id1)">
   <image x="42841.58" y="-10142.97" width="33866.66" height="33866.66" xlink:href="OCR_Images\OCR_ImgID2.png"/>
  </g>
  <g style="clip-path:url(#id2)">
   <image x="35561.78" y="164.77" width="8424.32" height="8204.2" xlink:href="OCR_Images\OCR_ImgID3.png"/>
  </g>
 </g>
</svg>
