<?xml version="1.0" encoding="UTF-8"?>
<!DOCTYPE svg PUBLIC "-//W3C//DTD SVG 1.1//EN" "http://www.w3.org/Graphics/SVG/1.1/DTD/svg11.dtd">
<!-- Creator: CorelDRAW -->
<svg xmlns="http://www.w3.org/2000/svg" xml:space="preserve" width="210mm" height="297mm" version="1.1" style="shape-rendering:geometricPrecision; text-rendering:geometricPrecision; image-rendering:optimizeQuality; fill-rule:evenodd; clip-rule:evenodd"
viewBox="0 0 21000 29700"
 xmlns:xlink="http://www.w3.org/1999/xlink"
 xmlns:xodm="http://www.corel.com/coreldraw/odm/2003">
 <defs>
  <style type="text/css">
   <![CDATA[
    .fil2 {fill:#1E1518}
    .fil3 {fill:#1F1418}
    .fil1 {fill:#C2110B}
    .fil10 {fill:#DC241B}
    .fil8 {fill:#E12116}
    .fil7 {fill:#E81F15}
    .fil0 {fill:#E82013}
    .fil4 {fill:#FAFAFC}
    .fil9 {fill:#FEF5F3}
    .fil5 {fill:#FEFAF6}
    .fil6 {fill:#FFF9F9}
   ]]>
  </style>
 </defs>
 <g id="Camada_x0020_1">
  <metadata id="CorelCorpID_0Corel-Layer"/>
  <g id="_1963895047264">
   <path class="fil0" d="M10906.22 16304.11l89.99 -0.62c19.67,85.5 -47.4,298.83 72.38,301.99 114.49,3.01 75.67,-207.81 77.61,-297.41l88.49 -3.91c14.73,167.51 34.05,393.2 -160.37,391.72 -90.76,-0.7 -140.2,-45.93 -162.38,-118.56 -11.11,-36.4 -14.23,-231.76 -5.72,-273.21zm-522.56 225.31c-51.39,258.82 -441.84,205.6 -396.8,-73.93 40.9,-253.79 448.66,-187.28 396.8,73.93zm1009.87 157.31l-92 4.97 10.98 -383.34c11.66,-10.85 80.48,-4.4 99.72,-4.36l99.98 219.83 96.37 -218.64c47.27,19.67 111.71,-72.04 116.23,138.32 1.63,75.53 3.15,170.59 -5.31,244.89l-83.95 -0.07 -8.58 -226.94 -79.29 188.72c-130.19,18.61 -94.05,-131.83 -153.92,-196l-0.23 232.62zm-862.67 4.31l-88.26 0.43 -2.48 -383.8c185.31,-44.96 136.52,136.9 210.43,210.63l89.66 -211.6c113.03,-39.72 116.02,55.12 117.59,136.81 1.13,59.1 8.92,199.05 -10.23,242.73 -20.3,0.06 -66.68,5.14 -82.82,-3.75l0.47 -227.64c-34.62,40.08 -49.09,166.91 -91.76,191.72 -99.37,41.6 -97.13,-148.23 -143.16,-197.61l0.56 242.08zm-551.38 -64.26c-39,100.87 -290.83,96.92 -353.01,-40.43 -95.83,-211.7 146.61,-352.89 323.78,-260.94 48.54,25.19 7,41.57 -21.87,60.46 -46.94,30.7 -135.94,-52.87 -195.96,38.45 -46.05,70.04 -7.24,163.8 56.5,182.1 94.49,27.14 91.38,-67.25 190.56,20.36zm1459.2 -503.3l145.02 -389.54c109.52,-10.16 118.41,79.79 155.86,164.54 23.51,53.21 83.22,177.54 94.36,222.68l-101.11 -0.1 -32.2 -63.98 -145.72 1.06c-21.28,81.51 -27.23,67.08 -116.21,65.34zm-1522.41 -0.54l146.01 -391c105.34,-6.27 119.02,85.38 153.42,166.6 19.63,46.33 85.75,182.76 93.03,224.73 -77.57,3.3 -117.39,13 -125.61,-65.1l-148.58 -0.64c-32.81,77.21 -9.23,70.65 -118.27,65.41zm411.38 0.36l15.61 -388.21 101.1 -2.4 102.68 220.63 87.22 -218.61c124.74,-15.54 114.28,28.53 116.33,136.12 1.54,80.22 2.24,170.96 -3.97,250.63l-88.39 -7.58 -5.66 -219.47 -82.19 185.1c-99.71,46.88 -96.69,-138.73 -145.74,-182.92 -5.19,258.98 30.66,230.82 -96.99,226.71zm998.26 -138.99l94.93 136.97c-191.97,13.56 -118.71,-76.24 -204.28,-120.21l-1.46 119.2 -92.77 2.95 -1.76 -388.11c80.23,-13.91 228.71,-5.13 274.63,44.08 68.61,73.52 8.96,176.45 -69.29,205.12zm-1412.36 75.5c-29.43,91.81 -290.83,108.09 -353.85,-43.1 -67.8,-162.67 58.35,-299.85 214.16,-289.47 68.51,4.57 186.16,29.74 91.49,91.76 -47.62,31.2 -134.98,-55.72 -198.7,35.75 -45.84,65.82 -14.56,156.86 45.88,181.3 94.28,38.13 98.32,-66.24 201.02,23.76zm998.73 -247.88l-3.32 68.22 136.35 2.9 -1.21 73.16 -132.82 8.89 -2.61 74.76 156.75 0.94c3.11,74.78 -13.53,83.2 -82.43,83.4 -53.58,0.16 -114.67,2.28 -167.41,-1.54l-0.7 -389.2 258.67 -0.84c1.11,115.43 -66.5,68.47 -161.27,79.31zm-741.41 -117.42l-158.81 0.14c4.26,-36.26 42.26,-66.66 77.03,-65.3 35.53,1.39 75.21,34.09 81.78,65.16zm1332.02 -1398.16c-0.99,79.89 -15.94,235.18 -53.17,283.3 -64.75,83.7 -168.44,57.69 -269.26,39.21 -103.49,-18.96 -502.17,-107.57 -567.67,-103.06 -10.05,98.53 -15.45,61.01 -56.09,115.76 -60.07,80.9 -2.24,33.32 -99.61,77.51 -4.78,67.85 -0.62,147.76 0.06,216.82 1.04,106.23 2.14,105.02 -63.48,155.5 -131.59,101.22 -181.4,45.67 -355.87,45.16 -81.76,-0.24 -132.49,-10.03 -205.41,11.91 -156.49,47.07 -318.17,-43.33 -317.17,119.33 0.24,40.09 11.16,186.86 -6.18,209.61l-153.47 3.5 -0.01 -825.57c14.46,-12.2 127.52,-5.35 153.8,-5.27 29.4,80.54 -32.17,224.13 41.94,263.31 45.84,24.23 222.14,13.15 291.76,13.08 83.17,-0.08 227.66,8.65 303.46,-1.32 115.91,-15.25 104.93,-93.48 97.54,-206.86 -22.04,-22.97 -41.11,-13.45 -59.09,-49.72 -20.41,-41.18 -22.95,-37.59 -43.89,-70.64 -55.46,-87.53 30.09,-151.39 -61.36,-167.19 -131.07,-22.64 -260.31,-44.32 -388.43,-69.9 -178.1,-35.57 -162.33,-280.67 -122.7,-296.73 32.81,-13.29 1074.05,181.97 1171.49,197.1 125.26,19.45 262.99,41.27 385.59,67.88 317.5,68.88 289.6,-13.11 377.22,-22.72zm58.56 245.67c-5.33,-52.89 10.24,-131.74 14.32,-184.98 6.65,-86.83 -12.45,-110.97 50.53,-150.6 27.53,-17.33 222.2,-150.14 247.31,-149.27 5.38,67.62 -29.67,159.1 -10.04,194.05 19.96,35.53 24.54,54.16 -6.35,83.24 -31.68,29.81 -23.67,34 -31.92,82.39 -10.23,60.03 -5.89,152.59 -69.62,161.44 -41.41,5.74 -166.26,-22.41 -194.23,-36.27zm-2005.94 -1193.12c71.08,-20.25 1361.79,220.5 1537.76,251.77 258.01,45.86 511.88,83.31 766.67,132.07 126.44,24.2 336.81,27.22 124.89,150.74 -88.87,51.8 -178.15,117.19 -270.18,176.5 -307.37,198.08 -238.85,223.27 -664.84,146.29 -504.07,-91.08 -1028.57,-173.08 -1528.64,-270.08 -200.24,-38.84 -130.65,-94.79 -89.81,-263.16 15.46,-63.7 31.1,-121.58 44.05,-180.25 15.38,-69.61 18.99,-126.48 80.1,-143.88zm1024.92 -944.94c-78.36,13.78 -191.18,5.1 -280.49,21.37 -263.8,48.04 -453.15,100.01 -694.88,217.35 -348.53,169.17 -791.38,508.82 -988.08,839.57 -36.16,60.8 -76.96,124.76 -115.63,187.84 -32.7,53.33 -68.51,145.63 -99.48,208.91 -56.91,116.26 -108.33,325.92 -146.46,460.93 -39.73,140.7 -56.74,399.06 -52.73,563.05 9.92,405.88 95.83,677.22 226.16,995.79 106.78,260.99 316.72,533.4 500.8,719.11 195.83,197.54 451.13,369.75 727.29,492.72 436.36,194.3 1056.67,258.99 1556.78,124.77 181.04,-48.59 287.45,-101.33 440.48,-164.99 269,-111.89 524.64,-324.21 719.52,-501.47 150.61,-136.99 383.64,-510.8 479.05,-741.44 120.21,-290.62 220.99,-628.67 196.51,-1018.67 -32.35,-515.37 -164.91,-969.24 -449.33,-1379.75 -236.34,-341.11 -620.59,-647.89 -1014.2,-819.91 -132.37,-57.85 -293.92,-118.83 -455.33,-150.68 -122.13,-24.1 -426.18,-76.26 -549.98,-54.5z"/>
   <path class="fil1" d="M10580.43 12403.96c123.8,-21.76 427.85,30.4 549.98,54.5 161.41,31.85 322.96,92.83 455.33,150.68 393.61,172.02 777.86,478.8 1014.2,819.91 284.42,410.51 416.98,864.38 449.33,1379.75 24.48,390 -76.3,728.05 -196.51,1018.67 -95.41,230.64 -328.44,604.45 -479.05,741.44 -194.88,177.26 -450.52,389.58 -719.52,501.47 -153.03,63.66 -259.44,116.4 -440.48,164.99 -500.11,134.22 -1120.42,69.53 -1556.78,-124.77 -276.16,-122.97 -531.46,-295.18 -727.29,-492.72 -184.08,-185.71 -394.02,-458.12 -500.8,-719.11 -130.33,-318.57 -216.24,-589.91 -226.16,-995.79 -4.01,-163.99 13,-422.35 52.73,-563.05 38.13,-135.01 89.55,-344.67 146.46,-460.93 30.97,-63.28 66.78,-155.58 99.48,-208.91 38.67,-63.08 79.47,-127.04 115.63,-187.84 196.7,-330.75 639.55,-670.4 988.08,-839.57 241.73,-117.34 431.08,-169.31 694.88,-217.35 89.31,-16.27 202.13,-7.59 280.49,-21.37zm-136.88 -292.74c-443.13,47.59 -736.94,119.13 -1078.86,297.18 -308.67,160.75 -599.53,389.45 -780.87,599.66 -438.44,508.27 -761.43,1146.51 -709.28,2049.79 83.93,1453.51 1364.17,2654.56 2942.24,2559.34 857.88,-51.76 1451.21,-477.25 1855.37,-898.78 382.4,-398.82 799.58,-1236.54 710.14,-2038.75 -49.65,-445.3 -118.99,-728.15 -297.63,-1076.46 -310.62,-605.64 -823.56,-1060.24 -1450.44,-1310.53 -316.58,-126.39 -799.02,-223.51 -1190.67,-181.45z"/>
   <path class="fil2" d="M9555.51 13348.9c-61.11,17.4 -64.72,74.27 -80.1,143.88 -12.95,58.67 -28.59,116.55 -44.05,180.25 -40.84,168.37 -110.43,224.32 89.81,263.16 500.07,97 1024.57,179 1528.64,270.08 425.99,76.98 357.47,51.79 664.84,-146.29 92.03,-59.31 181.31,-124.7 270.18,-176.5 211.92,-123.52 1.55,-126.54 -124.89,-150.74 -254.79,-48.76 -508.66,-86.21 -766.67,-132.07 -175.97,-31.27 -1466.68,-272.02 -1537.76,-251.77z"/>
   <path class="fil2" d="M9509.04 15467.4c17.34,-22.75 6.42,-169.52 6.18,-209.61 -1,-162.66 160.68,-72.26 317.17,-119.33 72.92,-21.94 123.65,-12.15 205.41,-11.91 174.47,0.51 224.28,56.06 355.87,-45.16 65.62,-50.48 64.52,-49.27 63.48,-155.5 -0.68,-69.06 -4.84,-148.97 -0.06,-216.82 97.37,-44.19 39.54,3.39 99.61,-77.51 40.64,-54.75 46.04,-17.23 56.09,-115.76 65.5,-4.51 464.18,84.1 567.67,103.06 100.82,18.48 204.51,44.49 269.26,-39.21 37.23,-48.12 52.18,-203.41 53.17,-283.3 -87.62,9.61 -59.72,91.6 -377.22,22.72 -122.6,-26.61 -260.33,-48.43 -385.59,-67.88 -97.44,-15.13 -1138.68,-210.39 -1171.49,-197.1 -39.63,16.06 -55.4,261.16 122.7,296.73 128.12,25.58 257.36,47.26 388.43,69.9 91.45,15.8 5.9,79.66 61.36,167.19 20.94,33.05 23.48,29.46 43.89,70.64 17.98,36.27 37.05,26.75 59.09,49.72 7.39,113.38 18.37,191.61 -97.54,206.86 -75.8,9.97 -220.29,1.24 -303.46,1.32 -69.62,0.07 -245.92,11.15 -291.76,-13.08 -74.11,-39.18 -12.54,-182.77 -41.94,-263.31 -26.28,-0.08 -139.34,-6.93 -153.8,5.27l0.01 825.57 153.47 -3.5z"/>
   <path class="fil3" d="M11561.45 14542.02c27.97,13.86 152.82,42.01 194.23,36.27 63.73,-8.85 59.39,-101.41 69.62,-161.44 8.25,-48.39 0.24,-52.58 31.92,-82.39 30.89,-29.08 26.31,-47.71 6.35,-83.24 -19.63,-34.95 15.42,-126.43 10.04,-194.05 -25.11,-0.87 -219.78,131.94 -247.31,149.27 -62.98,39.63 -43.88,63.77 -50.53,150.6 -4.08,53.24 -19.65,132.09 -14.32,184.98z"/>
   <path class="fil4" d="M10327.65 16123.3c127.65,4.11 91.8,32.27 96.99,-226.71 49.05,44.19 46.03,229.8 145.74,182.92l82.19 -185.1 5.66 219.47 88.39 7.58c6.21,-79.67 5.51,-170.41 3.97,-250.63 -2.05,-107.59 8.41,-151.66 -116.33,-136.12l-87.22 218.61 -102.68 -220.63 -101.1 2.4 -15.61 388.21z"/>
   <path class="fil4" d="M10530.3 16448.96c46.03,49.38 43.79,239.21 143.16,197.61 42.67,-24.81 57.14,-151.64 91.76,-191.72l-0.47 227.64c16.14,8.89 62.52,3.81 82.82,3.75 19.15,-43.68 11.36,-183.63 10.23,-242.73 -1.57,-81.69 -4.56,-176.53 -117.59,-136.81l-89.66 211.6c-73.91,-73.73 -25.12,-255.59 -210.43,-210.63l2.48 383.8 88.26 -0.43 -0.56 -242.08z"/>
   <path class="fil5" d="M11393.76 16454.11c59.87,64.17 23.73,214.61 153.92,196l79.29 -188.72 8.58 226.94 83.95 0.07c8.46,-74.3 6.94,-169.36 5.31,-244.89 -4.52,-210.36 -68.96,-118.65 -116.23,-138.32l-96.37 218.64 -99.98 -219.83c-19.24,-0.04 -88.06,-6.49 -99.72,4.36l-10.98 383.34 92 -4.97 0.23 -232.62z"/>
   <path class="fil5" d="M10157.33 16383.76c159.77,-41.67 174.92,200.94 56.13,224.86 -155.48,31.32 -185.81,-191.03 -56.13,-224.86zm226.33 145.66c51.86,-261.21 -355.9,-327.72 -396.8,-73.93 -45.04,279.53 345.41,332.75 396.8,73.93z"/>
   <path class="fil4" d="M11219.11 15809.95c53.47,-2.41 106.78,-2.33 105.12,55.09 -1.62,55.96 -55.64,56.62 -109.32,53.72l4.2 -108.81zm106.8 174.36c78.25,-28.67 137.9,-131.6 69.29,-205.12 -45.92,-49.21 -194.4,-57.99 -274.63,-44.08l1.76 388.11 92.77 -2.95 1.46 -119.2c85.57,43.97 12.31,133.77 204.28,120.21l-94.93 -136.97z"/>
   <path class="fil6" d="M10906.22 16304.11c-8.51,41.45 -5.39,236.81 5.72,273.21 22.18,72.63 71.62,117.86 162.38,118.56 194.42,1.48 175.1,-224.21 160.37,-391.72l-88.49 3.91c-1.94,89.6 36.88,300.42 -77.61,297.41 -119.78,-3.16 -52.71,-216.49 -72.38,-301.99l-89.99 0.62z"/>
   <path class="fil5" d="M11632.79 15855.76c7.11,31.42 40.76,101.41 36.41,127.56l-85.55 2.43c0.37,-12.83 26.61,-112.54 49.14,-129.99zm-194.11 267.72c88.98,1.74 94.93,16.17 116.21,-65.34l145.72 -1.06 32.2 63.98 101.11 0.1c-11.14,-45.14 -70.85,-169.47 -94.36,-222.68 -37.45,-84.75 -46.34,-174.7 -155.86,-164.54l-145.02 389.54z"/>
   <path class="fil5" d="M10060.53 15986.04l43.42 -137.75c10.94,15.46 43.62,114.08 45.65,133.16l-89.07 4.59zm-144.26 136.9c109.04,5.24 85.46,11.8 118.27,-65.41l148.58 0.64c8.22,78.1 48.04,68.4 125.61,65.1 -7.28,-41.97 -73.4,-178.4 -93.03,-224.73 -34.4,-81.22 -48.08,-172.87 -153.42,-166.6l-146.01 391z"/>
   <path class="fil6" d="M10912.28 15811.93c94.77,-10.84 162.38,36.12 161.27,-79.31l-258.67 0.84 0.7 389.2c52.74,3.82 113.83,1.7 167.41,1.54 68.9,-0.2 85.54,-8.62 82.43,-83.4l-156.75 -0.94 2.61 -74.76 132.82 -8.89 1.21 -73.16 -136.35 -2.9 3.32 -68.22z"/>
   <path class="fil5" d="M9913.55 16059.81c-102.7,-90 -106.74,14.37 -201.02,-23.76 -60.44,-24.44 -91.72,-115.48 -45.88,-181.3 63.72,-91.47 151.08,-4.55 198.7,-35.75 94.67,-62.02 -22.98,-87.19 -91.49,-91.76 -155.81,-10.38 -281.96,126.8 -214.16,289.47 63.02,151.19 324.42,134.91 353.85,43.1z"/>
   <path class="fil5" d="M9979.48 16626.78c-99.18,-87.61 -96.07,6.78 -190.56,-20.36 -63.74,-18.3 -102.55,-112.06 -56.5,-182.1 60.02,-91.32 149.02,-7.75 195.96,-38.45 28.87,-18.89 70.41,-35.27 21.87,-60.46 -177.17,-91.95 -419.61,49.24 -323.78,260.94 62.18,137.35 314.01,141.3 353.01,40.43z"/>
   <path class="fil7" d="M10157.33 16383.76c-129.68,33.83 -99.35,256.18 56.13,224.86 118.79,-23.92 103.64,-266.53 -56.13,-224.86z"/>
   <path class="fil8" d="M11214.91 15918.76c53.68,2.9 107.7,2.24 109.32,-53.72 1.66,-57.42 -51.65,-57.5 -105.12,-55.09l-4.2 108.81z"/>
   <path class="fil9" d="M10170.87 15694.51c-6.57,-31.07 -46.25,-63.77 -81.78,-65.16 -34.77,-1.36 -72.77,29.04 -77.03,65.3l158.81 -0.14z"/>
   <path class="fil10" d="M11632.79 15855.76c-22.53,17.45 -48.77,117.16 -49.14,129.99l85.55 -2.43c4.35,-26.15 -29.3,-96.14 -36.41,-127.56z"/>
   <path class="fil10" d="M10149.6 15981.45c-2.03,-19.08 -34.71,-117.7 -45.65,-133.16l-43.42 137.75 89.07 -4.59z"/>
  </g>
 </g>
</svg>
