<?xml version="1.0" encoding="UTF-8"?>
<!DOCTYPE svg PUBLIC "-//W3C//DTD SVG 1.1//EN" "http://www.w3.org/Graphics/SVG/1.1/DTD/svg11.dtd">
<!-- Creator: CorelDRAW -->
<svg xmlns="http://www.w3.org/2000/svg" xml:space="preserve" width="210mm" height="297mm" version="1.1" style="shape-rendering:geometricPrecision; text-rendering:geometricPrecision; image-rendering:optimizeQuality; fill-rule:evenodd; clip-rule:evenodd"
viewBox="0 0 21000 29700"
 xmlns:xlink="http://www.w3.org/1999/xlink"
 xmlns:xodm="http://www.corel.com/coreldraw/odm/2003">
 <defs>
  <style type="text/css">
   <![CDATA[
    .fil21 {fill:#010101}
    .fil14 {fill:#151618}
    .fil18 {fill:#161616}
    .fil2 {fill:#1E1518}
    .fil4 {fill:#1F1418}
    .fil13 {fill:#B9120C}
    .fil1 {fill:#C2110B}
    .fil28 {fill:#D4231A}
    .fil27 {fill:#D72823}
    .fil26 {fill:#D72A17}
    .fil23 {fill:#DB231A}
    .fil24 {fill:#DC2414}
    .fil11 {fill:#DC241B}
    .fil17 {fill:#DE1C13}
    .fil15 {fill:#DE1D13}
    .fil19 {fill:#DF1F14}
    .fil12 {fill:#E01C13}
    .fil9 {fill:#E12116}
    .fil8 {fill:#E81F15}
    .fil0 {fill:#E82013}
    .fil25 {fill:#F5F3F2}
    .fil16 {fill:#F5F9FA}
    .fil20 {fill:#F6F6F6}
    .fil22 {fill:#F7F7F7}
    .fil3 {fill:#FAFAFC}
    .fil10 {fill:#FEF5F3}
    .fil5 {fill:#FEFAF6}
    .fil6 {fill:#FFEDEB}
    .fil7 {fill:#FFF9F9}
   ]]>
  </style>
   <clipPath id="id0">
    <path d="M-24510.42 16181.02c1582.91,0 2866.09,1275.55 2866.09,2849 0,1573.48 -1283.18,2849.03 -2866.09,2849.03 -1582.89,0 -2866.07,-1275.55 -2866.07,-2849.03 0,-1573.45 1283.18,-2849 2866.07,-2849z"/>
   </clipPath>
   <clipPath id="id1">
    <path d="M-17918.06 23183.81c1306.92,0 2366.39,1069.28 2366.39,2388.3 0,1319.02 -1059.47,2388.3 -2366.39,2388.3 -1306.92,0 -2366.39,-1069.28 -2366.39,-2388.3 0,-1319.02 1059.47,-2388.3 2366.39,-2388.3z"/>
   </clipPath>
   <clipPath id="id2">
    <path d="M-9079.81 8150.53c1493.99,0 2705.11,1207.4 2705.11,2696.81 0,1489.41 -1211.12,2696.81 -2705.11,2696.81 -1493.99,0 -2705.11,-1207.4 -2705.11,-2696.81 0,-1489.41 1211.12,-2696.81 2705.11,-2696.81z"/>
   </clipPath>
 </defs>
 <g id="Camada_x0020_1">
  <metadata id="CorelCorpID_0Corel-Layer"/>
  <g style="clip-path:url(#id0)">
   <image x="-28349.9" y="15195.43" width="7682.59" height="7682.59" xlink:href="BOTÃO PÂNICO 2_Images\BOTÃO PÂNICO 2_ImgID1.png"/>
  </g>
  <g id="_2302835570480">
   <path class="fil0" d="M-25384.06 13874.41l94.31 -0.65c20.58,89.49 -49.66,313.26 75.83,316.61 111.58,2.97 78.48,-178.73 81.36,-311.81 27.97,-8.47 63.29,-5.09 92.76,-2.51 5.5,62.07 10.1,227.46 -2.52,279.88 -42.76,177.65 -284.58,171.39 -335.69,4.71 -11.69,-38.14 -15,-242.69 -6.05,-286.23zm-547.67 236.13c-53.78,270.88 -462.81,216.1 -415.87,-77.73 17.61,-110.25 119.76,-186.25 249.15,-164.27 103.05,17.51 191.55,116.89 166.72,242zm1058.39 164.87l-96.43 5.21c-2.36,-44.1 3.75,-389.13 16.61,-401.58 13.13,-9.82 74.13,-10.74 94.85,-3 21.45,8.01 33.48,49.63 41.89,70.77 16.06,40.43 49.55,132.17 70.71,156.47 21.98,-27.69 34.27,-74.18 48.98,-112.47 8.49,-22.09 38.07,-104.73 55.35,-112.52 116.19,-33.66 113.15,49.66 115.23,142.22 1.78,79.01 3.29,178.94 -5.56,256.65 -136.91,26 -86.2,-47.59 -91.18,-235.48 -57.35,39.65 -40.86,201.51 -128.55,196.8 -63.54,-3.41 -67.71,-88.25 -105.12,-178.42l-16.54 -28.44 -0.24 243.79zm-909.16 4.53l-87.46 0.44 -2.6 -402.23c22.8,-5.35 83.96,-7.27 105.34,-0.72 48.38,14.81 69.22,175.59 115.2,221.46 36.25,-43.34 61.1,-182.55 99.05,-219.68 33.25,-12.82 87.54,-8.37 104.25,22.21 15.91,29.12 13.09,80.54 13.9,119.09 1.3,61.77 9.28,208.78 -10.72,254.39 -15.9,6.77 -57.01,8.62 -74.95,0.63 -25.73,-11.46 -7.8,-179.92 -11.37,-243.14 -54.76,63.44 -43.72,210.24 -125.96,206.05 -52.57,-2.68 -55.59,-51.81 -70.58,-94.02 -11.23,-31.65 -31.05,-98.25 -49.65,-118.2 -3.1,56.6 10.25,212.38 -4.45,253.72zm-572.83 -67.36c-11.19,28.93 -68.21,55.71 -96.01,64.03 -39.95,11.95 -104.43,11.12 -146.69,-0.2 -220.21,-58.99 -200.95,-437.83 118.01,-407.65 37.07,3.5 105.3,21.71 118.58,49.72 -5.29,13.32 -50.02,46.2 -62.59,50.75 -19.88,7.18 -59.32,-17.1 -98.44,-15.75 -157.05,5.4 -145.88,251.08 12.21,242.19 44.21,-2.49 56.06,-31.89 78.57,-25.2 12.97,3.85 69.66,36.2 76.36,42.11zm1626.12 -530.09l-96.81 3.37 151.99 -409.01c103,-9.52 101.45,32.95 163.36,172.43l98.87 233.39c-116.7,21.73 -117.12,-15.71 -129.97,-45.11l-11.88 -21.08 -144.04 -0.03c-16.66,19.65 -20.04,42.45 -31.52,66.04zm-1596.62 3.43l-96.16 -0.35 152.04 -408.69c98.23,-11.28 99.93,25.95 160.63,167.98 21.57,50.46 91.75,195.59 99.5,240.38 -81.14,3.56 -123.48,13.68 -132.28,-68.36l-155.4 -0.69 -28.33 69.73zm432.32 -3.16l-96.91 3.06 16.35 -407.77 105.96 -2.51c23.62,39.32 35.15,70.57 53.48,115.83 9.21,22.72 15.98,37.82 24.5,58.79 15.89,39.08 11.8,45.32 30.08,54.15l90.76 -226.73c131.23,-16.25 119.73,30.06 122.1,142.73 1.76,83.84 2.34,179.42 -4.14,262.68 -140.28,21.37 -86.01,-35.85 -91.97,-235.33 -20.98,13.17 -40.77,83.28 -51.13,110.48 -15,39.35 -17.76,88.29 -71.6,86.91 -82.06,-2.1 -71.03,-151.14 -122.76,-197.74 -1.18,59.18 8.18,189.18 -4.72,235.45zm949.3 -143.51c12.24,41.87 80.27,100.59 97.23,145.19 -67.37,4.25 -104.09,11.78 -135.91,-32.79 -21.39,-29.98 -46.29,-79.61 -75.93,-94.84l-1.53 124.93 -97.22 3.09 -1.85 -406.76c123.39,-21.39 374.17,-8.92 304.67,182.97 -16.08,44.4 -44.36,61.68 -89.46,78.21zm-1480.22 79.13c-21.48,66.99 -163.13,85.6 -245,63.47 -85.07,-23 -139.32,-92.35 -141.55,-189.35 -2.55,-111.3 48.08,-169.34 122.38,-201.91 70.14,-30.75 225.48,-25.06 258.8,33.69 -5.93,15.41 -48.1,48.35 -64.65,52.34 -8.24,1.98 -211.02,-78.93 -210.11,103.75 0.35,69.9 45.2,119.87 110.39,121.73 50.24,1.43 62.71,-27.59 89.29,-25.54 21.94,1.69 67.32,30.31 80.45,41.82zm1046.71 -259.79l-3.47 71.49 142.9 3.05 -0.12 75.16c-41.27,15.79 -95.36,5.47 -140.32,11.57l-2.77 77.61 164.28 0.98c3.28,78.69 -14.27,87.11 -86.57,87.29 -56.28,0.14 -119.82,2.52 -175.27,-1.5l-0.73 -407.9 271.09 -0.88c1.12,119.31 -54.17,69.99 -169.02,83.13zm-777.03 -123.06l-166.44 0.15c4.47,-38.01 44.29,-69.87 80.74,-68.44 37.24,1.45 78.82,35.72 85.7,68.29zm-641.16 -1720.92c83.42,-2.85 184.64,24.59 263.53,36.41l1275.65 225.38c38.18,7.35 86.81,14.6 125.94,22.96 299.57,64.02 300.86,-21.36 372.06,-29.16 -0.54,43.89 -10.38,108.18 -14.37,158.93 -17.05,217.13 -138.11,215.08 -323.89,179.18l-445.14 -82.83c-41.69,-8.46 -105.25,-28.34 -149.46,-25.3 -11.03,108.16 -18.2,67.29 -59.19,120.92 -17.53,22.94 -7.21,34.83 -34.97,55.16 -19.78,14.48 -50.38,18.02 -69.02,26.48 -5.05,71.51 -0.41,154.47 0.04,227.24 0.7,112.38 2.81,109.18 -66.59,162.91 -137.17,106.19 -190.61,47.92 -372.91,47.38 -87.47,-0.26 -136.56,-10.16 -215.13,12.56 -167.06,48.3 -333.74,-44.63 -332.4,125.16 0.33,41.78 11.36,195.93 -6.62,219.51 -18.62,22.66 -88.81,11.79 -118.47,11.04 -69.43,-1.75 -43.03,-40.44 -42.57,-218.44l1.75 -641.01c9.04,-37.29 123.66,-23.12 158.68,-16.43 33.59,98.09 -34.37,230.7 44.87,273.71 46.47,25.22 234.07,13.83 305.82,13.73 358.15,-0.53 448.23,52.83 419.51,-223.5 -22.99,-10.91 -46.38,-18.04 -59.38,-42.71 -5.56,-10.54 -8.09,-21.65 -14.36,-33.26 -10.3,-19.06 -10.4,-13.83 -23.57,-30.86 -45.39,-58.71 -23.7,-99.66 -28.99,-175.97 -17.19,-9.78 -376.2,-75.72 -420.49,-81.63 -38.14,-5.09 -69.63,-11.93 -96.91,-30.21 -22.68,-15.19 -48.01,-37.94 -63.19,-63.2 -30.21,-50.28 -31.26,-167.39 -10.23,-224.15zm2098.55 513.05c-5.46,-54.18 10.41,-139.11 15.12,-193.66 7.93,-92.02 -14.59,-114.88 52.84,-157.98 33.64,-21.5 237.59,-157.25 259.2,-156.5 9.18,115.53 -39.2,158.08 -10.7,203.49 22.25,35.45 24.57,58.97 -6.53,87.06 -33.12,29.94 -24.72,37.37 -33.43,86.42 -16.12,90.79 -9.7,160.37 -72.78,169.25 -43.14,6.07 -174.6,-23.64 -203.72,-38.08zm-2102.31 -1250.44c61.31,-17.46 335.03,38.12 411.82,54.63 131.89,28.36 264.89,40.93 397.54,69.74 66.32,14.4 138.32,23.64 205.12,35.27l597.17 104.22c262.54,47.14 544.34,87.6 803.53,138.39 119.66,23.45 356.76,27.94 130.86,158.01 -124.47,71.67 -475.14,327.12 -573.59,368.34 -96.85,40.54 -291.65,-9.52 -406.36,-30.04 -525.42,-93.97 -1081.77,-182.28 -1602.09,-283.03 -66.48,-12.87 -146.15,-25.38 -140.78,-89.93 1.93,-23.35 17.74,-72.39 23.11,-97.84l69.79 -276.87c19.8,-90.21 23.65,-133.74 83.88,-150.89zm1074.16 -990.34c-6.35,1.12 -190.38,3.77 -293.85,22.46 -132.68,23.96 -129.82,21.51 -264.97,55.64 -75.76,19.14 -171.14,50.52 -240.22,77.59 -235.49,92.29 -416.98,183.24 -621.86,332.6 -29.74,21.68 -56.16,42.32 -88.59,67.31 -34.88,26.88 -58.03,49.86 -89.79,72.2 -64.62,45.45 -272.38,247.08 -326.25,316.87 -43.23,55.99 -94.29,120.78 -132.28,185.49l-121.25 196.69 -104.12 219.18c-33.36,68.55 -55.69,161.95 -82.82,237.02 -26,71.94 -47.61,166.43 -70.72,246.05 -80.99,278.99 -67.6,902.11 15.39,1158.51 57.71,178.31 94,291.56 166.24,475.08 8.89,22.56 18.17,30.22 27.21,50.03 7.56,16.57 12.77,36.55 23.11,56.64 62.01,120.53 106.92,173.27 148.06,248.77 11.08,20.33 28,32.13 49.06,70.44 19.25,34.99 100.7,131.9 122.97,158.47 26.38,31.47 44.61,57.93 74.06,88.1 98.6,101.02 222.84,221.91 336.11,299.3 31.25,21.34 61.09,42.31 94.72,68.35 113.87,88.19 277.64,170.65 411.96,230.04 379.13,167.66 904.1,248.42 1364.63,180.74 43.18,-6.34 86.1,-15.41 132.8,-21.61 119.53,-15.88 451.62,-124.97 539.43,-174.49l162.35 -78.6c88.01,-43.61 311.14,-187.69 387.71,-247.96 30.06,-23.67 65.78,-49.65 90.43,-71.72 30.51,-27.31 52.69,-48.06 86.85,-75.4 10.84,-8.68 30.86,-28.26 40.22,-37.89 110.43,-113.64 156.02,-155.09 254.91,-303.51l155.01 -240.9c17.1,-27.53 6.83,-32.08 27.65,-55.46 15.7,-17.64 45.29,-78.54 56.83,-106.41 15.32,-37 33.94,-72.78 50.54,-111.47l86.82 -229.34c27.81,-76.69 45.68,-171.7 69.46,-250.25 26.3,-86.9 32.53,-174.37 44.73,-272.17 19.24,-154.29 3.84,-312.8 -4.92,-463.5 -3.25,-55.89 -11.48,-92.02 -15.91,-143.68 -13.03,-151.7 -74.96,-378.41 -126.33,-514.11 -34.8,-91.95 -87.2,-254.63 -139.95,-339.73 -57.18,-92.24 -115.99,-211.87 -178.76,-301.15 -92.7,-131.83 -186.67,-237.2 -298.33,-343.94 -31.55,-30.15 -50.22,-55.42 -80.32,-76.39 -33.42,-23.27 -9.01,-13.3 -40.02,-37.42 -108.63,-84.46 -254.62,-195.71 -372.74,-263.94l-271.93 -137.38c-158.14,-69.04 -302.97,-122.24 -477.14,-158 -125.47,-25.75 -448.88,-79.53 -576.19,-57.15z"/>
   <path class="fil1" d="M-25725.51 9786.88c127.31,-22.38 450.72,31.4 576.19,57.15 174.17,35.76 319,88.96 477.14,158l271.93 137.38c118.12,68.23 264.11,179.48 372.74,263.94 31.01,24.12 6.6,14.15 40.02,37.42 30.1,20.97 48.77,46.24 80.32,76.39 111.66,106.74 205.63,212.11 298.33,343.94 62.77,89.28 121.58,208.91 178.76,301.15 52.75,85.1 105.15,247.78 139.95,339.73 51.37,135.7 113.3,362.41 126.33,514.11 4.43,51.66 12.66,87.79 15.91,143.68 8.76,150.7 24.16,309.21 4.92,463.5 -12.2,97.8 -18.43,185.27 -44.73,272.17 -23.78,78.55 -41.65,173.56 -69.46,250.25l-86.82 229.34c-16.6,38.69 -35.22,74.47 -50.54,111.47 -11.54,27.87 -41.13,88.77 -56.83,106.41 -20.82,23.38 -10.55,27.93 -27.65,55.46l-155.01 240.9c-98.89,148.42 -144.48,189.87 -254.91,303.51 -9.36,9.63 -29.38,29.21 -40.22,37.89 -34.16,27.34 -56.34,48.09 -86.85,75.4 -24.65,22.07 -60.37,48.05 -90.43,71.72 -76.57,60.27 -299.7,204.35 -387.71,247.96l-162.35 78.6c-87.81,49.52 -419.9,158.61 -539.43,174.49 -46.7,6.2 -89.62,15.27 -132.8,21.61 -460.53,67.68 -985.5,-13.08 -1364.63,-180.74 -134.32,-59.39 -298.09,-141.85 -411.96,-230.04 -33.63,-26.04 -63.47,-47.01 -94.72,-68.35 -113.27,-77.39 -237.51,-198.28 -336.11,-299.3 -29.45,-30.17 -47.68,-56.63 -74.06,-88.1 -22.27,-26.57 -103.72,-123.48 -122.97,-158.47 -21.06,-38.31 -37.98,-50.11 -49.06,-70.44 -41.14,-75.5 -86.05,-128.24 -148.06,-248.77 -10.34,-20.09 -15.55,-40.07 -23.11,-56.64 -9.04,-19.81 -18.32,-27.47 -27.21,-50.03 -72.24,-183.52 -108.53,-296.77 -166.24,-475.08 -82.99,-256.4 -96.38,-879.52 -15.39,-1158.51 23.11,-79.62 44.72,-174.11 70.72,-246.05 27.13,-75.07 49.46,-168.47 82.82,-237.02l104.12 -219.18 121.25 -196.69c37.99,-64.71 89.05,-129.5 132.28,-185.49 53.87,-69.79 261.63,-271.42 326.25,-316.87 31.76,-22.34 54.91,-45.32 89.79,-72.2 32.43,-24.99 58.85,-45.63 88.59,-67.31 204.88,-149.36 386.37,-240.31 621.86,-332.6 69.08,-27.07 164.46,-58.45 240.22,-77.59 135.15,-34.13 132.29,-31.68 264.97,-55.64 103.47,-18.69 287.5,-21.34 293.85,-22.46zm47.67 -278.63c1582.91,0 2866.09,1275.55 2866.09,2849 0,1573.48 -1283.18,2849.03 -2866.09,2849.03 -1582.89,0 -2866.07,-1275.55 -2866.07,-2849.03 0,-1573.45 1283.18,-2849 2866.07,-2849z"/>
   <path class="fil2" d="M-26799.67 10777.22c-60.23,17.15 -64.08,60.68 -83.88,150.89l-69.79 276.87c-5.37,25.45 -21.18,74.49 -23.11,97.84 -5.37,64.55 74.3,77.06 140.78,89.93 520.32,100.75 1076.67,189.06 1602.09,283.03 114.71,20.52 309.51,70.58 406.36,30.04 98.45,-41.22 449.12,-296.67 573.59,-368.34 225.9,-130.07 -11.2,-134.56 -130.86,-158.01 -259.19,-50.79 -540.99,-91.25 -803.53,-138.39l-597.17 -104.22c-66.8,-11.63 -138.8,-20.87 -205.12,-35.27 -132.65,-28.81 -265.65,-41.38 -397.54,-69.74 -76.79,-16.51 -350.51,-72.09 -411.82,-54.63z"/>
   <path class="fil2" d="M-25854.73 12429.98c-0.45,-72.77 -5.09,-155.73 -0.04,-227.24 18.64,-8.46 49.24,-12 69.02,-26.48 27.76,-20.33 17.44,-32.22 34.97,-55.16 40.99,-53.63 48.16,-12.76 59.19,-120.92 44.21,-3.04 107.77,16.84 149.46,25.3l445.14 82.83c185.78,35.9 306.84,37.95 323.89,-179.18 3.99,-50.75 13.83,-115.04 14.37,-158.93 -71.2,7.8 -72.49,93.18 -372.06,29.16 -39.13,-8.36 -87.76,-15.61 -125.94,-22.96l-1275.65 -225.38c-78.89,-11.82 -180.11,-39.26 -263.53,-36.41 -21.03,56.76 -19.98,173.87 10.23,224.15 15.18,25.26 40.51,48.01 63.19,63.2 27.28,18.28 58.77,25.12 96.91,30.21 44.29,5.91 403.3,71.85 420.49,81.63 5.29,76.31 -16.4,117.26 28.99,175.97 13.17,17.03 13.27,11.8 23.57,30.86 6.27,11.61 8.8,22.72 14.36,33.26 13,24.67 36.39,31.8 59.38,42.71 28.72,276.33 -61.36,222.97 -419.51,223.5 -71.75,0.1 -259.35,11.49 -305.82,-13.73 -79.24,-43.01 -11.28,-175.62 -44.87,-273.71 -35.02,-6.69 -149.64,-20.86 -158.68,16.43l-1.75 641.01c-0.46,178 -26.86,216.69 42.57,218.44 29.66,0.75 99.85,11.62 118.47,-11.04 17.98,-23.58 6.95,-177.73 6.62,-219.51 -1.34,-169.79 165.34,-76.86 332.4,-125.16 78.57,-22.72 127.66,-12.82 215.13,-12.56 182.3,0.54 235.74,58.81 372.91,-47.38 69.4,-53.73 67.29,-50.53 66.59,-162.91z"/>
   <path class="fil3" d="M-25893.51 13682.76c12.9,-46.27 3.54,-176.27 4.72,-235.45 51.73,46.6 40.7,195.64 122.76,197.74 53.84,1.38 56.6,-47.56 71.6,-86.91 10.36,-27.2 30.15,-97.31 51.13,-110.48 5.96,199.48 -48.31,256.7 91.97,235.33 6.48,-83.26 5.9,-178.84 4.14,-262.68 -2.37,-112.67 9.13,-158.98 -122.1,-142.73l-90.76 226.73c-18.28,-8.83 -14.19,-15.07 -30.08,-54.15 -8.52,-20.97 -15.29,-36.07 -24.5,-58.79 -18.33,-45.26 -29.86,-76.51 -53.48,-115.83l-105.96 2.51 -16.35 407.77 96.91 -3.06z"/>
   <path class="fil4" d="M-24697.36 12027.66c29.12,14.44 160.58,44.15 203.72,38.08 63.08,-8.88 56.66,-78.46 72.78,-169.25 8.71,-49.05 0.31,-56.48 33.43,-86.42 31.1,-28.09 28.78,-51.61 6.53,-87.06 -28.5,-45.41 19.88,-87.96 10.7,-203.49 -21.61,-0.75 -225.56,135 -259.2,156.5 -67.43,43.1 -44.91,65.96 -52.84,157.98 -4.71,54.55 -20.58,139.48 -15.12,193.66z"/>
   <path class="fil5" d="M-24873.1 14031.62l16.54 28.44c37.41,90.17 41.58,175.01 105.12,178.42 87.69,4.71 71.2,-157.15 128.55,-196.8 4.98,187.89 -45.73,261.48 91.18,235.48 8.85,-77.71 7.34,-177.64 5.56,-256.65 -2.08,-92.56 0.96,-175.88 -115.23,-142.22 -17.28,7.79 -46.86,90.43 -55.35,112.52 -14.71,38.29 -27,84.78 -48.98,112.47 -21.16,-24.3 -54.65,-116.04 -70.71,-156.47 -8.41,-21.14 -20.44,-62.76 -41.89,-70.77 -20.72,-7.74 -81.72,-6.82 -94.85,3 -12.86,12.45 -18.97,357.48 -16.61,401.58l96.43 -5.21 0.24 -243.79z"/>
   <path class="fil3" d="M-25782.5 14279.94c14.7,-41.34 1.35,-197.12 4.45,-253.72 18.6,19.95 38.42,86.55 49.65,118.2 14.99,42.21 18.01,91.34 70.58,94.02 82.24,4.19 71.2,-142.61 125.96,-206.05 3.57,63.22 -14.36,231.68 11.37,243.14 17.94,7.99 59.05,6.14 74.95,-0.63 20,-45.61 12.02,-192.62 10.72,-254.39 -0.81,-38.55 2.01,-89.97 -13.9,-119.09 -16.71,-30.58 -71,-35.03 -104.25,-22.21 -37.95,37.13 -62.8,176.34 -99.05,219.68 -45.98,-45.87 -66.82,-206.65 -115.2,-221.46 -21.38,-6.55 -82.54,-4.63 -105.34,0.72l2.6 402.23 87.46 -0.44z"/>
   <path class="fil5" d="M-26168.94 13957.89c167.72,-43.75 182.87,210.8 59.15,235.68 -163.46,32.87 -194.98,-200.25 -59.15,-235.68zm237.21 152.65c24.83,-125.11 -63.67,-224.49 -166.72,-242 -129.39,-21.98 -231.54,54.02 -249.15,164.27 -46.94,293.83 362.09,348.61 415.87,77.73z"/>
   <path class="fil3" d="M-25056.14 13356.51c56.03,-2.52 111.91,-2.44 110.17,57.74 -1.7,58.64 -58.32,59.34 -114.58,56.3l4.41 -114.04zm111.93 182.74c45.1,-16.53 73.38,-33.81 89.46,-78.21 69.5,-191.89 -181.28,-204.36 -304.67,-182.97l1.85 406.76 97.22 -3.09 1.53 -124.93c29.64,15.23 54.54,64.86 75.93,94.84 31.82,44.57 68.54,37.04 135.91,32.79 -16.96,-44.6 -84.99,-103.32 -97.23,-145.19z"/>
   <path class="fil6" d="M-26297.5 13616.19l155.4 0.69c8.8,82.04 51.14,71.92 132.28,68.36 -7.75,-44.79 -77.93,-189.92 -99.5,-240.38 -60.7,-142.03 -62.4,-179.26 -160.63,-167.98l-152.04 408.69 96.16 0.35 28.33 -69.73z"/>
   <path class="fil7" d="M-25384.06 13874.41c-8.95,43.54 -5.64,248.09 6.05,286.23 51.11,166.68 292.93,172.94 335.69,-4.71 12.62,-52.42 8.02,-217.81 2.52,-279.88 -29.47,-2.58 -64.79,-5.96 -92.76,2.51 -2.88,133.08 30.22,314.78 -81.36,311.81 -125.49,-3.35 -55.25,-227.12 -75.83,-316.61l-94.31 0.65z"/>
   <path class="fil5" d="M-24622.59 13404.52c7.45,32.93 42.72,106.28 38.16,133.69l-89.66 2.54c0.39,-13.44 27.89,-117.94 51.5,-136.23zm-106.62 277.97c11.48,-23.59 14.86,-46.39 31.52,-66.04l144.04 0.03 11.88 21.08c12.85,29.4 13.27,66.84 129.97,45.11l-98.87 -233.39c-61.91,-139.48 -60.36,-181.95 -163.36,-172.43l-151.99 409.01 96.81 -3.37z"/>
   <path class="fil7" d="M-25377.72 13358.59c114.85,-13.14 170.14,36.18 169.02,-83.13l-271.09 0.88 0.73 407.9c55.45,4.02 118.99,1.64 175.27,1.5 72.3,-0.18 89.85,-8.6 86.57,-87.29l-164.28 -0.98 2.77 -77.61c44.96,-6.1 99.05,4.22 140.32,-11.57l0.12 -75.16 -142.9 -3.05 3.47 -71.49z"/>
   <path class="fil5" d="M-26424.43 13618.38c-13.13,-11.51 -58.51,-40.13 -80.45,-41.82 -26.58,-2.05 -39.05,26.97 -89.29,25.54 -65.19,-1.86 -110.04,-51.83 -110.39,-121.73 -0.91,-182.68 201.87,-101.77 210.11,-103.75 16.55,-3.99 58.72,-36.93 64.65,-52.34 -33.32,-58.75 -188.66,-64.44 -258.8,-33.69 -74.3,32.57 -124.93,90.61 -122.38,201.91 2.23,97 56.48,166.35 141.55,189.35 81.87,22.13 223.52,3.52 245,-63.47z"/>
   <path class="fil5" d="M-26355.33 14212.58c-6.7,-5.91 -63.39,-38.26 -76.36,-42.11 -22.51,-6.69 -34.36,22.71 -78.57,25.2 -158.09,8.89 -169.26,-236.79 -12.21,-242.19 39.12,-1.35 78.56,22.93 98.44,15.75 12.57,-4.55 57.3,-37.43 62.59,-50.75 -13.28,-28.01 -81.51,-46.22 -118.58,-49.72 -318.96,-30.18 -338.22,348.66 -118.01,407.65 42.26,11.32 106.74,12.15 146.69,0.2 27.8,-8.32 84.82,-35.1 96.01,-64.03z"/>
   <path class="fil8" d="M-26168.94 13957.89c-135.83,35.43 -104.31,268.55 59.15,235.68 123.72,-24.88 108.57,-279.43 -59.15,-235.68z"/>
   <path class="fil9" d="M-25060.55 13470.55c56.26,3.04 112.88,2.34 114.58,-56.3 1.74,-60.18 -54.14,-60.26 -110.17,-57.74l-4.41 114.04z"/>
   <path class="fil10" d="M-26154.75 13235.53c-6.88,-32.57 -48.46,-66.84 -85.7,-68.29 -36.45,-1.43 -76.27,30.43 -80.74,68.44l166.44 -0.15z"/>
   <path class="fil11" d="M-24622.59 13404.52c-23.61,18.29 -51.11,122.79 -51.5,136.23l89.66 -2.54c4.56,-27.41 -30.71,-100.76 -38.16,-133.69z"/>
  </g>
  <g id="_2302835569568">
   <path class="fil12" d="M-18677.58 12899.68c219.23,-35.28 387.24,100.22 410.36,285.46 26.1,209.01 -71.97,375.64 -280.4,407.21 -104.82,15.88 -218.94,-4.56 -289.29,-56.62 -70.18,-51.94 -104.58,-121.4 -121.8,-227.75 -17.25,-106.52 14.27,-212.23 61.53,-280.92 53.37,-77.58 128.5,-112.71 219.6,-127.38zm1159.21 4.4c143.03,-8.09 331.98,-19.79 430.22,73.23 43.73,41.39 60.88,126.38 35.57,197.78 -31.28,88.27 -133.51,110.81 -133.69,110.51 -0.68,-1.12 -2.57,1.13 -3.75,1.89 9.63,19.92 36.64,43.07 53.24,69.86l126.94 236.52 -149.41 -1.29c-30.73,-49.87 -56.81,-110.09 -83.42,-163.24 -54.27,-108.4 -71.18,-105.74 -146.55,-101.38l-1.56 265.94 -130.24 -0.6 2.65 -689.22zm-167.68 496.43c16.78,13.1 62.09,71.69 64.36,96.72 -7.26,41.34 -213.58,153.45 -390.96,72.45 -121.54,-55.5 -193.08,-156.89 -191.1,-321.22 2.97,-247.52 200.82,-386.44 417.85,-348.07 49.82,8.81 148.2,49.78 168.13,89.55 -0.86,31.65 -43.94,87.15 -68.28,96.67 -18.58,-8.18 -105.74,-119.06 -243.23,-57.04 -39.75,17.93 -59.86,38.1 -86.86,79.19 -55.44,84.39 -57.1,299.47 84.38,355.81 36.83,14.67 103.09,17.41 143.47,3.56 41.35,-14.18 71.72,-60.71 102.24,-67.62zm-1346.17 -2034.86c-0.04,-30.5 8.71,-23.92 38.93,-23.85l1209.68 0.01c245.74,0.01 564,-4.88 809.56,1.47l0.36 95.53c1.43,335.77 -127.37,616.9 -303.25,799.28 -166.48,172.65 -411.53,339.53 -760.45,326.58 -314.73,-11.68 -575.39,-193.54 -720.73,-370.75 -179.5,-218.86 -273.57,-470.2 -274.1,-828.27zm-43.54 -532.59c65.47,-13.86 255.69,-4.65 336.11,-4.61l1707.22 0.98c187.72,-0.37 185.14,12.06 185.18,155.75 0.01,56.77 -0.6,114.04 0.47,170.75 1.05,56.03 -10.79,98.1 -63.5,102.43 -100.41,8.25 -237.13,0.39 -341.65,0.66l-1707.22 -0.41c-180.24,-0.24 -185,14.89 -185.67,-156.36 -0.22,-56.47 -1.47,-114.64 -0.21,-170.93 1.33,-58.97 17.62,-87.31 69.27,-98.26zm971.58 -716.94c-38.76,4.35 -80.59,4.69 -118.86,8.31 -72.69,6.88 -148.27,25.76 -219.32,40.76 -192.77,40.72 -389.13,129.45 -559.63,221.77 -63.74,34.51 -179.31,114.3 -237.12,157.27l-141.2 117.57c-31.63,30.64 -71.63,61.09 -100.88,94.02 -12.03,13.55 -18.61,18.58 -34.33,34 -117.07,114.88 -243.58,303.55 -322.93,452.44l-83.64 179.03c-54.69,130.65 -62.55,207.74 -94.2,296.14 -10.54,29.43 -42.62,235.35 -46.14,277.25 -8.54,101.63 -16.34,209.53 -10.25,316.55 10.94,192.05 53.69,358.69 107.47,532.78 25.51,82.55 97.66,250.49 133.33,326.46 8.7,18.53 14.19,20.88 22.66,40.87l22.69 47.81c0.33,0.4 1.35,1.32 1.71,1.74 48.81,56.09 80.53,125.45 125.09,185.65 54.45,73.58 118.51,144.63 178,212.2 9.86,11.19 18.85,20.06 31.68,31.87 57.58,52.98 110.41,104.88 172.38,154.45 148.43,118.72 314.42,215.05 488.66,291.71 272.34,119.83 583.75,162.49 888.35,153.42 151.71,-4.52 306.56,-41.57 444.84,-71.75 35.35,-7.71 62.28,-21.32 95.8,-30.48l94.43 -35.52c90.86,-37.33 181.75,-75.42 266.31,-124.5 85.08,-49.38 163.28,-99 240.16,-154.9l176.88 -145.11c15.46,-12.44 20.95,-21.62 34.16,-34.28 44.53,-42.7 90.06,-82.31 125.75,-132.31 56.32,-78.89 112.38,-145.69 162.5,-228.13 49.32,-81.13 101.35,-162.93 137.41,-252.73 80,-199.27 113.3,-288.24 158.65,-495.3 29.6,-135.12 44.21,-334.35 30.52,-486.69 -3.23,-35.95 -8.15,-71.46 -10.97,-113.56 -2.81,-41.84 -13.97,-73.2 -18.49,-111.8 -14.1,-120.37 -66.45,-298.62 -109.9,-409.47 -22.02,-56.19 -48.08,-134.56 -77.39,-185.11l-3.83 -6.02c-0.56,-0.9 -1.41,-2.04 -1.96,-2.95 -1.72,-2.86 -3.67,-5.95 -5.28,-9.27 -28.61,-59.2 -103.76,-200.27 -142.77,-247.88l-42.64 -59.31c-37.28,-54.27 -71.97,-92.2 -116.06,-142.67 -21.11,-24.16 -38.83,-43.92 -63.68,-68.06 -64.05,-62.23 -136.14,-128.97 -208.45,-181.95l-109.01 -81.11c-37.19,-27.88 -81.65,-48.91 -120.18,-75 -48.75,-33.01 -157.1,-83.94 -214.64,-112.39 -115.02,-56.86 -314.58,-117.94 -445.69,-142.75 -129.77,-24.54 -339.52,-48.82 -479.99,-33.07z"/>
   <path class="fil13" d="M-18104.18 10116.12c140.47,-15.75 350.22,8.53 479.99,33.07 131.11,24.81 330.67,85.89 445.69,142.75 57.54,28.45 165.89,79.38 214.64,112.39 38.53,26.09 82.99,47.12 120.18,75l109.01 81.11c72.31,52.98 144.4,119.72 208.45,181.95 24.85,24.14 42.57,43.9 63.68,68.06 44.09,50.47 78.78,88.4 116.06,142.67l42.64 59.31c39.01,47.61 114.16,188.68 142.77,247.88 1.61,3.32 3.56,6.41 5.28,9.27 0.55,0.91 1.4,2.05 1.96,2.95l3.83 6.02c29.31,50.55 55.37,128.92 77.39,185.11 43.45,110.85 95.8,289.1 109.9,409.47 4.52,38.6 15.68,69.96 18.49,111.8 2.82,42.1 7.74,77.61 10.97,113.56 13.69,152.34 -0.92,351.57 -30.52,486.69 -45.35,207.06 -78.65,296.03 -158.65,495.3 -36.06,89.8 -88.09,171.6 -137.41,252.73 -50.12,82.44 -106.18,149.24 -162.5,228.13 -35.69,50 -81.22,89.61 -125.75,132.31 -13.21,12.66 -18.7,21.84 -34.16,34.28l-176.88 145.11c-76.88,55.9 -155.08,105.52 -240.16,154.9 -84.56,49.08 -175.45,87.17 -266.31,124.5l-94.43 35.52c-33.52,9.16 -60.45,22.77 -95.8,30.48 -138.28,30.18 -293.13,67.23 -444.84,71.75 -304.6,9.07 -616.01,-33.59 -888.35,-153.42 -174.24,-76.66 -340.23,-172.99 -488.66,-291.71 -61.97,-49.57 -114.8,-101.47 -172.38,-154.45 -12.83,-11.81 -21.82,-20.68 -31.68,-31.87 -59.49,-67.57 -123.55,-138.62 -178,-212.2 -44.56,-60.2 -76.28,-129.56 -125.09,-185.65 -0.36,-0.42 -1.38,-1.34 -1.71,-1.74l-22.69 -47.81c-8.47,-19.99 -13.96,-22.34 -22.66,-40.87 -35.67,-75.97 -107.82,-243.91 -133.33,-326.46 -53.78,-174.09 -96.53,-340.73 -107.47,-532.78 -6.09,-107.02 1.71,-214.92 10.25,-316.55 3.52,-41.9 35.6,-247.82 46.14,-277.25 31.65,-88.4 39.51,-165.49 94.2,-296.14l83.64 -179.03c79.35,-148.89 205.86,-337.56 322.93,-452.44 15.72,-15.42 22.3,-20.45 34.33,-34 29.25,-32.93 69.25,-63.38 100.88,-94.02l141.2 -117.57c57.81,-42.97 173.38,-122.76 237.12,-157.27 170.5,-92.32 366.86,-181.05 559.63,-221.77 71.05,-15 146.63,-33.88 219.32,-40.76 38.27,-3.62 80.1,-3.96 118.86,-8.31zm-50.94 -250.33c-94.87,9.84 -172.53,15.16 -262.95,30.81 -81.82,14.17 -162.14,34.1 -237.34,56.21 -427.26,125.63 -809.04,367.65 -1083.2,677.23 -423.94,478.73 -642.13,1053.48 -605.1,1735.53 26.16,481.79 212.29,923.45 481.87,1278.29 249.97,329.02 622.79,609.2 1008.95,757.18 771.67,295.71 1641.1,173.86 2286.7,-325.44 217.83,-168.47 412.23,-379.56 559.94,-615.66 77.35,-123.64 137.09,-244.3 198.26,-392.24 111.02,-268.51 185.08,-673.95 156.67,-1011.47 -30.12,-357.93 -112.21,-643.18 -254.2,-919.55 -265.44,-516.63 -699.89,-902.16 -1235.37,-1116.36 -271.13,-108.46 -678.35,-189.35 -1014.23,-154.53z"/>
   <path class="fil14" d="M-18318.22 12033.9c-29.59,-183.81 116.24,-353.46 265.85,-371.57 192.64,-23.32 336.36,107.38 364.82,270.24 33.74,193.04 -107.43,350.57 -265.96,371.95 -195.04,26.31 -338.15,-105.65 -364.71,-270.62zm-714 -668.25c0.53,358.07 94.6,609.41 274.1,828.27 145.34,177.21 406,359.07 720.73,370.75 348.92,12.95 593.97,-153.93 760.45,-326.58 175.88,-182.38 304.68,-463.51 303.25,-799.28l-0.36 -95.53c-245.56,-6.35 -563.82,-1.46 -809.56,-1.47l-1209.68 -0.01c-30.22,-0.07 -38.97,-6.65 -38.93,23.85z"/>
   <path class="fil14" d="M-19075.76 10833.06c-51.65,10.95 -67.94,39.29 -69.27,98.26 -1.26,56.29 -0.01,114.46 0.21,170.93 0.67,171.25 5.43,156.12 185.67,156.36l1707.22 0.41c104.52,-0.27 241.24,7.59 341.65,-0.66 52.71,-4.33 64.55,-46.4 63.5,-102.43 -1.07,-56.71 -0.46,-113.98 -0.47,-170.75 -0.04,-143.69 2.54,-156.12 -185.18,-155.75l-1707.22 -0.98c-80.42,-0.04 -270.64,-9.25 -336.11,4.61z"/>
   <path class="fil15" d="M-18036.08 11838.57c82.94,-22.16 158.53,43.77 175.51,105.51 26.13,94.99 -38.21,162.46 -103.18,182.78 -184.03,57.55 -264.11,-237.05 -72.33,-288.29zm-282.14 195.33c26.56,164.97 169.67,296.93 364.71,270.62 158.53,-21.38 299.7,-178.91 265.96,-371.95 -28.46,-162.86 -172.18,-293.56 -364.82,-270.24 -149.61,18.11 -295.44,187.76 -265.85,371.57z"/>
   <path class="fil16" d="M-18423.87 13297.24c-20.9,130.2 -104.42,204.09 -245,176.33 -208.71,-41.21 -200.77,-522.58 102.28,-453.41 112.47,25.67 163.91,145.06 142.72,277.08zm-253.71 -397.56c-91.1,14.67 -166.23,49.8 -219.6,127.38 -47.26,68.69 -78.78,174.4 -61.53,280.92 17.22,106.35 51.62,175.81 121.8,227.75 70.35,52.06 184.47,72.5 289.29,56.62 208.43,-31.57 306.5,-198.2 280.4,-407.21 -23.12,-185.24 -191.13,-320.74 -410.36,-285.46z"/>
   <path class="fil16" d="M-17325.1 13220.11l-63.28 0.03 0.64 -209.38c271.46,-24.59 221.29,142.22 179.02,183.24 -28.69,27.85 -70.05,26 -116.38,26.11zm-195.92 373.19l130.24 0.6 1.56 -265.94c75.37,-4.36 92.28,-7.02 146.55,101.38 26.61,53.15 52.69,113.37 83.42,163.24l149.41 1.29 -126.94 -236.52c-16.6,-26.79 -43.61,-49.94 -53.24,-69.86 1.18,-0.76 3.07,-3.01 3.75,-1.89 0.18,0.3 102.41,-22.24 133.69,-110.51 25.31,-71.4 8.16,-156.39 -35.57,-197.78 -98.24,-93.02 -287.19,-81.32 -430.22,-73.23l-2.65 689.22z"/>
   <path class="fil16" d="M-17686.05 13400.51c-30.52,6.91 -60.89,53.44 -102.24,67.62 -40.38,13.85 -106.64,11.11 -143.47,-3.56 -141.48,-56.34 -139.82,-271.42 -84.38,-355.81 27,-41.09 47.11,-61.26 86.86,-79.19 137.49,-62.02 224.65,48.86 243.23,57.04 24.34,-9.52 67.42,-65.02 68.28,-96.67 -19.93,-39.77 -118.31,-80.74 -168.13,-89.55 -217.03,-38.37 -414.88,100.55 -417.85,348.07 -1.98,164.33 69.56,265.72 191.1,321.22 177.38,81 383.7,-31.11 390.96,-72.45 -2.27,-25.03 -47.58,-83.62 -64.36,-96.72z"/>
   <path class="fil17" d="M-18423.87 13297.24c21.19,-132.02 -30.25,-251.41 -142.72,-277.08 -303.05,-69.17 -310.99,412.2 -102.28,453.41 140.58,27.76 224.1,-46.13 245,-176.33z"/>
   <path class="fil18" d="M-18036.08 11838.57c-191.78,51.24 -111.7,345.84 72.33,288.29 64.97,-20.32 129.31,-87.79 103.18,-182.78 -16.98,-61.74 -92.57,-127.67 -175.51,-105.51z"/>
   <path class="fil15" d="M-17325.1 13220.11c46.33,-0.11 87.69,1.74 116.38,-26.11 42.27,-41.02 92.44,-207.83 -179.02,-183.24l-0.64 209.38 63.28 -0.03z"/>
  </g>
  <g style="clip-path:url(#id1)">
   <image x="-21117.05" y="22899.26" width="6343.45" height="6343.45" xlink:href="BOTÃO PÂNICO 2_Images\BOTÃO PÂNICO 2_ImgID2.png"/>
  </g>
  <g style="clip-path:url(#id2)">
   <image x="-12404.97" y="7620.89" width="6821.54" height="6643.3" xlink:href="BOTÃO PÂNICO 2_Images\BOTÃO PÂNICO 2_ImgID3.png"/>
  </g>
  <g id="_2302835553728">
   <path class="fil19" d="M10891.24 18269.34l69.72 -0.43 0.75 247.58 -69.54 4.04 -0.93 -251.19zm363.94 154.74c-31.34,-201.34 224.91,-209.15 241.95,-53.73 21.18,193.09 -218.97,201.33 -241.95,53.73zm-1160.45 95.86l-68.33 0.21 -1.62 -328.42c118.38,-10.46 247.92,-10.35 226.13,129.15 -7.52,48.18 -49.38,75.36 -96.3,81.15 -44.92,5.55 -55.9,-12.26 -59.51,28.13 -2.32,25.94 1.39,60.85 -0.37,89.78zm561.68 0.05l-68.07 0.87 -0.77 -253.01c67.14,-0.25 48.1,-0.11 64.1,29.67 59.49,-47.54 125.6,-45.52 156.08,2.39 22.19,34.87 14.66,168.71 11.78,219.6l-66.62 1.13c-2.9,-54.39 26.67,-205.72 -47.62,-200.49 -71.39,5.03 -45.59,141.01 -48.88,199.84zm541.77 -190.75c-38.9,-3.36 -84.14,-22.36 -102.53,19 -18.55,41.67 -6.44,84.65 15.31,113.95 59.7,14.72 57.78,-1.95 99.84,-10.27l0.85 53.81c-47.51,32.13 -190.44,48.09 -193.95,-102.07 -2.88,-123.46 78.6,-163.46 197.22,-126.45 2.24,23.14 -6.02,35.5 -16.74,52.03zm-878.67 -45.95c51.2,-24.54 147.18,-35.61 183.14,13.55 25.33,34.66 17.46,171.47 14.81,221.58 -60.84,9.36 -34.96,0.06 -66.56,-21.86 -33.13,18.39 -44.78,35.36 -94.27,28.35 -76.52,-10.85 -87.69,-117.82 -21.33,-147.25 37.39,-16.58 65.8,-7.79 105.55,-19.94 1.45,-0.45 3.8,-1.23 5.53,-2.2 -3.06,-71.43 -68.6,-29.15 -112.09,-27.49l-14.78 -44.74zm572.24 -59.74c-11.57,-81.09 62.55,-54.32 69.47,-36.26 16.78,43.78 -26.25,64.6 -69.47,36.26zm-573.88 17.01c9.15,-28.35 17.33,-28.91 35.61,-51.34 25.35,-31.09 29.03,-23.77 97.43,-22.32 16.87,21.66 43.44,44.84 51.4,73.71 -69.51,1.51 -45.2,-10.72 -92.55,-31.76 -43.73,19.8 -21.23,32.27 -91.89,31.71zm1072.76 -596.97l-0.08 -116.03 67.22 -1.68 1.54 348.88c-38.52,3.9 -43.01,5.91 -62.48,-13.73 -0.99,-0.99 -2.61,-3.19 -3.38,-4.04 -0.77,-0.85 -2.01,-2.93 -3.3,-4.14 -34.85,18.75 -67.43,48.6 -117.15,16.25 -70.27,-45.72 -60.9,-185.97 -9.59,-229.9 46.53,-39.85 89.26,-12.08 127.22,4.39zm-1334.69 142.9c-40.41,-197.81 214.56,-221.36 239.11,-68.73 32.54,202.29 -210.18,210.28 -239.11,68.73zm1460.38 -6.86c-29.25,-201.24 225.57,-208.17 241.55,-53.55 21.05,203.52 -220.9,195.63 -241.55,53.55zm-459.34 13.71c-36.79,146.28 -280.5,110.11 -234.67,-87.89 32.53,-140.57 284.15,-108.79 234.67,87.89zm-727.92 -130.26c4.95,-35.49 10.97,-14.02 33.99,-39.34 9.54,-10.51 16.63,-33.6 23.53,-52.03l45.34 -0.9 2.28 53.01 66.67 1.23 1.53 48.01c-52.42,11.79 -69.85,-16.79 -71.84,37.16 -1.24,33.82 -1.01,83.97 7.76,110.23l64.56 2.14 0.53 49.12c-167.13,49.1 -139.73,-72.37 -141.93,-189.54 -35.41,-14.44 -13.34,2.6 -32.42,-19.09zm-361.35 41.14l16.04 14.58c41.25,40.14 29.07,109.52 -12.61,136.3 -49.44,31.75 -138.61,24.8 -206.11,20.47l-1.13 -327.83c88.46,-4.12 228.89,-19.06 235.38,74.26 1.36,19.57 -0.58,33.95 -7.86,48.3l-23.71 33.92zm595.69 -63.86c54.89,-23.52 147.16,-37.98 184.05,14.31 27.13,38.47 16.87,163.83 13.4,221.48 -55.77,2.51 -35.54,0.7 -63.14,-26.84 -81.95,56.72 -149.6,33.91 -158.13,-29.21 -13.51,-99.88 69.04,-95.57 151.74,-102.51 1.3,-73.9 -61.48,-37.29 -111.34,-33.27l-16.58 -43.96zm37.17 -3281.79c45.64,-18.71 120.38,26.95 142.3,51.28 44.81,49.71 116.18,177.91 156.87,247.32l221.57 381.54c24.18,41.37 43.36,86.56 69.47,128.95l149.61 255.36c56.1,106.71 93.88,159.91 144,253.24l220.21 383.49c26.01,39.63 45.14,82.01 71.04,127.52l365.34 642.88c26.47,41.07 51.37,82.4 77.76,128.08 48.45,83.88 218.49,342.81 17.74,392.83 -128.85,32.11 -618.06,17.82 -784.63,17.95l-1611.12 -0.04c-142.75,0 -696.53,15.97 -788.38,-14.43 -37.59,-12.45 -38.13,-6.85 -72.2,-30.46 -139.49,-96.65 -26.54,-207.58 32.23,-338.9 27.56,-61.6 177.44,-313.57 217.41,-385.87l290.9 -510.26c64.9,-131.06 150.24,-262.19 218.65,-392.02 65.07,-123.48 148.87,-255.42 216.73,-379.95l255.08 -450.71c48.3,-84.31 216.81,-395.17 258.7,-440.59 61.71,-66.9 82.38,-47.4 130.72,-67.21zm-134.37 -460.51c-226.99,37.71 -255.75,30.34 -499.84,107.67 -104.32,33.04 -221.86,82.42 -320.41,131.18 -34.71,17.18 -65.74,37.12 -98.62,52.03 -66.68,30.22 -171.33,98.37 -231.9,144.85l-130.11 95.81c-105.69,92.19 -219.91,186.09 -314.19,289.37 -20.39,22.33 -48.14,55.45 -68.22,82.43l-97.55 128.89c-15.55,18.24 -15.92,22.17 -30.45,45.22 -60.91,96.61 -113.9,178.29 -165.32,287.19 -72.15,152.8 -118.2,273.54 -163.21,441.25 -9.55,35.59 -26.45,78.27 -31.47,115.7l-38.82 266.55c-12.81,263.96 -17.91,440.86 38.03,703.04 22.52,105.54 96.55,358.98 144.16,459.92 31.15,66.06 59.09,145.91 94.54,206.62l172.27 280.9c44.79,56.84 81.43,118.76 131.66,169.77 30.65,31.13 44.94,54.26 69.25,81.13 132.01,145.87 288.89,267.2 451.6,378.62 17.37,11.89 23.3,16.44 47.76,28.56 38.3,18.96 62.73,38.12 93.54,56.46 132.54,78.89 274.57,134.56 420.89,183.32 36.43,12.14 78.06,23.42 118.55,33.55 80.2,20.05 158.59,36.1 248.01,50.74 269.37,44.09 577.09,44.61 840.55,-18.01 169.21,-40.22 299.24,-74.62 458.37,-144.74 166.82,-73.49 337.21,-158.08 480.6,-273.14 37.43,-30.03 72.64,-47.88 106.07,-78.51 16.5,-15.11 2.03,-3.77 23.05,-18.29l121.9 -104.27c66.22,-66.52 124.08,-117.56 180.53,-196.94l98.8 -127.1c77.18,-110.14 113.8,-170.19 177.73,-282.4 0.75,-1.32 1.78,-3.04 2.51,-4.37 120.3,-218.07 221.06,-546.91 260.61,-782.04 27.34,-162.49 35.82,-534.75 -4.05,-709.91 -32.18,-141.43 -30.69,-204.93 -85.25,-366.19 -54.96,-162.38 -107.65,-335.13 -198.65,-480.98 -90.88,-145.64 -107.28,-177.83 -208.38,-319.4 -9.09,-12.74 -24.55,-30.04 -34.55,-40.83 -14.02,-15.11 -21.19,-25.71 -34.07,-41.04 -49.88,-59.47 -107.53,-108.97 -147.74,-154.05l-162.07 -140.17c-30.39,-23.33 -54.81,-40.98 -85.46,-63.97l-135.35 -91.92c-15.97,-11.75 -23.71,-17.69 -44.59,-30.22 -182.91,-109.85 -367.86,-199.85 -571.69,-258.98 -8.4,-2.44 -16.88,-5.2 -24.89,-8.9 -28.83,-13.3 -60.34,-11.7 -96.45,-21.58l-183.21 -39.55c-176.83,-23.57 -389.61,-53.96 -574.47,-23.27z"/>
   <path class="fil13" d="M10466.2 13898.06c184.86,-30.69 397.64,-0.3 574.47,23.27l183.21 39.55c36.11,9.88 67.62,8.28 96.45,21.58 8.01,3.7 16.49,6.46 24.89,8.9 203.83,59.13 388.78,149.13 571.69,258.98 20.88,12.53 28.62,18.47 44.59,30.22l135.35 91.92c30.65,22.99 55.07,40.64 85.46,63.97l162.07 140.17c40.21,45.08 97.86,94.58 147.74,154.05 12.88,15.33 20.05,25.93 34.07,41.04 10,10.79 25.46,28.09 34.55,40.83 101.1,141.57 117.5,173.76 208.38,319.4 91,145.85 143.69,318.6 198.65,480.98 54.56,161.26 53.07,224.76 85.25,366.19 39.87,175.16 31.39,547.42 4.05,709.91 -39.55,235.13 -140.31,563.97 -260.61,782.04 -0.73,1.33 -1.76,3.05 -2.51,4.37 -63.93,112.21 -100.55,172.26 -177.73,282.4l-98.8 127.1c-56.45,79.38 -114.31,130.42 -180.53,196.94l-121.9 104.27c-21.02,14.52 -6.55,3.18 -23.05,18.29 -33.43,30.63 -68.64,48.48 -106.07,78.51 -143.39,115.06 -313.78,199.65 -480.6,273.14 -159.13,70.12 -289.16,104.52 -458.37,144.74 -263.46,62.62 -571.18,62.1 -840.55,18.01 -89.42,-14.64 -167.81,-30.69 -248.01,-50.74 -40.49,-10.13 -82.12,-21.41 -118.55,-33.55 -146.32,-48.76 -288.35,-104.43 -420.89,-183.32 -30.81,-18.34 -55.24,-37.5 -93.54,-56.46 -24.46,-12.12 -30.39,-16.67 -47.76,-28.56 -162.71,-111.42 -319.59,-232.75 -451.6,-378.62 -24.31,-26.87 -38.6,-50 -69.25,-81.13 -50.23,-51.01 -86.87,-112.93 -131.66,-169.77l-172.27 -280.9c-35.45,-60.71 -63.39,-140.56 -94.54,-206.62 -47.61,-100.94 -121.64,-354.38 -144.16,-459.92 -55.94,-262.18 -50.84,-439.08 -38.03,-703.04l38.82 -266.55c5.02,-37.43 21.92,-80.11 31.47,-115.7 45.01,-167.71 91.06,-288.45 163.21,-441.25 51.42,-108.9 104.41,-190.58 165.32,-287.19 14.53,-23.05 14.9,-26.98 30.45,-45.22l97.55 -128.89c20.08,-26.98 47.83,-60.1 68.22,-82.43 94.28,-103.28 208.5,-197.18 314.19,-289.37l130.11 -95.81c60.57,-46.48 165.22,-114.63 231.9,-144.85 32.88,-14.91 63.91,-34.85 98.62,-52.03 98.55,-48.76 216.09,-98.14 320.41,-131.18 244.09,-77.33 272.85,-69.96 499.84,-107.67zm224.74 -278.18c1493.99,0 2705.11,1207.4 2705.11,2696.81 0,1489.41 -1211.12,2696.81 -2705.11,2696.81 -1493.99,0 -2705.11,-1207.4 -2705.11,-2696.81 0,-1489.41 1211.12,-2696.81 2705.11,-2696.81z"/>
   <path class="fil20" d="M10458.64 16840.38c-37.16,-234.81 301.16,-284.96 335.48,-61.34 36.66,238.83 -300.67,281.2 -335.48,61.34zm110.21 -1576.84c130.22,-39.17 247.69,60.48 286.35,143.6 36.62,78.73 -6.03,295.68 -19.43,394.22 -17.32,127.41 -36.36,258.11 -51.39,387.43 -13.46,115.87 -16.77,289.36 -104.06,332.52 -62.97,31.13 -128.03,1.59 -157.62,-47.59 -29.39,-48.85 -31.55,-116.51 -39.55,-180.96 -16,-129 -35.26,-255.74 -51.41,-386.52 -16.04,-129.76 -38.69,-259.83 -51.2,-388.91 -13.07,-134.76 90.87,-224.48 188.31,-253.79zm46.59 -665.59c-22.28,20.58 -158.01,267.92 -184.46,316.34 -127.81,233.99 -1246.89,2187.36 -1260.14,2233.09l2903.28 -0.94c-4.39,-27.6 -156.98,-282.75 -180.37,-323.27 -63.86,-110.62 -121.05,-210.12 -181.66,-317.86 -62.6,-111.25 -1075.59,-1886.74 -1096.65,-1907.36z"/>
   <path class="fil21" d="M10615.44 14597.95c21.06,20.62 1034.05,1796.11 1096.65,1907.36 60.61,107.74 117.8,207.24 181.66,317.86 23.39,40.52 175.98,295.67 180.37,323.27l-2903.28 0.94c13.25,-45.73 1132.33,-1999.1 1260.14,-2233.09 26.45,-48.42 162.18,-295.76 184.46,-316.34zm-14.87 -239.38c-48.34,19.81 -69.01,0.31 -130.72,67.21 -41.89,45.42 -210.4,356.28 -258.7,440.59l-255.08 450.71c-67.86,124.53 -151.66,256.47 -216.73,379.95 -68.41,129.83 -153.75,260.96 -218.65,392.02l-290.9 510.26c-39.97,72.3 -189.85,324.27 -217.41,385.87 -58.77,131.32 -171.72,242.25 -32.23,338.9 34.07,23.61 34.61,18.01 72.2,30.46 91.85,30.4 645.63,14.43 788.38,14.43l1611.12 0.04c166.57,-0.13 655.78,14.16 784.63,-17.95 200.75,-50.02 30.71,-308.95 -17.74,-392.83 -26.39,-45.68 -51.29,-87.01 -77.76,-128.08l-365.34 -642.88c-25.9,-45.51 -45.03,-87.89 -71.04,-127.52l-220.21 -383.49c-50.12,-93.33 -87.9,-146.53 -144,-253.24l-149.61 -255.36c-26.11,-42.39 -45.29,-87.58 -69.47,-128.95l-221.57 -381.54c-40.69,-69.41 -112.06,-197.61 -156.87,-247.32 -21.92,-24.33 -96.66,-69.99 -142.3,-51.28z"/>
   <path class="fil21" d="M10568.85 15263.54c-97.44,29.31 -201.38,119.03 -188.31,253.79 12.51,129.08 35.16,259.15 51.2,388.91 16.15,130.78 35.41,257.52 51.41,386.52 8,64.45 10.16,132.11 39.55,180.96 29.59,49.18 94.65,78.72 157.62,47.59 87.29,-43.16 90.6,-216.65 104.06,-332.52 15.03,-129.32 34.07,-260.02 51.39,-387.43 13.4,-98.54 56.05,-315.49 19.43,-394.22 -38.66,-83.12 -156.13,-182.77 -286.35,-143.6z"/>
   <path class="fil21" d="M10458.64 16840.38c34.81,219.86 372.14,177.49 335.48,-61.34 -34.32,-223.62 -372.64,-173.47 -335.48,61.34z"/>
   <path class="fil22" d="M9837.3 17734.89c49.72,-4.54 64.97,-8.15 95.35,20.54 7.65,68.04 -34.65,66.9 -97.84,62.11l2.49 -82.65zm0.37 -129.61c45.15,-3.19 56.31,-3.53 86.87,14.19 5.13,65.46 -27.06,61.7 -90.09,55.92l3.22 -70.11zm153.75 65.02c7.28,-14.35 9.22,-28.73 7.86,-48.3 -6.49,-93.32 -146.92,-78.38 -235.38,-74.26l1.13 327.83c67.5,4.33 156.67,11.28 206.11,-20.47 41.68,-26.78 53.86,-96.16 12.61,-136.3l-16.04 -14.58 23.71 -33.92z"/>
   <path class="fil22" d="M11318.13 17687.37c0,0 7.05,-21.77 47.18,-6.32 43.94,16.93 34.67,119.85 7.2,136.54 -74.89,45.51 -106.1,-86.35 -54.38,-130.22zm72.5 -43.78c-37.96,-16.47 -80.69,-44.24 -127.22,-4.39 -51.31,43.93 -60.68,184.18 9.59,229.9 49.72,32.35 82.3,2.5 117.15,-16.25 1.29,1.21 2.53,3.29 3.3,4.14 0.77,0.85 2.39,3.05 3.38,4.04 19.47,19.64 23.96,17.63 62.48,13.73l-1.54 -348.88 -67.22 1.68 0.08 116.03z"/>
   <path class="fil22" d="M10097.99 18249.64c118.91,-11.89 113.09,102.41 -1.37,96.48l1.37 -96.48zm-3.26 270.3c1.76,-28.93 -1.95,-63.84 0.37,-89.78 3.61,-40.39 14.59,-22.58 59.51,-28.13 46.92,-5.79 88.78,-32.97 96.3,-81.15 21.79,-139.5 -107.75,-139.61 -226.13,-129.15l1.62 328.42 68.33 -0.21z"/>
   <path class="fil22" d="M10367.95 18422.43c31.65,-14.69 36.79,-21.23 79.35,-15.26 5.3,57.44 -29.22,76.33 -80.84,59.05l1.49 -43.79zm-11.32 102.48c49.49,7.01 61.14,-9.96 94.27,-28.35 31.6,21.92 5.72,31.22 66.56,21.86 2.65,-50.11 10.52,-186.92 -14.81,-221.58 -35.96,-49.16 -131.94,-38.09 -183.14,-13.55l14.78 44.74c43.49,-1.66 109.03,-43.94 112.09,27.49 -1.73,0.97 -4.08,1.75 -5.53,2.2 -39.75,12.15 -68.16,3.36 -105.55,19.94 -66.36,29.43 -55.19,136.4 21.33,147.25z"/>
   <path class="fil22" d="M10616.81 17825.66c-18.18,-64.92 18.62,-65.65 75.83,-62.18 -0.29,56.12 -16.38,73.42 -75.83,62.18zm-77.23 -5.56c8.53,63.12 76.18,85.93 158.13,29.21 27.6,27.54 7.37,29.35 63.14,26.84 3.47,-57.65 13.73,-183.01 -13.4,-221.48 -36.89,-52.29 -129.16,-37.83 -184.05,-14.31l16.58 43.96c49.86,-4.02 112.64,-40.63 111.34,33.27 -82.7,6.94 -165.25,2.63 -151.74,102.51z"/>
   <path class="fil22" d="M10155.13 17681.15c87.27,-37.09 86.14,119.08 46.08,138.12 -87.1,41.42 -99.53,-115.41 -46.08,-138.12zm-99.19 105.34c28.93,141.55 271.65,133.56 239.11,-68.73 -24.55,-152.63 -279.52,-129.08 -239.11,68.73z"/>
   <path class="fil22" d="M11404.68 18464.31c-51.31,7.87 -71.21,3.32 -78.02,-46.94 -5.22,-38.43 0.32,-80.03 26.69,-92.02 79.62,-36.2 91.95,84.53 51.33,138.96zm-149.5 -40.23c22.98,147.6 263.13,139.36 241.95,-53.73 -17.04,-155.42 -273.29,-147.61 -241.95,53.73z"/>
   <path class="fil22" d="M10917.48 17682.65c85.04,-42.17 93.24,112.4 45.97,137.08 -80.35,41.94 -101.43,-109.58 -45.97,-137.08zm139.5 110.69c49.48,-196.68 -202.14,-228.46 -234.67,-87.89 -45.83,198 197.88,234.17 234.67,87.89z"/>
   <path class="fil22" d="M11609.63 17683.65c79.09,-52.59 105.57,102.76 57.04,133.16 -83.33,52.21 -103.35,-102.37 -57.04,-133.16zm-93.31 95.98c20.65,142.08 262.6,149.97 241.55,-53.55 -15.98,-154.62 -270.8,-147.69 -241.55,53.55z"/>
   <path class="fil22" d="M10656.41 18519.99c3.29,-58.83 -22.51,-194.81 48.88,-199.84 74.29,-5.23 44.72,146.1 47.62,200.49l66.62 -1.13c2.88,-50.89 10.41,-184.73 -11.78,-219.6 -30.48,-47.91 -96.59,-49.93 -156.08,-2.39 -16,-29.78 3.04,-29.92 -64.1,-29.67l0.77 253.01 68.07 -0.87z"/>
   <path class="fil22" d="M10329.06 17663.08c19.08,21.69 -2.99,4.65 32.42,19.09 2.2,117.17 -25.2,238.64 141.93,189.54l-0.53 -49.12 -64.56 -2.14c-8.77,-26.26 -9,-76.41 -7.76,-110.23 1.99,-53.95 19.42,-25.37 71.84,-37.16l-1.53 -48.01 -66.67 -1.23 -2.28 -53.01 -45.34 0.9c-6.9,18.43 -13.99,41.52 -23.53,52.03 -23.02,25.32 -29.04,3.85 -33.99,39.34z"/>
   <path class="fil22" d="M11198.18 18329.24c10.72,-16.53 18.98,-28.89 16.74,-52.03 -118.62,-37.01 -200.1,2.99 -197.22,126.45 3.51,150.16 146.44,134.2 193.95,102.07l-0.85 -53.81c-42.06,8.32 -40.14,24.99 -99.84,10.27 -21.75,-29.3 -33.86,-72.28 -15.31,-113.95 18.39,-41.36 63.63,-22.36 102.53,-19z"/>
   <polygon class="fil22" points="10892.17,18520.53 10961.71,18516.49 10960.96,18268.91 10891.24,18269.34 "/>
   <path class="fil23" d="M11609.63 17683.65c-46.31,30.79 -26.29,185.37 57.04,133.16 48.53,-30.4 22.05,-185.75 -57.04,-133.16z"/>
   <path class="fil23" d="M10917.48 17682.65c-55.46,27.5 -34.38,179.02 45.97,137.08 47.27,-24.68 39.07,-179.25 -45.97,-137.08z"/>
   <path class="fil23" d="M10155.13 17681.15c-53.45,22.71 -41.02,179.54 46.08,138.12 40.06,-19.04 41.19,-175.21 -46.08,-138.12z"/>
   <path class="fil24" d="M11404.68 18464.31c40.62,-54.43 28.29,-175.16 -51.33,-138.96 -26.37,11.99 -31.91,53.59 -26.69,92.02 6.81,50.26 26.71,54.81 78.02,46.94z"/>
   <path class="fil23" d="M11318.13 17687.37c-51.72,43.87 -20.51,175.73 54.38,130.22 27.47,-16.69 36.74,-119.61 -7.2,-136.54 -40.13,-15.45 -47.18,6.32 -47.18,6.32z"/>
   <path class="fil25" d="M10317.87 18240.56c70.66,0.56 48.16,-11.91 91.89,-31.71 47.35,21.04 23.04,33.27 92.55,31.76 -7.96,-28.87 -34.53,-52.05 -51.4,-73.71 -68.4,-1.45 -72.08,-8.77 -97.43,22.32 -18.28,22.43 -26.46,22.99 -35.61,51.34z"/>
   <path class="fil26" d="M9834.81 17817.54c63.19,4.79 105.49,5.93 97.84,-62.11 -30.38,-28.69 -45.63,-25.08 -95.35,-20.54l-2.49 82.65z"/>
   <path class="fil23" d="M10096.62 18346.12c114.46,5.93 120.28,-108.37 1.37,-96.48l-1.37 96.48z"/>
   <path class="fil27" d="M9834.45 17675.39c63.03,5.78 95.22,9.54 90.09,-55.92 -30.56,-17.72 -41.72,-17.38 -86.87,-14.19l-3.22 70.11z"/>
   <path class="fil28" d="M10616.81 17825.66c59.45,11.24 75.54,-6.06 75.83,-62.18 -57.21,-3.47 -94.01,-2.74 -75.83,62.18z"/>
   <path class="fil27" d="M10367.95 18422.43l-1.49 43.79c51.62,17.28 86.14,-1.61 80.84,-59.05 -42.56,-5.97 -47.7,0.57 -79.35,15.26z"/>
   <path class="fil25" d="M10891.75 18223.55c43.22,28.34 86.25,7.52 69.47,-36.26 -6.92,-18.06 -81.04,-44.83 -69.47,36.26z"/>
  </g>
 </g>
</svg>
