<?xml version="1.0" encoding="UTF-8"?>
<!DOCTYPE svg PUBLIC "-//W3C//DTD SVG 1.1//EN" "http://www.w3.org/Graphics/SVG/1.1/DTD/svg11.dtd">
<!-- Creator: CorelDRAW -->
<svg xmlns="http://www.w3.org/2000/svg" xml:space="preserve" width="210mm" height="297mm" version="1.1" style="shape-rendering:geometricPrecision; text-rendering:geometricPrecision; image-rendering:optimizeQuality; fill-rule:evenodd; clip-rule:evenodd"
viewBox="0 0 21000 29700"
 xmlns:xlink="http://www.w3.org/1999/xlink"
 xmlns:xodm="http://www.corel.com/coreldraw/odm/2003">
 <defs>
  <style type="text/css">
   <![CDATA[
    .fil51 {fill:#010101}
    .fil14 {fill:#151618}
    .fil18 {fill:#161616}
    .fil21 {fill:#181616}
    .fil22 {fill:#1B1513}
    .fil2 {fill:#1E1518}
    .fil4 {fill:#1F1418}
    .fil28 {fill:#36120A}
    .fil30 {fill:#48120A}
    .fil35 {fill:#511613}
    .fil26 {fill:#57130A}
    .fil34 {fill:#66150B}
    .fil47 {fill:#670D07}
    .fil41 {fill:#76170B}
    .fil43 {fill:#861C15}
    .fil45 {fill:#9A2824}
    .fil31 {fill:#A7261C}
    .fil29 {fill:#B8281C}
    .fil13 {fill:#B9120C}
    .fil20 {fill:#BE130C}
    .fil1 {fill:#C2110B}
    .fil33 {fill:#C42C23}
    .fil42 {fill:#CE6559}
    .fil58 {fill:#D4231A}
    .fil40 {fill:#D5827A}
    .fil57 {fill:#D72823}
    .fil56 {fill:#D72A17}
    .fil38 {fill:#D87975}
    .fil27 {fill:#DA2115}
    .fil39 {fill:#DA2917}
    .fil53 {fill:#DB231A}
    .fil37 {fill:#DC2413}
    .fil54 {fill:#DC2414}
    .fil11 {fill:#DC241B}
    .fil36 {fill:#DD2215}
    .fil17 {fill:#DE1C13}
    .fil15 {fill:#DE1D13}
    .fil32 {fill:#DE2112}
    .fil49 {fill:#DF1F14}
    .fil12 {fill:#E01C13}
    .fil25 {fill:#E02212}
    .fil9 {fill:#E12116}
    .fil19 {fill:#E22112}
    .fil48 {fill:#E7857B}
    .fil8 {fill:#E81F15}
    .fil0 {fill:#E82013}
    .fil46 {fill:#EA948E}
    .fil44 {fill:#F1A59B}
    .fil55 {fill:#F5F3F2}
    .fil16 {fill:#F5F9FA}
    .fil50 {fill:#F6F6F6}
    .fil52 {fill:#F7F7F7}
    .fil24 {fill:#FAF9F9}
    .fil3 {fill:#FAFAFC}
    .fil23 {fill:#FDFAFA}
    .fil10 {fill:#FEF5F3}
    .fil5 {fill:#FEFAF6}
    .fil6 {fill:#FFEDEB}
    .fil7 {fill:#FFF9F9}
   ]]>
  </style>
   <clipPath id="id0">
    <path d="M-24510.42 16181.02c1582.91,0 2866.09,1275.55 2866.09,2849 0,1573.48 -1283.18,2849.03 -2866.09,2849.03 -1582.89,0 -2866.07,-1275.55 -2866.07,-2849.03 0,-1573.45 1283.18,-2849 2866.07,-2849z"/>
   </clipPath>
   <clipPath id="id1">
    <path d="M-12025.45 17746.78c1401.58,0 2537.79,1146.73 2537.79,2561.28 0,1414.55 -1136.21,2561.28 -2537.79,2561.28 -1401.57,0 -2537.78,-1146.73 -2537.78,-2561.28 0,-1414.55 1136.21,-2561.28 2537.78,-2561.28z"/>
   </clipPath>
   <clipPath id="id2">
    <path d="M-9079.81 8150.53c1493.99,0 2705.11,1207.4 2705.11,2696.81 0,1489.41 -1211.12,2696.81 -2705.11,2696.81 -1493.99,0 -2705.11,-1207.4 -2705.11,-2696.81 0,-1489.41 1211.12,-2696.81 2705.11,-2696.81z"/>
   </clipPath>
 </defs>
 <g id="Camada_x0020_1">
  <metadata id="CorelCorpID_0Corel-Layer"/>
  <g style="clip-path:url(#id0)">
   <image x="-28349.9" y="15195.43" width="7682.59" height="7682.59" xlink:href="REC. FACIAL 2_Images\REC. FACIAL 2_ImgID1.png"/>
  </g>
  <g id="_2302829668944">
   <path class="fil0" d="M-25384.06 13874.41l94.31 -0.65c20.58,89.49 -49.66,313.26 75.83,316.61 111.58,2.97 78.48,-178.73 81.36,-311.81 27.97,-8.47 63.29,-5.09 92.76,-2.51 5.5,62.07 10.1,227.46 -2.52,279.88 -42.76,177.65 -284.58,171.39 -335.69,4.71 -11.69,-38.14 -15,-242.69 -6.05,-286.23zm-547.67 236.13c-53.78,270.88 -462.81,216.1 -415.87,-77.73 17.61,-110.25 119.76,-186.25 249.15,-164.27 103.05,17.51 191.55,116.89 166.72,242zm1058.39 164.87l-96.43 5.21c-2.36,-44.1 3.75,-389.13 16.61,-401.58 13.13,-9.82 74.13,-10.74 94.85,-3 21.45,8.01 33.48,49.63 41.89,70.77 16.06,40.43 49.55,132.17 70.71,156.47 21.98,-27.69 34.27,-74.18 48.98,-112.47 8.49,-22.09 38.07,-104.73 55.35,-112.52 116.19,-33.66 113.15,49.66 115.23,142.22 1.78,79.01 3.29,178.94 -5.56,256.65 -136.91,26 -86.2,-47.59 -91.18,-235.48 -57.35,39.65 -40.86,201.51 -128.55,196.8 -63.54,-3.41 -67.71,-88.25 -105.12,-178.42l-16.54 -28.44 -0.24 243.79zm-909.16 4.53l-87.46 0.44 -2.6 -402.23c22.8,-5.35 83.96,-7.27 105.34,-0.72 48.38,14.81 69.22,175.59 115.2,221.46 36.25,-43.34 61.1,-182.55 99.05,-219.68 33.25,-12.82 87.54,-8.37 104.25,22.21 15.91,29.12 13.09,80.54 13.9,119.09 1.3,61.77 9.28,208.78 -10.72,254.39 -15.9,6.77 -57.01,8.62 -74.95,0.63 -25.73,-11.46 -7.8,-179.92 -11.37,-243.14 -54.76,63.44 -43.72,210.24 -125.96,206.05 -52.57,-2.68 -55.59,-51.81 -70.58,-94.02 -11.23,-31.65 -31.05,-98.25 -49.65,-118.2 -3.1,56.6 10.25,212.38 -4.45,253.72zm-572.83 -67.36c-11.19,28.93 -68.21,55.71 -96.01,64.03 -39.95,11.95 -104.43,11.12 -146.69,-0.2 -220.21,-58.99 -200.95,-437.83 118.01,-407.65 37.07,3.5 105.3,21.71 118.58,49.72 -5.29,13.32 -50.02,46.2 -62.59,50.75 -19.88,7.18 -59.32,-17.1 -98.44,-15.75 -157.05,5.4 -145.88,251.08 12.21,242.19 44.21,-2.49 56.06,-31.89 78.57,-25.2 12.97,3.85 69.66,36.2 76.36,42.11zm1626.12 -530.09l-96.81 3.37 151.99 -409.01c103,-9.52 101.45,32.95 163.36,172.43l98.87 233.39c-116.7,21.73 -117.12,-15.71 -129.97,-45.11l-11.88 -21.08 -144.04 -0.03c-16.66,19.65 -20.04,42.45 -31.52,66.04zm-1596.62 3.43l-96.16 -0.35 152.04 -408.69c98.23,-11.28 99.93,25.95 160.63,167.98 21.57,50.46 91.75,195.59 99.5,240.38 -81.14,3.56 -123.48,13.68 -132.28,-68.36l-155.4 -0.69 -28.33 69.73zm432.32 -3.16l-96.91 3.06 16.35 -407.77 105.96 -2.51c23.62,39.32 35.15,70.57 53.48,115.83 9.21,22.72 15.98,37.82 24.5,58.79 15.89,39.08 11.8,45.32 30.08,54.15l90.76 -226.73c131.23,-16.25 119.73,30.06 122.1,142.73 1.76,83.84 2.34,179.42 -4.14,262.68 -140.28,21.37 -86.01,-35.85 -91.97,-235.33 -20.98,13.17 -40.77,83.28 -51.13,110.48 -15,39.35 -17.76,88.29 -71.6,86.91 -82.06,-2.1 -71.03,-151.14 -122.76,-197.74 -1.18,59.18 8.18,189.18 -4.72,235.45zm949.3 -143.51c12.24,41.87 80.27,100.59 97.23,145.19 -67.37,4.25 -104.09,11.78 -135.91,-32.79 -21.39,-29.98 -46.29,-79.61 -75.93,-94.84l-1.53 124.93 -97.22 3.09 -1.85 -406.76c123.39,-21.39 374.17,-8.92 304.67,182.97 -16.08,44.4 -44.36,61.68 -89.46,78.21zm-1480.22 79.13c-21.48,66.99 -163.13,85.6 -245,63.47 -85.07,-23 -139.32,-92.35 -141.55,-189.35 -2.55,-111.3 48.08,-169.34 122.38,-201.91 70.14,-30.75 225.48,-25.06 258.8,33.69 -5.93,15.41 -48.1,48.35 -64.65,52.34 -8.24,1.98 -211.02,-78.93 -210.11,103.75 0.35,69.9 45.2,119.87 110.39,121.73 50.24,1.43 62.71,-27.59 89.29,-25.54 21.94,1.69 67.32,30.31 80.45,41.82zm1046.71 -259.79l-3.47 71.49 142.9 3.05 -0.12 75.16c-41.27,15.79 -95.36,5.47 -140.32,11.57l-2.77 77.61 164.28 0.98c3.28,78.69 -14.27,87.11 -86.57,87.29 -56.28,0.14 -119.82,2.52 -175.27,-1.5l-0.73 -407.9 271.09 -0.88c1.12,119.31 -54.17,69.99 -169.02,83.13zm-777.03 -123.06l-166.44 0.15c4.47,-38.01 44.29,-69.87 80.74,-68.44 37.24,1.45 78.82,35.72 85.7,68.29zm-641.16 -1720.92c83.42,-2.85 184.64,24.59 263.53,36.41l1275.65 225.38c38.18,7.35 86.81,14.6 125.94,22.96 299.57,64.02 300.86,-21.36 372.06,-29.16 -0.54,43.89 -10.38,108.18 -14.37,158.93 -17.05,217.13 -138.11,215.08 -323.89,179.18l-445.14 -82.83c-41.69,-8.46 -105.25,-28.34 -149.46,-25.3 -11.03,108.16 -18.2,67.29 -59.19,120.92 -17.53,22.94 -7.21,34.83 -34.97,55.16 -19.78,14.48 -50.38,18.02 -69.02,26.48 -5.05,71.51 -0.41,154.47 0.04,227.24 0.7,112.38 2.81,109.18 -66.59,162.91 -137.17,106.19 -190.61,47.92 -372.91,47.38 -87.47,-0.26 -136.56,-10.16 -215.13,12.56 -167.06,48.3 -333.74,-44.63 -332.4,125.16 0.33,41.78 11.36,195.93 -6.62,219.51 -18.62,22.66 -88.81,11.79 -118.47,11.04 -69.43,-1.75 -43.03,-40.44 -42.57,-218.44l1.75 -641.01c9.04,-37.29 123.66,-23.12 158.68,-16.43 33.59,98.09 -34.37,230.7 44.87,273.71 46.47,25.22 234.07,13.83 305.82,13.73 358.15,-0.53 448.23,52.83 419.51,-223.5 -22.99,-10.91 -46.38,-18.04 -59.38,-42.71 -5.56,-10.54 -8.09,-21.65 -14.36,-33.26 -10.3,-19.06 -10.4,-13.83 -23.57,-30.86 -45.39,-58.71 -23.7,-99.66 -28.99,-175.97 -17.19,-9.78 -376.2,-75.72 -420.49,-81.63 -38.14,-5.09 -69.63,-11.93 -96.91,-30.21 -22.68,-15.19 -48.01,-37.94 -63.19,-63.2 -30.21,-50.28 -31.26,-167.39 -10.23,-224.15zm2098.55 513.05c-5.46,-54.18 10.41,-139.11 15.12,-193.66 7.93,-92.02 -14.59,-114.88 52.84,-157.98 33.64,-21.5 237.59,-157.25 259.2,-156.5 9.18,115.53 -39.2,158.08 -10.7,203.49 22.25,35.45 24.57,58.97 -6.53,87.06 -33.12,29.94 -24.72,37.37 -33.43,86.42 -16.12,90.79 -9.7,160.37 -72.78,169.25 -43.14,6.07 -174.6,-23.64 -203.72,-38.08zm-2102.31 -1250.44c61.31,-17.46 335.03,38.12 411.82,54.63 131.89,28.36 264.89,40.93 397.54,69.74 66.32,14.4 138.32,23.64 205.12,35.27l597.17 104.22c262.54,47.14 544.34,87.6 803.53,138.39 119.66,23.45 356.76,27.94 130.86,158.01 -124.47,71.67 -475.14,327.12 -573.59,368.34 -96.85,40.54 -291.65,-9.52 -406.36,-30.04 -525.42,-93.97 -1081.77,-182.28 -1602.09,-283.03 -66.48,-12.87 -146.15,-25.38 -140.78,-89.93 1.93,-23.35 17.74,-72.39 23.11,-97.84l69.79 -276.87c19.8,-90.21 23.65,-133.74 83.88,-150.89zm1074.16 -990.34c-6.35,1.12 -190.38,3.77 -293.85,22.46 -132.68,23.96 -129.82,21.51 -264.97,55.64 -75.76,19.14 -171.14,50.52 -240.22,77.59 -235.49,92.29 -416.98,183.24 -621.86,332.6 -29.74,21.68 -56.16,42.32 -88.59,67.31 -34.88,26.88 -58.03,49.86 -89.79,72.2 -64.62,45.45 -272.38,247.08 -326.25,316.87 -43.23,55.99 -94.29,120.78 -132.28,185.49l-121.25 196.69 -104.12 219.18c-33.36,68.55 -55.69,161.95 -82.82,237.02 -26,71.94 -47.61,166.43 -70.72,246.05 -80.99,278.99 -67.6,902.11 15.39,1158.51 57.71,178.31 94,291.56 166.24,475.08 8.89,22.56 18.17,30.22 27.21,50.03 7.56,16.57 12.77,36.55 23.11,56.64 62.01,120.53 106.92,173.27 148.06,248.77 11.08,20.33 28,32.13 49.06,70.44 19.25,34.99 100.7,131.9 122.97,158.47 26.38,31.47 44.61,57.93 74.06,88.1 98.6,101.02 222.84,221.91 336.11,299.3 31.25,21.34 61.09,42.31 94.72,68.35 113.87,88.19 277.64,170.65 411.96,230.04 379.13,167.66 904.1,248.42 1364.63,180.74 43.18,-6.34 86.1,-15.41 132.8,-21.61 119.53,-15.88 451.62,-124.97 539.43,-174.49l162.35 -78.6c88.01,-43.61 311.14,-187.69 387.71,-247.96 30.06,-23.67 65.78,-49.65 90.43,-71.72 30.51,-27.31 52.69,-48.06 86.85,-75.4 10.84,-8.68 30.86,-28.26 40.22,-37.89 110.43,-113.64 156.02,-155.09 254.91,-303.51l155.01 -240.9c17.1,-27.53 6.83,-32.08 27.65,-55.46 15.7,-17.64 45.29,-78.54 56.83,-106.41 15.32,-37 33.94,-72.78 50.54,-111.47l86.82 -229.34c27.81,-76.69 45.68,-171.7 69.46,-250.25 26.3,-86.9 32.53,-174.37 44.73,-272.17 19.24,-154.29 3.84,-312.8 -4.92,-463.5 -3.25,-55.89 -11.48,-92.02 -15.91,-143.68 -13.03,-151.7 -74.96,-378.41 -126.33,-514.11 -34.8,-91.95 -87.2,-254.63 -139.95,-339.73 -57.18,-92.24 -115.99,-211.87 -178.76,-301.15 -92.7,-131.83 -186.67,-237.2 -298.33,-343.94 -31.55,-30.15 -50.22,-55.42 -80.32,-76.39 -33.42,-23.27 -9.01,-13.3 -40.02,-37.42 -108.63,-84.46 -254.62,-195.71 -372.74,-263.94l-271.93 -137.38c-158.14,-69.04 -302.97,-122.24 -477.14,-158 -125.47,-25.75 -448.88,-79.53 -576.19,-57.15z"/>
   <path class="fil1" d="M-25725.51 9786.88c127.31,-22.38 450.72,31.4 576.19,57.15 174.17,35.76 319,88.96 477.14,158l271.93 137.38c118.12,68.23 264.11,179.48 372.74,263.94 31.01,24.12 6.6,14.15 40.02,37.42 30.1,20.97 48.77,46.24 80.32,76.39 111.66,106.74 205.63,212.11 298.33,343.94 62.77,89.28 121.58,208.91 178.76,301.15 52.75,85.1 105.15,247.78 139.95,339.73 51.37,135.7 113.3,362.41 126.33,514.11 4.43,51.66 12.66,87.79 15.91,143.68 8.76,150.7 24.16,309.21 4.92,463.5 -12.2,97.8 -18.43,185.27 -44.73,272.17 -23.78,78.55 -41.65,173.56 -69.46,250.25l-86.82 229.34c-16.6,38.69 -35.22,74.47 -50.54,111.47 -11.54,27.87 -41.13,88.77 -56.83,106.41 -20.82,23.38 -10.55,27.93 -27.65,55.46l-155.01 240.9c-98.89,148.42 -144.48,189.87 -254.91,303.51 -9.36,9.63 -29.38,29.21 -40.22,37.89 -34.16,27.34 -56.34,48.09 -86.85,75.4 -24.65,22.07 -60.37,48.05 -90.43,71.72 -76.57,60.27 -299.7,204.35 -387.71,247.96l-162.35 78.6c-87.81,49.52 -419.9,158.61 -539.43,174.49 -46.7,6.2 -89.62,15.27 -132.8,21.61 -460.53,67.68 -985.5,-13.08 -1364.63,-180.74 -134.32,-59.39 -298.09,-141.85 -411.96,-230.04 -33.63,-26.04 -63.47,-47.01 -94.72,-68.35 -113.27,-77.39 -237.51,-198.28 -336.11,-299.3 -29.45,-30.17 -47.68,-56.63 -74.06,-88.1 -22.27,-26.57 -103.72,-123.48 -122.97,-158.47 -21.06,-38.31 -37.98,-50.11 -49.06,-70.44 -41.14,-75.5 -86.05,-128.24 -148.06,-248.77 -10.34,-20.09 -15.55,-40.07 -23.11,-56.64 -9.04,-19.81 -18.32,-27.47 -27.21,-50.03 -72.24,-183.52 -108.53,-296.77 -166.24,-475.08 -82.99,-256.4 -96.38,-879.52 -15.39,-1158.51 23.11,-79.62 44.72,-174.11 70.72,-246.05 27.13,-75.07 49.46,-168.47 82.82,-237.02l104.12 -219.18 121.25 -196.69c37.99,-64.71 89.05,-129.5 132.28,-185.49 53.87,-69.79 261.63,-271.42 326.25,-316.87 31.76,-22.34 54.91,-45.32 89.79,-72.2 32.43,-24.99 58.85,-45.63 88.59,-67.31 204.88,-149.36 386.37,-240.31 621.86,-332.6 69.08,-27.07 164.46,-58.45 240.22,-77.59 135.15,-34.13 132.29,-31.68 264.97,-55.64 103.47,-18.69 287.5,-21.34 293.85,-22.46zm47.67 -278.63c1582.91,0 2866.09,1275.55 2866.09,2849 0,1573.48 -1283.18,2849.03 -2866.09,2849.03 -1582.89,0 -2866.07,-1275.55 -2866.07,-2849.03 0,-1573.45 1283.18,-2849 2866.07,-2849z"/>
   <path class="fil2" d="M-26799.67 10777.22c-60.23,17.15 -64.08,60.68 -83.88,150.89l-69.79 276.87c-5.37,25.45 -21.18,74.49 -23.11,97.84 -5.37,64.55 74.3,77.06 140.78,89.93 520.32,100.75 1076.67,189.06 1602.09,283.03 114.71,20.52 309.51,70.58 406.36,30.04 98.45,-41.22 449.12,-296.67 573.59,-368.34 225.9,-130.07 -11.2,-134.56 -130.86,-158.01 -259.19,-50.79 -540.99,-91.25 -803.53,-138.39l-597.17 -104.22c-66.8,-11.63 -138.8,-20.87 -205.12,-35.27 -132.65,-28.81 -265.65,-41.38 -397.54,-69.74 -76.79,-16.51 -350.51,-72.09 -411.82,-54.63z"/>
   <path class="fil2" d="M-25854.73 12429.98c-0.45,-72.77 -5.09,-155.73 -0.04,-227.24 18.64,-8.46 49.24,-12 69.02,-26.48 27.76,-20.33 17.44,-32.22 34.97,-55.16 40.99,-53.63 48.16,-12.76 59.19,-120.92 44.21,-3.04 107.77,16.84 149.46,25.3l445.14 82.83c185.78,35.9 306.84,37.95 323.89,-179.18 3.99,-50.75 13.83,-115.04 14.37,-158.93 -71.2,7.8 -72.49,93.18 -372.06,29.16 -39.13,-8.36 -87.76,-15.61 -125.94,-22.96l-1275.65 -225.38c-78.89,-11.82 -180.11,-39.26 -263.53,-36.41 -21.03,56.76 -19.98,173.87 10.23,224.15 15.18,25.26 40.51,48.01 63.19,63.2 27.28,18.28 58.77,25.12 96.91,30.21 44.29,5.91 403.3,71.85 420.49,81.63 5.29,76.31 -16.4,117.26 28.99,175.97 13.17,17.03 13.27,11.8 23.57,30.86 6.27,11.61 8.8,22.72 14.36,33.26 13,24.67 36.39,31.8 59.38,42.71 28.72,276.33 -61.36,222.97 -419.51,223.5 -71.75,0.1 -259.35,11.49 -305.82,-13.73 -79.24,-43.01 -11.28,-175.62 -44.87,-273.71 -35.02,-6.69 -149.64,-20.86 -158.68,16.43l-1.75 641.01c-0.46,178 -26.86,216.69 42.57,218.44 29.66,0.75 99.85,11.62 118.47,-11.04 17.98,-23.58 6.95,-177.73 6.62,-219.51 -1.34,-169.79 165.34,-76.86 332.4,-125.16 78.57,-22.72 127.66,-12.82 215.13,-12.56 182.3,0.54 235.74,58.81 372.91,-47.38 69.4,-53.73 67.29,-50.53 66.59,-162.91z"/>
   <path class="fil3" d="M-25893.51 13682.76c12.9,-46.27 3.54,-176.27 4.72,-235.45 51.73,46.6 40.7,195.64 122.76,197.74 53.84,1.38 56.6,-47.56 71.6,-86.91 10.36,-27.2 30.15,-97.31 51.13,-110.48 5.96,199.48 -48.31,256.7 91.97,235.33 6.48,-83.26 5.9,-178.84 4.14,-262.68 -2.37,-112.67 9.13,-158.98 -122.1,-142.73l-90.76 226.73c-18.28,-8.83 -14.19,-15.07 -30.08,-54.15 -8.52,-20.97 -15.29,-36.07 -24.5,-58.79 -18.33,-45.26 -29.86,-76.51 -53.48,-115.83l-105.96 2.51 -16.35 407.77 96.91 -3.06z"/>
   <path class="fil4" d="M-24697.36 12027.66c29.12,14.44 160.58,44.15 203.72,38.08 63.08,-8.88 56.66,-78.46 72.78,-169.25 8.71,-49.05 0.31,-56.48 33.43,-86.42 31.1,-28.09 28.78,-51.61 6.53,-87.06 -28.5,-45.41 19.88,-87.96 10.7,-203.49 -21.61,-0.75 -225.56,135 -259.2,156.5 -67.43,43.1 -44.91,65.96 -52.84,157.98 -4.71,54.55 -20.58,139.48 -15.12,193.66z"/>
   <path class="fil5" d="M-24873.1 14031.62l16.54 28.44c37.41,90.17 41.58,175.01 105.12,178.42 87.69,4.71 71.2,-157.15 128.55,-196.8 4.98,187.89 -45.73,261.48 91.18,235.48 8.85,-77.71 7.34,-177.64 5.56,-256.65 -2.08,-92.56 0.96,-175.88 -115.23,-142.22 -17.28,7.79 -46.86,90.43 -55.35,112.52 -14.71,38.29 -27,84.78 -48.98,112.47 -21.16,-24.3 -54.65,-116.04 -70.71,-156.47 -8.41,-21.14 -20.44,-62.76 -41.89,-70.77 -20.72,-7.74 -81.72,-6.82 -94.85,3 -12.86,12.45 -18.97,357.48 -16.61,401.58l96.43 -5.21 0.24 -243.79z"/>
   <path class="fil3" d="M-25782.5 14279.94c14.7,-41.34 1.35,-197.12 4.45,-253.72 18.6,19.95 38.42,86.55 49.65,118.2 14.99,42.21 18.01,91.34 70.58,94.02 82.24,4.19 71.2,-142.61 125.96,-206.05 3.57,63.22 -14.36,231.68 11.37,243.14 17.94,7.99 59.05,6.14 74.95,-0.63 20,-45.61 12.02,-192.62 10.72,-254.39 -0.81,-38.55 2.01,-89.97 -13.9,-119.09 -16.71,-30.58 -71,-35.03 -104.25,-22.21 -37.95,37.13 -62.8,176.34 -99.05,219.68 -45.98,-45.87 -66.82,-206.65 -115.2,-221.46 -21.38,-6.55 -82.54,-4.63 -105.34,0.72l2.6 402.23 87.46 -0.44z"/>
   <path class="fil5" d="M-26168.94 13957.89c167.72,-43.75 182.87,210.8 59.15,235.68 -163.46,32.87 -194.98,-200.25 -59.15,-235.68zm237.21 152.65c24.83,-125.11 -63.67,-224.49 -166.72,-242 -129.39,-21.98 -231.54,54.02 -249.15,164.27 -46.94,293.83 362.09,348.61 415.87,77.73z"/>
   <path class="fil3" d="M-25056.14 13356.51c56.03,-2.52 111.91,-2.44 110.17,57.74 -1.7,58.64 -58.32,59.34 -114.58,56.3l4.41 -114.04zm111.93 182.74c45.1,-16.53 73.38,-33.81 89.46,-78.21 69.5,-191.89 -181.28,-204.36 -304.67,-182.97l1.85 406.76 97.22 -3.09 1.53 -124.93c29.64,15.23 54.54,64.86 75.93,94.84 31.82,44.57 68.54,37.04 135.91,32.79 -16.96,-44.6 -84.99,-103.32 -97.23,-145.19z"/>
   <path class="fil6" d="M-26297.5 13616.19l155.4 0.69c8.8,82.04 51.14,71.92 132.28,68.36 -7.75,-44.79 -77.93,-189.92 -99.5,-240.38 -60.7,-142.03 -62.4,-179.26 -160.63,-167.98l-152.04 408.69 96.16 0.35 28.33 -69.73z"/>
   <path class="fil7" d="M-25384.06 13874.41c-8.95,43.54 -5.64,248.09 6.05,286.23 51.11,166.68 292.93,172.94 335.69,-4.71 12.62,-52.42 8.02,-217.81 2.52,-279.88 -29.47,-2.58 -64.79,-5.96 -92.76,2.51 -2.88,133.08 30.22,314.78 -81.36,311.81 -125.49,-3.35 -55.25,-227.12 -75.83,-316.61l-94.31 0.65z"/>
   <path class="fil5" d="M-24622.59 13404.52c7.45,32.93 42.72,106.28 38.16,133.69l-89.66 2.54c0.39,-13.44 27.89,-117.94 51.5,-136.23zm-106.62 277.97c11.48,-23.59 14.86,-46.39 31.52,-66.04l144.04 0.03 11.88 21.08c12.85,29.4 13.27,66.84 129.97,45.11l-98.87 -233.39c-61.91,-139.48 -60.36,-181.95 -163.36,-172.43l-151.99 409.01 96.81 -3.37z"/>
   <path class="fil7" d="M-25377.72 13358.59c114.85,-13.14 170.14,36.18 169.02,-83.13l-271.09 0.88 0.73 407.9c55.45,4.02 118.99,1.64 175.27,1.5 72.3,-0.18 89.85,-8.6 86.57,-87.29l-164.28 -0.98 2.77 -77.61c44.96,-6.1 99.05,4.22 140.32,-11.57l0.12 -75.16 -142.9 -3.05 3.47 -71.49z"/>
   <path class="fil5" d="M-26424.43 13618.38c-13.13,-11.51 -58.51,-40.13 -80.45,-41.82 -26.58,-2.05 -39.05,26.97 -89.29,25.54 -65.19,-1.86 -110.04,-51.83 -110.39,-121.73 -0.91,-182.68 201.87,-101.77 210.11,-103.75 16.55,-3.99 58.72,-36.93 64.65,-52.34 -33.32,-58.75 -188.66,-64.44 -258.8,-33.69 -74.3,32.57 -124.93,90.61 -122.38,201.91 2.23,97 56.48,166.35 141.55,189.35 81.87,22.13 223.52,3.52 245,-63.47z"/>
   <path class="fil5" d="M-26355.33 14212.58c-6.7,-5.91 -63.39,-38.26 -76.36,-42.11 -22.51,-6.69 -34.36,22.71 -78.57,25.2 -158.09,8.89 -169.26,-236.79 -12.21,-242.19 39.12,-1.35 78.56,22.93 98.44,15.75 12.57,-4.55 57.3,-37.43 62.59,-50.75 -13.28,-28.01 -81.51,-46.22 -118.58,-49.72 -318.96,-30.18 -338.22,348.66 -118.01,407.65 42.26,11.32 106.74,12.15 146.69,0.2 27.8,-8.32 84.82,-35.1 96.01,-64.03z"/>
   <path class="fil8" d="M-26168.94 13957.89c-135.83,35.43 -104.31,268.55 59.15,235.68 123.72,-24.88 108.57,-279.43 -59.15,-235.68z"/>
   <path class="fil9" d="M-25060.55 13470.55c56.26,3.04 112.88,2.34 114.58,-56.3 1.74,-60.18 -54.14,-60.26 -110.17,-57.74l-4.41 114.04z"/>
   <path class="fil10" d="M-26154.75 13235.53c-6.88,-32.57 -48.46,-66.84 -85.7,-68.29 -36.45,-1.43 -76.27,30.43 -80.74,68.44l166.44 -0.15z"/>
   <path class="fil11" d="M-24622.59 13404.52c-23.61,18.29 -51.11,122.79 -51.5,136.23l89.66 -2.54c4.56,-27.41 -30.71,-100.76 -38.16,-133.69z"/>
  </g>
  <g id="_2302829668272">
   <path class="fil12" d="M-18677.58 12899.68c219.23,-35.28 387.24,100.22 410.36,285.46 26.1,209.01 -71.97,375.64 -280.4,407.21 -104.82,15.88 -218.94,-4.56 -289.29,-56.62 -70.18,-51.94 -104.58,-121.4 -121.8,-227.75 -17.25,-106.52 14.27,-212.23 61.53,-280.92 53.37,-77.58 128.5,-112.71 219.6,-127.38zm1159.21 4.4c143.03,-8.09 331.98,-19.79 430.22,73.23 43.73,41.39 60.88,126.38 35.57,197.78 -31.28,88.27 -133.51,110.81 -133.69,110.51 -0.68,-1.12 -2.57,1.13 -3.75,1.89 9.63,19.92 36.64,43.07 53.24,69.86l126.94 236.52 -149.41 -1.29c-30.73,-49.87 -56.81,-110.09 -83.42,-163.24 -54.27,-108.4 -71.18,-105.74 -146.55,-101.38l-1.56 265.94 -130.24 -0.6 2.65 -689.22zm-167.68 496.43c16.78,13.1 62.09,71.69 64.36,96.72 -7.26,41.34 -213.58,153.45 -390.96,72.45 -121.54,-55.5 -193.08,-156.89 -191.1,-321.22 2.97,-247.52 200.82,-386.44 417.85,-348.07 49.82,8.81 148.2,49.78 168.13,89.55 -0.86,31.65 -43.94,87.15 -68.28,96.67 -18.58,-8.18 -105.74,-119.06 -243.23,-57.04 -39.75,17.93 -59.86,38.1 -86.86,79.19 -55.44,84.39 -57.1,299.47 84.38,355.81 36.83,14.67 103.09,17.41 143.47,3.56 41.35,-14.18 71.72,-60.71 102.24,-67.62zm-1346.17 -2034.86c-0.04,-30.5 8.71,-23.92 38.93,-23.85l1209.68 0.01c245.74,0.01 564,-4.88 809.56,1.47l0.36 95.53c1.43,335.77 -127.37,616.9 -303.25,799.28 -166.48,172.65 -411.53,339.53 -760.45,326.58 -314.73,-11.68 -575.39,-193.54 -720.73,-370.75 -179.5,-218.86 -273.57,-470.2 -274.1,-828.27zm-43.54 -532.59c65.47,-13.86 255.69,-4.65 336.11,-4.61l1707.22 0.98c187.72,-0.37 185.14,12.06 185.18,155.75 0.01,56.77 -0.6,114.04 0.47,170.75 1.05,56.03 -10.79,98.1 -63.5,102.43 -100.41,8.25 -237.13,0.39 -341.65,0.66l-1707.22 -0.41c-180.24,-0.24 -185,14.89 -185.67,-156.36 -0.22,-56.47 -1.47,-114.64 -0.21,-170.93 1.33,-58.97 17.62,-87.31 69.27,-98.26zm971.58 -716.94c-38.76,4.35 -80.59,4.69 -118.86,8.31 -72.69,6.88 -148.27,25.76 -219.32,40.76 -192.77,40.72 -389.13,129.45 -559.63,221.77 -63.74,34.51 -179.31,114.3 -237.12,157.27l-141.2 117.57c-31.63,30.64 -71.63,61.09 -100.88,94.02 -12.03,13.55 -18.61,18.58 -34.33,34 -117.07,114.88 -243.58,303.55 -322.93,452.44l-83.64 179.03c-54.69,130.65 -62.55,207.74 -94.2,296.14 -10.54,29.43 -42.62,235.35 -46.14,277.25 -8.54,101.63 -16.34,209.53 -10.25,316.55 10.94,192.05 53.69,358.69 107.47,532.78 25.51,82.55 97.66,250.49 133.33,326.46 8.7,18.53 14.19,20.88 22.66,40.87l22.69 47.81c0.33,0.4 1.35,1.32 1.71,1.74 48.81,56.09 80.53,125.45 125.09,185.65 54.45,73.58 118.51,144.63 178,212.2 9.86,11.19 18.85,20.06 31.68,31.87 57.58,52.98 110.41,104.88 172.38,154.45 148.43,118.72 314.42,215.05 488.66,291.71 272.34,119.83 583.75,162.49 888.35,153.42 151.71,-4.52 306.56,-41.57 444.84,-71.75 35.35,-7.71 62.28,-21.32 95.8,-30.48l94.43 -35.52c90.86,-37.33 181.75,-75.42 266.31,-124.5 85.08,-49.38 163.28,-99 240.16,-154.9l176.88 -145.11c15.46,-12.44 20.95,-21.62 34.16,-34.28 44.53,-42.7 90.06,-82.31 125.75,-132.31 56.32,-78.89 112.38,-145.69 162.5,-228.13 49.32,-81.13 101.35,-162.93 137.41,-252.73 80,-199.27 113.3,-288.24 158.65,-495.3 29.6,-135.12 44.21,-334.35 30.52,-486.69 -3.23,-35.95 -8.15,-71.46 -10.97,-113.56 -2.81,-41.84 -13.97,-73.2 -18.49,-111.8 -14.1,-120.37 -66.45,-298.62 -109.9,-409.47 -22.02,-56.19 -48.08,-134.56 -77.39,-185.11l-3.83 -6.02c-0.56,-0.9 -1.41,-2.04 -1.96,-2.95 -1.72,-2.86 -3.67,-5.95 -5.28,-9.27 -28.61,-59.2 -103.76,-200.27 -142.77,-247.88l-42.64 -59.31c-37.28,-54.27 -71.97,-92.2 -116.06,-142.67 -21.11,-24.16 -38.83,-43.92 -63.68,-68.06 -64.05,-62.23 -136.14,-128.97 -208.45,-181.95l-109.01 -81.11c-37.19,-27.88 -81.65,-48.91 -120.18,-75 -48.75,-33.01 -157.1,-83.94 -214.64,-112.39 -115.02,-56.86 -314.58,-117.94 -445.69,-142.75 -129.77,-24.54 -339.52,-48.82 -479.99,-33.07z"/>
   <path class="fil13" d="M-18104.18 10116.12c140.47,-15.75 350.22,8.53 479.99,33.07 131.11,24.81 330.67,85.89 445.69,142.75 57.54,28.45 165.89,79.38 214.64,112.39 38.53,26.09 82.99,47.12 120.18,75l109.01 81.11c72.31,52.98 144.4,119.72 208.45,181.95 24.85,24.14 42.57,43.9 63.68,68.06 44.09,50.47 78.78,88.4 116.06,142.67l42.64 59.31c39.01,47.61 114.16,188.68 142.77,247.88 1.61,3.32 3.56,6.41 5.28,9.27 0.55,0.91 1.4,2.05 1.96,2.95l3.83 6.02c29.31,50.55 55.37,128.92 77.39,185.11 43.45,110.85 95.8,289.1 109.9,409.47 4.52,38.6 15.68,69.96 18.49,111.8 2.82,42.1 7.74,77.61 10.97,113.56 13.69,152.34 -0.92,351.57 -30.52,486.69 -45.35,207.06 -78.65,296.03 -158.65,495.3 -36.06,89.8 -88.09,171.6 -137.41,252.73 -50.12,82.44 -106.18,149.24 -162.5,228.13 -35.69,50 -81.22,89.61 -125.75,132.31 -13.21,12.66 -18.7,21.84 -34.16,34.28l-176.88 145.11c-76.88,55.9 -155.08,105.52 -240.16,154.9 -84.56,49.08 -175.45,87.17 -266.31,124.5l-94.43 35.52c-33.52,9.16 -60.45,22.77 -95.8,30.48 -138.28,30.18 -293.13,67.23 -444.84,71.75 -304.6,9.07 -616.01,-33.59 -888.35,-153.42 -174.24,-76.66 -340.23,-172.99 -488.66,-291.71 -61.97,-49.57 -114.8,-101.47 -172.38,-154.45 -12.83,-11.81 -21.82,-20.68 -31.68,-31.87 -59.49,-67.57 -123.55,-138.62 -178,-212.2 -44.56,-60.2 -76.28,-129.56 -125.09,-185.65 -0.36,-0.42 -1.38,-1.34 -1.71,-1.74l-22.69 -47.81c-8.47,-19.99 -13.96,-22.34 -22.66,-40.87 -35.67,-75.97 -107.82,-243.91 -133.33,-326.46 -53.78,-174.09 -96.53,-340.73 -107.47,-532.78 -6.09,-107.02 1.71,-214.92 10.25,-316.55 3.52,-41.9 35.6,-247.82 46.14,-277.25 31.65,-88.4 39.51,-165.49 94.2,-296.14l83.64 -179.03c79.35,-148.89 205.86,-337.56 322.93,-452.44 15.72,-15.42 22.3,-20.45 34.33,-34 29.25,-32.93 69.25,-63.38 100.88,-94.02l141.2 -117.57c57.81,-42.97 173.38,-122.76 237.12,-157.27 170.5,-92.32 366.86,-181.05 559.63,-221.77 71.05,-15 146.63,-33.88 219.32,-40.76 38.27,-3.62 80.1,-3.96 118.86,-8.31zm-50.94 -250.33c-94.87,9.84 -172.53,15.16 -262.95,30.81 -81.82,14.17 -162.14,34.1 -237.34,56.21 -427.26,125.63 -809.04,367.65 -1083.2,677.23 -423.94,478.73 -642.13,1053.48 -605.1,1735.53 26.16,481.79 212.29,923.45 481.87,1278.29 249.97,329.02 622.79,609.2 1008.95,757.18 771.67,295.71 1641.1,173.86 2286.7,-325.44 217.83,-168.47 412.23,-379.56 559.94,-615.66 77.35,-123.64 137.09,-244.3 198.26,-392.24 111.02,-268.51 185.08,-673.95 156.67,-1011.47 -30.12,-357.93 -112.21,-643.18 -254.2,-919.55 -265.44,-516.63 -699.89,-902.16 -1235.37,-1116.36 -271.13,-108.46 -678.35,-189.35 -1014.23,-154.53z"/>
   <path class="fil14" d="M-18318.22 12033.9c-29.59,-183.81 116.24,-353.46 265.85,-371.57 192.64,-23.32 336.36,107.38 364.82,270.24 33.74,193.04 -107.43,350.57 -265.96,371.95 -195.04,26.31 -338.15,-105.65 -364.71,-270.62zm-714 -668.25c0.53,358.07 94.6,609.41 274.1,828.27 145.34,177.21 406,359.07 720.73,370.75 348.92,12.95 593.97,-153.93 760.45,-326.58 175.88,-182.38 304.68,-463.51 303.25,-799.28l-0.36 -95.53c-245.56,-6.35 -563.82,-1.46 -809.56,-1.47l-1209.68 -0.01c-30.22,-0.07 -38.97,-6.65 -38.93,23.85z"/>
   <path class="fil14" d="M-19075.76 10833.06c-51.65,10.95 -67.94,39.29 -69.27,98.26 -1.26,56.29 -0.01,114.46 0.21,170.93 0.67,171.25 5.43,156.12 185.67,156.36l1707.22 0.41c104.52,-0.27 241.24,7.59 341.65,-0.66 52.71,-4.33 64.55,-46.4 63.5,-102.43 -1.07,-56.71 -0.46,-113.98 -0.47,-170.75 -0.04,-143.69 2.54,-156.12 -185.18,-155.75l-1707.22 -0.98c-80.42,-0.04 -270.64,-9.25 -336.11,4.61z"/>
   <path class="fil15" d="M-18036.08 11838.57c82.94,-22.16 158.53,43.77 175.51,105.51 26.13,94.99 -38.21,162.46 -103.18,182.78 -184.03,57.55 -264.11,-237.05 -72.33,-288.29zm-282.14 195.33c26.56,164.97 169.67,296.93 364.71,270.62 158.53,-21.38 299.7,-178.91 265.96,-371.95 -28.46,-162.86 -172.18,-293.56 -364.82,-270.24 -149.61,18.11 -295.44,187.76 -265.85,371.57z"/>
   <path class="fil16" d="M-18423.87 13297.24c-20.9,130.2 -104.42,204.09 -245,176.33 -208.71,-41.21 -200.77,-522.58 102.28,-453.41 112.47,25.67 163.91,145.06 142.72,277.08zm-253.71 -397.56c-91.1,14.67 -166.23,49.8 -219.6,127.38 -47.26,68.69 -78.78,174.4 -61.53,280.92 17.22,106.35 51.62,175.81 121.8,227.75 70.35,52.06 184.47,72.5 289.29,56.62 208.43,-31.57 306.5,-198.2 280.4,-407.21 -23.12,-185.24 -191.13,-320.74 -410.36,-285.46z"/>
   <path class="fil16" d="M-17325.1 13220.11l-63.28 0.03 0.64 -209.38c271.46,-24.59 221.29,142.22 179.02,183.24 -28.69,27.85 -70.05,26 -116.38,26.11zm-195.92 373.19l130.24 0.6 1.56 -265.94c75.37,-4.36 92.28,-7.02 146.55,101.38 26.61,53.15 52.69,113.37 83.42,163.24l149.41 1.29 -126.94 -236.52c-16.6,-26.79 -43.61,-49.94 -53.24,-69.86 1.18,-0.76 3.07,-3.01 3.75,-1.89 0.18,0.3 102.41,-22.24 133.69,-110.51 25.31,-71.4 8.16,-156.39 -35.57,-197.78 -98.24,-93.02 -287.19,-81.32 -430.22,-73.23l-2.65 689.22z"/>
   <path class="fil16" d="M-17686.05 13400.51c-30.52,6.91 -60.89,53.44 -102.24,67.62 -40.38,13.85 -106.64,11.11 -143.47,-3.56 -141.48,-56.34 -139.82,-271.42 -84.38,-355.81 27,-41.09 47.11,-61.26 86.86,-79.19 137.49,-62.02 224.65,48.86 243.23,57.04 24.34,-9.52 67.42,-65.02 68.28,-96.67 -19.93,-39.77 -118.31,-80.74 -168.13,-89.55 -217.03,-38.37 -414.88,100.55 -417.85,348.07 -1.98,164.33 69.56,265.72 191.1,321.22 177.38,81 383.7,-31.11 390.96,-72.45 -2.27,-25.03 -47.58,-83.62 -64.36,-96.72z"/>
   <path class="fil17" d="M-18423.87 13297.24c21.19,-132.02 -30.25,-251.41 -142.72,-277.08 -303.05,-69.17 -310.99,412.2 -102.28,453.41 140.58,27.76 224.1,-46.13 245,-176.33z"/>
   <path class="fil18" d="M-18036.08 11838.57c-191.78,51.24 -111.7,345.84 72.33,288.29 64.97,-20.32 129.31,-87.79 103.18,-182.78 -16.98,-61.74 -92.57,-127.67 -175.51,-105.51z"/>
   <path class="fil15" d="M-17325.1 13220.11c46.33,-0.11 87.69,1.74 116.38,-26.11 42.27,-41.02 92.44,-207.83 -179.02,-183.24l-0.64 209.38 63.28 -0.03z"/>
  </g>
  <g style="clip-path:url(#id1)">
   <image x="-15456.13" y="17441.62" width="6802.89" height="6802.89" xlink:href="REC. FACIAL 2_Images\REC. FACIAL 2_ImgID2.png"/>
  </g>
  <g id="_2302829706192">
   <path class="fil19" d="M10210.61 19606.32l55.53 -0.13c16.54,10.34 7,216.08 4.9,227.5l-65.56 2.61 -3.54 -202.65c0.48,-26.46 -4.16,-15.24 8.67,-27.33zm374.27 -88.79l60.23 -0.48 1.66 315.49 -61.65 -0.06 -0.24 -314.95zm-125.12 149.96l-18.02 -19.14 -82.37 11.28 -17.29 -35.27c35.48,-34 132.31,-33 163.71,4.92 26.28,31.74 16.43,155.69 15.97,201.78l-44.25 1.93 -11.23 -28.54c-51.03,41.42 -134.26,51.75 -145.61,-22.35 -13.89,-90.69 72.87,-86.08 137.25,-91.13l1.84 -23.48zm-313.23 -5.04c-27.57,-3.36 -45.32,-13.33 -74.45,-6.5 -37.47,25.17 -38.79,99.25 -4.31,124.39 40.97,14.1 52.34,-0.88 87.3,-9.21l0.27 49.46c-84.86,49.93 -176.06,3.79 -175.15,-101.63 0.89,-101.96 95.58,-149.29 177.66,-103.37l-11.32 46.86zm-396.16 -38.53c35.97,-32.08 133.2,-31.73 164.34,6.53 25.34,31.13 15.78,157.74 14.56,202.09 -39.69,0.84 -41.16,9.66 -51.85,-25.84 -35.09,16.31 -41.18,33.45 -88.26,29.6 -33.15,-2.71 -54.87,-19.53 -59.77,-53.55 -14.2,-98.52 73.83,-81.36 137.24,-93.02 4.68,-70.56 -62.57,-31.08 -98.82,-30.14l-17.44 -35.67zm518.27 -56.9c-15.89,23.62 -82.61,11.24 -60.91,-35.53 17.06,-36.79 87.63,-4.16 60.91,35.53zm-545.39 -16.29l-8.02 19.7c-20.06,0.69 -6.47,2.32 -18.58,-6.04 -33.94,0.45 -43.66,-0.92 -41.41,37.4l47.35 4.35c13.78,8.56 8.82,30.61 4.72,46.9l-50.75 2.34 0.72 178.4 -67.22 1.89 -3.03 -174.67c-16.57,-7.72 -14.87,-0.09 -32.43,-11.34 -4.79,-22.39 -6,-23.09 11.21,-34.21l24.37 -9.37c6.42,-55.6 3.59,-99.57 103.83,-90.07 36.53,3.46 30.6,5.73 29.24,34.72zm676.96 -525.78l60.22 0.49 2.26 224.37 -62.58 2.58 0.1 -227.44zm1221.82 140.09c-28.93,-178.33 197.72,-188.14 216.61,-51.17 24.33,176.36 -194.53,187.35 -216.61,51.17zm-2283.48 11.85c-34.57,134.36 -252.87,96.25 -211.19,-77.73 31.33,-130.82 255.73,-95.36 211.19,77.73zm1777.46 17.52l1.08 45.86c-124.3,51.25 -239.47,-25.77 -187.34,-156.13 38.76,-96.91 218.57,-93.41 198.09,69.89l-142.87 1.02c5,79.77 82.59,52.81 131.04,39.36zm-993.72 -0.12l1.21 46.49c-123.9,48.9 -238.83,-25.1 -187.64,-156.15 37.79,-96.75 219.31,-94.79 198.54,69.82l-142.83 0.67c4.19,80.04 83.07,51.66 130.72,39.17zm-1261.82 1.56l0.06 46.16c-182.79,52.19 -220.51,-69.05 -188.18,-156.02 34.6,-93.05 213.3,-104.46 200.2,67.15l-143.58 1.94c5.49,82.4 81.23,49.82 131.5,40.77zm2726.64 5.59c4.55,36.47 9.12,48.71 -28.97,53.41 -123.87,15.28 -97.09,-78.04 -98.51,-173.93 -1.25,-1.06 -3.67,-3.35 -4.47,-2.08l-12.56 -5.91c-12,-7.38 -4.4,7.37 -10.54,-10.17 -6.25,-17.84 4.3,-20.48 15.85,-28.76 26.82,-19.21 22.07,-24.98 33.74,-56.09l34.8 -0.41c11.25,19.61 3.86,22.43 8.21,47.47l61.55 1.4 -0.18 44.33 -62.07 2.1c-3.13,25.59 -2.7,72.99 -1.78,99.3 1.63,47.18 27.58,34.81 64.93,29.34zm-344.3 47.39l-61.91 3.51 -0.39 -225.89 43.48 -0.32 14.09 26.77c38.5,-38.91 110.66,-47.48 140.19,1.56 18.43,30.59 12.08,155.77 10.91,196.98l-62.1 -0.42c0.01,-43.5 23.29,-182.09 -38.45,-179.83 -68.56,2.51 -45,130.69 -45.82,177.64zm-655.3 2.78l-60.98 0.29c-0.09,-33.61 -5.11,-215.32 2.66,-232.63l61.41 25.26 -0.47 -15.21 134.98 5.32 -0.64 16.21c170.22,-109.96 148.66,90.63 146.7,198.78l-61.97 2.6c-1.09,-41.64 22.59,-180.76 -36.68,-180.73 -62.67,0.02 -42.01,136.17 -43.34,178.75l-61.92 1.37c-0.97,-41 22.72,-183.12 -37.67,-179.73 -60.36,3.39 -40.14,135.67 -42.08,179.72zm-857.58 -0.83l-62.03 0.58 0.03 -315.51 59.19 -0.54 2.56 111.04c178.81,-85.13 149.08,79.93 148.24,203.62l-61.92 2.04c-1.99,-49.99 20.54,-183.94 -42.19,-180.24 -62.94,3.73 -42.92,130.9 -43.88,179.01zm-272.76 -1.74l-61.84 3.23 -0.75 -225.49c61.59,-3.37 43.83,7.11 60.45,23.03 40.78,-36.67 112.21,-43.52 139.36,8.21 17.06,32.51 10.99,151.71 9.54,193.32l-62.26 -0.32c-0.14,-45.22 23.51,-181.88 -39.23,-179.6 -64.82,2.36 -45.11,130.96 -45.27,177.62zm-872.14 -142.08l-16.17 13.88 -0.45 15.72 75.17 113.73 -69.96 1.3 -82.67 -121.93 -18.36 10.32 -1.33 110.91 -63.17 0.68 0.15 -295.28c91.68,-7.31 295.87,13.19 176.79,150.67zm489.09 -24.37c-55.49,-9.52 -102.01,-29.12 -101.95,56.97 0.07,91.25 58.03,63.16 111.33,51.69l-0.42 49.44c-83.53,48.61 -174.54,3.34 -174,-101.01 0.54,-102.73 93.04,-150.87 176.59,-104.63 2.7,21.9 -3.95,27.08 -11.55,47.54zm1263.92 -1.22c-52.41,-2.25 -105.83,-35 -102.37,63.72 2.89,82.4 57.85,62.36 110.34,43.96l1.74 52.05c-230.72,98.83 -249.25,-291.25 3.83,-206.62l-13.54 46.89zm61.45 -102.56c-16.55,-51.09 55.25,-53.17 63.6,-23.76 13.32,46.9 -52.81,57.07 -63.6,23.76zm340.82 -200.53c-23.06,53.19 -216.49,28.53 -270.97,27.95 -48.38,-0.5 -94.79,-1.93 -142.82,-8.13 -80.3,-10.36 -249.89,35.1 -153.91,-93.59 31.4,-42.09 62.28,-23.23 111.16,-17.85 94.84,10.43 191.26,2 285.75,-7.16 61.79,-5.98 60.51,-30.56 59.66,-87.08l-0.69 -297.67c-0.73,-55.21 -5.87,-106.07 72.82,-67.5 54.83,26.89 42.75,55.46 42.58,110.19 -0.25,82.26 17.47,392.28 -3.58,440.84zm-2139.61 -529.88c7.8,-23.26 53.21,-27.31 75.13,-14.46 26.87,34.63 -8.51,369.26 6.85,442.86 57.21,4.23 142.03,-3.24 202.88,-3.66l154.52 -0.63c25.98,-0.69 30.47,-4.14 39.84,15.39 24.7,34.37 46.23,41.72 41.02,92.6 -64.66,53.37 -185.34,26.27 -268,23.19 -48.73,-1.81 -257.32,1.88 -284.07,-21.54 -24.06,-18.98 -15.95,-75.2 -16.25,-120.8 -0.39,-61.55 -4.47,-379.82 6.13,-395.6 17.37,-17.63 27.14,-10.08 41.95,-17.35zm1618.75 -627.88c-4.01,21.4 -4.18,19.91 2.27,39.51 66.93,24.88 67.18,119.59 48.91,175.26 -2.57,29.4 -8.05,49.27 -12.71,77 -6.33,37.68 -11.26,24.74 -27.45,50.04l-3.67 14.31c-37.57,12.4 -45.74,20.3 -60.08,57.55 -7.61,19.76 -18.72,70.81 -32.78,83.32 2.68,41.26 -30.67,63.55 -53.18,108.28l-16.88 19.33c-0.86,0.77 -2.12,1.75 -2.95,2.55l-9.89 11.73c-13.85,16.41 -36.55,30.38 -48.41,47.82 -25.02,36.8 4.28,6.87 -34.2,27.53l-122.91 68.91c-10.05,5.14 -11.38,5.22 -22.41,9.05 -4.09,1.44 -7.37,2.45 -11.9,4.14 -1.2,0.46 -2.56,1.08 -3.75,1.53 -1.17,0.45 -2.52,1.08 -3.69,1.53 -1.16,0.44 -2.5,1.06 -3.67,1.49 -34.58,12.54 -69.67,13.7 -110.23,19.73 -37.09,5.52 -81.49,3.58 -118.85,-1.54l-82.76 -13.93c-27.24,-8.2 -17.96,1.75 -24.53,-17.12l-164.41 -77.42 -20.18 -0.62c-14.73,-15.08 -12.85,-7.35 -15.91,-24.72 -21.35,-3.9 -51.34,-32.31 -56.06,-55l0.79 -12.34c-17.1,-3.86 -20.22,-2.81 -17.32,-20.36 -17.85,-6.34 -28.79,-25.72 -41.52,-49.13 -11.17,-20.53 -22.74,-40.67 -27.68,-66.59l-74.38 -135.57c-26.67,-2.98 -41.06,-19.97 -60.81,-38.79 -42.93,-40.9 -33.11,-96.08 -22.79,-150.14 5.28,-27.65 0.71,-68.46 25.33,-66.38 0.01,-33.02 35.54,-54.4 51.27,-81.2 -36.92,-57.8 -39.3,-157.62 -14.94,-227.24 6.7,-19.16 10.22,-34.3 15.23,-54.17 10.49,-41.66 62.22,-124.54 66.16,-135.89l17.19 -2.53 6.63 -10.28c8.4,-26.35 32.57,-49.56 52.9,-71.15 13.19,-44.1 12.58,-24.8 44.13,-49.11l100.3 -69.91c25.81,-11.91 46.45,-22.36 67.99,-20.31 18.47,-3.1 51.22,-15.4 70.79,-22.02 23.58,-7.98 48.99,-11.5 73.39,-17.08 59.51,-13.63 133.66,1.98 177.66,-7.61 27.64,-2.89 45.88,3.96 72.84,8.33 21.23,3.45 124.07,36.54 145.62,67.76l35 21.88c40.64,0.89 15.57,3.82 48.42,24.76 20.93,13.35 12.45,17.31 38.44,27.63l3.48 23.54 24.92 29.79c19.95,8.55 20.08,13.44 34.01,30.44 9.23,11.26 14.19,17.91 25.22,27.6l-4.05 14.5c65.87,53.92 126.55,323.97 78.06,401.31zm-1079.97 -1047.98c-19.35,52.46 -42.48,50.26 -94.46,47.82l-276.39 -2.37c-100.89,-0.72 -65.64,14.16 -98.42,45.78l-1.7 392.55c-13.86,43.17 -45.88,-0.51 -83.54,2.16 -57.01,-0.28 -38.54,-70.06 -40.19,-119.11l1.52 -302.94c-0.04,-32.51 -15.07,-112.82 17.01,-130.03 35.37,-18.95 238.52,-14.34 290.36,-13.31l228.61 1.06c44.2,0.24 58.39,-6.17 62.32,14.82l13.24 10.73 -18.36 52.84zm1430.15 -137.9c8.83,-19.49 24.12,-13 65.22,-26.27 107.17,-34.56 132.57,-32.6 260.01,-79.59l185.86 -65.18c3.87,-20.59 -10.3,-10.03 45.85,-25.52 74.95,-20.64 186.26,-78.97 255.68,-30.66 24.91,17.33 40.57,61.28 39.96,91.5 -17.07,83.38 218.7,414.65 -6.85,454.09 -26.72,36.39 -85.34,36.08 -126.88,54.73 -27.32,12.27 -108.24,29.69 -124.89,50.37 -15.66,16.56 -7.81,139.93 -9,171.61 -6.24,165.67 10.81,138.38 13.03,168.12l258.4 9.82c21.9,0.09 64.1,3.83 83.66,-3.78 11.26,-44.39 -10.09,-112.49 14.51,-151.42 21.09,-15.19 130.03,-25.98 159.2,-19.69 18.03,42.99 -0.97,366.34 6.94,464.68 2.21,27.53 9.72,47.65 -16.79,54.59 -29.96,-0.44 -55.33,7.54 -76.21,-11.81l-61.61 -12.21 -15.11 -156.28 -461.95 0.52c-62.5,13.92 -56.15,-29.69 -56.37,-76.8 -0.19,-40.34 1.85,-81.73 2.59,-122.24 5.14,-280.14 23.81,-262.48 -80.23,-235.08 -31.03,8.18 -32.3,16.36 -63.7,24.58 -161.17,42.17 -145.73,82.33 -293.59,39.67 -34.76,-10.02 -123.43,-22.54 -127.64,-55.01 -28.79,0.04 -8.21,-1.74 -19.51,5.05 9.64,15.3 4.67,31.52 -1.65,50.21 -13.36,6.32 -15.7,3.04 -31.97,13.45 -20.99,13.44 -7.77,14.62 -35.34,13.68 -8.87,17.92 -11.42,10.58 -29.87,21.34 -79.67,46.41 -68.53,48.69 -132.36,-43.23 -11.1,-15.97 -36.04,-48.05 -35.23,-65.39l-12.53 -30.05 -11.41 -16.77c-13.64,-7.49 -18.45,-12.69 -21.48,-31.37 -5.51,-34.02 0.3,-80.59 35.4,-91.24l-0.39 -16.54c18.1,-7.98 30.95,-18.33 43.86,-22.97 21.51,-7.71 40.38,-4.13 63.23,-7.69 -9.63,-42.2 -27.68,-28.71 -44.08,-60.34 -15.74,-22.31 -71.33,-16.14 -62.57,-82.46 29.59,-32.75 155.74,-69.43 199.26,-83.56 41.32,-13.41 200.11,-69.77 226.55,-64.86zm-2773.58 1521.59c60.66,706.22 245.11,1106 718.4,1591.86 53.91,55.35 86.43,93.48 160.41,132.86 130.04,69.2 132.42,146.69 543.07,316.62 327.07,135.34 635.19,164.3 986.06,160.83 241.95,-2.37 678.59,-112.81 909.17,-231.93 296.4,-153.11 430.72,-268.12 666.25,-486.76 104.51,-97.02 295.79,-367.6 358.02,-507.91 11.81,-26.62 83.49,-188.5 89.79,-197.7 132.02,-192.73 176.36,-729.35 172.21,-965.6 -4.97,-282.44 -91.62,-672.69 -236.5,-917.25 -64.53,-108.92 -142.64,-260.69 -224.3,-355.29 -73.34,-84.95 -189.08,-240.99 -269.23,-304.69 -118.1,-93.86 -194.7,-159.42 -321.31,-247.87 -378.58,-264.48 -879.64,-389.52 -1341.27,-379.97 -313.7,6.49 -632.82,109.14 -907.56,245.14 -62.14,30.77 -126.84,68.77 -189.06,103.12 -64.26,35.48 -127.48,100.51 -164.24,121.63 -114.52,65.76 -202.32,158.69 -310.14,265.01 -428.88,422.85 -689.27,1081.57 -639.77,1657.9z"/>
   <path class="fil20" d="M7796.05 17956.23c-49.5,-576.33 210.89,-1235.05 639.77,-1657.9 107.82,-106.32 195.62,-199.25 310.14,-265.01 36.76,-21.12 99.98,-86.15 164.24,-121.63 62.22,-34.35 126.92,-72.35 189.06,-103.12 274.74,-136 593.86,-238.65 907.56,-245.14 461.63,-9.55 962.69,115.49 1341.27,379.97 126.61,88.45 203.21,154.01 321.31,247.87 80.15,63.7 195.89,219.74 269.23,304.69 81.66,94.6 159.77,246.37 224.3,355.29 144.88,244.56 231.53,634.81 236.5,917.25 4.15,236.25 -40.19,772.87 -172.21,965.6 -6.3,9.2 -77.98,171.08 -89.79,197.7 -62.23,140.31 -253.51,410.89 -358.02,507.91 -235.53,218.64 -369.85,333.65 -666.25,486.76 -230.58,119.12 -667.22,229.56 -909.17,231.93 -350.87,3.47 -658.99,-25.49 -986.06,-160.83 -410.65,-169.93 -413.03,-247.42 -543.07,-316.62 -73.98,-39.38 -106.5,-77.51 -160.41,-132.86 -473.29,-485.86 -657.74,-885.64 -718.4,-1591.86zm4267.61 -1710.06c352.33,439.77 563.48,999.52 563.48,1609.12 0,262.67 -39.25,516.08 -112.03,754.65 -2.37,7.5 -4.65,15.04 -7.06,22.53l-0.98 3.04c-148.11,452.88 -419.6,860.91 -774.66,1171.63 -410.54,352.41 -933.66,575.25 -1507.32,605.77 -15.94,0.47 -31.88,0.97 -47.9,1.12 -351.87,3.22 -683.99,-54 -986.63,-162.94 -957.91,-366.25 -1638.98,-1300.68 -1638.98,-2395.8 0,-1159.31 763.22,-2138.53 1810.16,-2454.24 196.75,-57.47 402.36,-90.42 613.34,-94.69 843.11,-17.04 1600.1,344.36 2088.58,939.81z"/>
   <path class="fil21" d="M9579.08 18222.31c-44.35,-2.95 -76.99,-78.19 -113.08,-98.36l-1.36 -16.18c-17.83,-4.08 -32.01,-19.37 -16.94,-37.46 18.69,-16.9 153.03,-7.56 187.32,-7.9 45.72,-0.45 156.03,-17.63 169.08,3.69 8.31,50.22 -30.97,113.2 -62.5,143.66 -31.58,30.54 -137.78,58.79 -162.52,12.55zm199.85 -522.96c5.03,-41.57 25.7,-56.97 68.66,-65.93 90.21,-18.82 138.97,72.42 97.81,143.54 -14.17,24.49 -99.77,55.71 -113.79,20.36l2.45 0.56c-23.27,-3.79 -13.54,0.37 -30.86,-12.03 -5.71,-4.08 -13.2,-9.91 -17.86,-18.62 -11.19,-20.89 -3.97,-46.08 -6.41,-67.88zm-327.15 -9.85c1.55,22.43 4.84,14.4 13.06,20.73l-4.6 1.06 17.72 1.1c-0.32,52.72 -7.19,90.26 -60.01,109.1 -48.15,17.17 -92.22,9.94 -121.98,-33.36 -30.1,-43.8 -17.46,-91.25 18.23,-122.12 26.71,-23.1 127.89,-28.6 137.58,23.49zm-117.68 -658.3c-13.74,-0.35 -31.44,7.67 -36.55,17.47 -4.31,20.29 -20.88,28.15 -38.96,40.01 -15.58,10.22 -33.09,28.66 -49.09,26.23 -6.14,15.84 -24.44,27.54 -36.53,42.4 -6.36,7.81 -13.08,16.29 -18.72,23.8 -14.49,19.33 -2.99,17.04 -23.92,19.06l-6.63 10.28c-3.2,21.04 -83.87,111.5 -94.67,249.59 -5.34,68.26 -4.93,92.15 18.48,153.3 9.87,25.78 -2.21,40.76 -20.16,57.83 -32.76,31.17 -18.68,32.02 -38.56,40.31 0.44,15.22 -9.36,47.96 -12.95,72.21 -4.09,27.72 -6.68,51.5 -4.2,80.34 6.22,72.37 56.59,61.34 75.42,102.76l74.38 135.57 16.08 2.71c4.78,14.84 9.84,17.53 12.87,24.49 4.14,9.48 3.32,17.96 9.93,32.78 10.68,23.94 29.98,36.19 30.32,55.74l15.81 5.18 1.51 15.18c23.16,4.64 16.58,6.01 32.35,25.65 11.67,14.52 20.92,17.21 35.93,27.51l0.92 14.93 16.88 -0.27 4.27 14.68 1.01 10.18 164.41 77.42c38.65,2.84 76.27,15.18 117.85,18.59 43.06,3.51 87.55,3.95 130.16,-2.93 48.96,-7.91 157.38,-36.47 194.28,-66.66 13.12,-20.6 13.7,-11.51 31.87,-25.73 19.27,-15.1 6.84,-12.64 35.99,-21.2l2.39 -1.34c5.07,-22.54 8.78,-15 46.41,-57.71l37.56 -42.18c22.98,-32.34 52.54,-79.22 64.54,-114.49 10.6,-31.19 -1.31,-22.54 21.05,-36.73 3.32,-21.08 21.89,-67.5 36.56,-78.55 6.36,-13.6 4.56,-8.43 13.74,-18.1 48.32,-50.87 30.68,14.11 53.34,-80.87 1.22,-5.13 3.97,-17.71 5,-21.22 6.04,-20.72 7.69,-18.25 16.16,-24.13 18.27,-55.67 18.02,-150.38 -48.91,-175.26l-19.34 -4.8c-8.59,-21.14 -0.99,-25.24 17.07,-34.71 48.49,-77.34 -12.19,-347.39 -78.06,-401.31 -12.38,-9.71 -7.65,-4.86 -18.59,-18.92 -3.88,-4.99 -7.07,-9.69 -11.5,-14.83 -13.97,-16.15 -20.21,-16.68 -25.09,-38.79l-24.92 -29.79 -13.96 -0.38c-23.92,-7.16 -65.6,-54.84 -143.56,-95.59 -62.71,-32.77 -218.04,-68.87 -290.04,-61.64 -34.1,3.44 -68.94,9.73 -101.81,14.19 -84.2,11.42 -150.39,59.08 -177.82,57.74z"/>
   <path class="fil21" d="M10569.63 16434.64c-6.47,16.89 -0.34,7.71 -51.07,22.69l-199.29 66.82c-1.01,0.51 -2.27,1.39 -3.26,1.91 -23.99,12.51 -34.67,9.18 -74.19,25.43 -41.56,17.11 -89.02,17.27 -80.05,68.24 18.25,23.79 53.33,35 79.74,48 20.52,10.1 49.61,53.37 55.28,76.09 0.3,0.86 61.72,85.92 71.72,100.16 15.9,22.63 66.14,80.34 71.21,103.4 12.89,1.46 52.07,18.41 70.86,24.61 160.96,53.17 153.59,42.09 296.6,-4.89 28.13,-9.24 181.03,-80.86 205.23,-55.16 14.32,34.4 6.44,202.28 6.03,250.65 -2.13,252.9 -10.04,164.96 40.22,209.67l461.95 -0.52 15.11 156.28 61.61 12.21 69.27 0.14 -0.31 -485.5c-32.72,-2.74 -87.81,7.54 -121.98,14.02 -13.02,45.18 -1.88,125.79 -13.94,150.26 -11.77,12.3 -251.45,9.34 -301.46,6.71 -6.88,-0.36 -14.11,-0.43 -20.6,-2.22l-21.43 -11.84c-27.8,-3.94 -18.01,3.1 -19.26,-13.96 -32.44,-1.41 -26.24,-43.48 -26.13,-72.45 1.37,-332.64 -29.81,-269.09 131.65,-328.26l142.22 -44.12c225.55,-39.44 -10.22,-370.71 6.85,-454.09 -27.06,-21.84 -26.8,-87.97 -67.78,-85.63 -48.53,3.31 -117.96,13.74 -164.22,29.44 -15.62,5.29 -26.91,11.57 -44.49,16.42 -37.14,10.26 -20.64,4 -43.98,20.95 -12.65,9.18 -34.58,8.47 -49.7,12.19 -24.1,5.93 -26.82,11.13 -46.51,17.5 -83.43,26.93 -379.06,130.57 -435.9,124.85z"/>
   <path class="fil22" d="M10199.31 18693.92c-125.07,125.53 48.11,75.09 174.31,98.79 29.71,5.57 317.65,9.75 334.43,0.93 44.44,-23.36 28.35,-99.77 29.63,-142.91l-2.61 -340.39c-1.62,-57.52 -29.93,-89.2 -90.66,-79.79 -22.12,75.19 18.28,410.33 -19.6,442.51 -57,48.42 -386.68,13.53 -425.5,20.86z"/>
   <path class="fil21" d="M8668.51 17056.32l1.7 -392.55c-3.55,-79.39 110.48,-57.71 210.04,-57.26 44.28,0.19 88.64,0.39 132.86,0.47 47.34,0.09 89.78,14.62 108.19,-30.52 7.1,-25.57 19.18,-26.43 19.39,-52.18 -56.76,-16.23 -230.03,-3.47 -302.98,-6.86 -72.16,-3.33 -215.1,-14.91 -271.14,23.42l0.67 239.09c-1.87,84.13 -0.27,162.84 2.45,246.68 29.43,20.47 64.05,34.97 98.82,29.71z"/>
   <path class="fil22" d="M8569.34 18770.64c32.95,13.3 465.58,41.01 512.21,22.75 15.21,-5.95 16.07,-6.74 25.14,-14.73 1.6,-29.28 -19.2,-74.29 -51.44,-81.24 -45.61,-9.82 -364.5,10.45 -392.94,-4.63l2.7 -441.3c-23.1,-2.46 -45.25,6.48 -65.98,10.84 -33.95,7.13 -33.88,8.59 -33.98,42.39 -0.26,94.71 -8.75,420.03 4.29,465.92z"/>
   <path class="fil21" d="M10148.33 16776.51l-4.56 -3.45c1.6,31.31 -20.16,17.73 -24.86,54.76 -3.3,25.99 7.41,45 10.94,67.85l11.41 16.77c23.34,1.27 46.36,48.57 58.44,68.88 15.5,26.09 34.56,47.37 49.12,72.21 20.87,-1.54 24.99,-4.53 43.5,-14.06 4.59,-2.36 13.49,-7.23 17.63,-9.67 21.31,-12.58 71.76,-43.68 89.36,-46.63l-1.62 -35.98c-23.38,-6.08 -38.67,-40.79 -53.4,-63.04 -16.95,-25.62 -28.14,-44.37 -47.21,-70.59 -19.02,-26.16 -24.75,-57.75 -56.35,-61.72 -44.43,-5.57 -58.23,21.27 -92.4,24.67z"/>
   <path class="fil23" d="M10587.51 19251.61c1.94,-44.05 -18.28,-176.33 42.08,-179.72 60.39,-3.39 36.7,138.73 37.67,179.73l61.92 -1.37c1.33,-42.58 -19.33,-178.73 43.34,-178.75 59.27,-0.03 35.59,139.09 36.68,180.73l61.97 -2.6c1.96,-108.15 23.52,-308.74 -146.7,-198.78l0.64 -16.21 -134.98 -5.32 0.47 15.21 -61.41 -25.26c-7.77,17.31 -2.75,199.02 -2.66,232.63l60.98 -0.29z"/>
   <path class="fil24" d="M8529.18 19075.92c-13.64,17.66 -35.12,14.63 -58.92,10.98l0.48 -79.86c15.68,-2.14 39.24,-6.32 48.46,6.94 42.84,1.35 35.53,61.66 9.98,61.94zm39.23 60.64l-11.97 -16 28.59 -13.6c119.08,-137.48 -85.11,-157.98 -176.79,-150.67l-0.15 295.28 63.17 -0.68 1.33 -110.91 18.36 -10.32 82.67 121.93 69.96 -1.3 -75.17 -113.73z"/>
   <path class="fil23" d="M9729.93 19250.78c0.96,-48.11 -19.06,-175.28 43.88,-179.01 62.73,-3.7 40.2,130.25 42.19,180.24l61.92 -2.04c0.84,-123.69 30.57,-288.75 -148.24,-203.62l-2.56 -111.04 -59.19 0.54 -0.03 315.51 62.03 -0.58z"/>
   <path class="fil24" d="M10459.2 19728.99c0.78,19.93 1.44,41.06 -16.6,53.88 -54.54,38.8 -110.5,-56.96 16.6,-53.88zm-17.46 -80.64c13.06,6.62 14.83,3.62 18.02,19.14l-1.84 23.48c-64.38,5.05 -151.14,0.44 -137.25,91.13 11.35,74.1 94.58,63.77 145.61,22.35l11.23 28.54 44.25 -1.93c0.46,-46.09 10.31,-170.04 -15.97,-201.78 -31.4,-37.92 -128.23,-38.92 -163.71,-4.92l17.29 35.27 82.37 -11.28z"/>
   <path class="fil24" d="M9188.33 19160.94c-15.53,-111.87 79.38,-111.27 89.43,-46.91 18.06,115.54 -79.8,116.3 -89.43,46.91zm150.22 15.95c44.54,-173.09 -179.86,-208.55 -211.19,-77.73 -41.68,173.98 176.62,212.09 211.19,77.73z"/>
   <path class="fil24" d="M9853.42 19780.25c-18.36,34.8 -89.45,7.93 -56.88,-30.75 11.92,-21.88 45.01,-22.38 70.93,-18.84 0.58,24.08 1.63,33.37 -14.05,49.59zm-64.26 56.05c47.08,3.85 53.17,-13.29 88.26,-29.6 10.69,35.5 12.16,26.68 51.85,25.84 1.22,-44.35 10.78,-170.96 -14.56,-202.09 -31.14,-38.26 -128.37,-38.61 -164.34,-6.53l17.44 35.67c36.25,-0.94 103.5,-40.42 98.82,30.14 -63.41,11.66 -151.44,-5.5 -137.24,93.02 4.9,34.02 26.62,50.84 59.77,53.55z"/>
   <path class="fil24" d="M9992.77 19111.6c3.33,-63.33 85.36,-61.49 83.14,1.55l-83.14 -1.55zm129.52 82.69c-47.65,12.49 -126.53,40.87 -130.72,-39.17l142.83 -0.67c20.77,-164.61 -160.75,-166.57 -198.54,-69.82 -51.19,131.05 63.74,205.05 187.64,156.15l-1.21 -46.49z"/>
   <path class="fil24" d="M10986.44 19111.62c1.94,-60.19 82.69,-64.74 82.84,1.49l-82.84 -1.49zm129.57 82.79c-48.45,13.45 -126.04,40.41 -131.04,-39.36l142.87 -1.02c20.48,-163.3 -159.33,-166.8 -198.09,-69.89 -52.13,130.36 63.04,207.38 187.34,156.13l-1.08 -45.86z"/>
   <path class="fil24" d="M11770.16 19182.38c-33.33,70.89 -121.08,-10.9 -78.15,-90.05 33.49,-61.73 116.19,9.15 78.15,90.05zm-148.13 -17.34c22.08,136.18 240.94,125.19 216.61,-51.17 -18.89,-136.97 -245.54,-127.16 -216.61,51.17z"/>
   <path class="fil24" d="M8731.06 19112.62c1.02,-63.96 82.37,-64.78 81.03,0.51l-81.03 -0.51zm129.41 83.23c-50.27,9.05 -126.01,41.63 -131.5,-40.77l143.58 -1.94c13.1,-171.61 -165.6,-160.2 -200.2,-67.15 -32.33,86.97 5.39,208.21 188.18,156.02l-0.06 -46.16z"/>
   <path class="fil23" d="M9457.17 19249.04c0.16,-46.66 -19.55,-175.26 45.27,-177.62 62.74,-2.28 39.09,134.38 39.23,179.6l62.26 0.32c1.45,-41.61 7.52,-160.81 -9.54,-193.32 -27.15,-51.73 -98.58,-44.88 -139.36,-8.21 -16.62,-15.92 1.14,-26.4 -60.45,-23.03l0.75 225.49 61.84 -3.23z"/>
   <path class="fil23" d="M11242.81 19248.83c0.82,-46.95 -22.74,-175.13 45.82,-177.64 61.74,-2.26 38.46,136.33 38.45,179.83l62.1 0.42c1.17,-41.21 7.52,-166.39 -10.91,-196.98 -29.53,-49.04 -101.69,-40.47 -140.19,-1.56l-14.09 -26.77 -43.48 0.32 0.39 225.89 61.91 -3.51z"/>
   <path class="fil25" d="M9502.72 18133.69c39.11,17.59 79.44,105.91 164.36,86.41 31.77,-7.3 57.62,-27.84 75.32,-52.52 13.54,-18.88 36.27,-62.52 38.17,-87.23l-306.43 6.97c11.29,17.34 22.49,24.21 28.58,46.37z"/>
   <path class="fil26" d="M10199.31 18693.92c38.82,-7.33 368.5,27.56 425.5,-20.86 37.88,-32.18 -2.52,-367.32 19.6,-442.51 60.73,-9.41 89.04,22.27 90.66,79.79l2.61 340.39c-1.28,43.14 14.81,119.55 -29.63,142.91 -16.78,8.82 -304.72,4.64 -334.43,-0.93 -126.2,-23.7 -299.38,26.74 -174.31,-98.79zm541 84.36c21.05,-48.56 3.33,-358.58 3.58,-440.84 0.17,-54.73 12.25,-83.3 -42.58,-110.19 -78.69,-38.57 -73.55,12.29 -72.82,67.5l0.69 297.67c0.85,56.52 2.13,81.1 -59.66,87.08 -94.49,9.16 -190.91,17.59 -285.75,7.16 -48.88,-5.38 -79.76,-24.24 -111.16,17.85 -95.98,128.69 73.61,83.23 153.91,93.59 48.03,6.2 94.44,7.63 142.82,8.13 54.48,0.58 247.91,25.24 270.97,-27.95z"/>
   <path class="fil23" d="M9565.81 19615.45l-7.13 28.59 34.02 9.4 2.06 175.49 55.59 1.81c0.74,-33.75 -7.86,-158.33 6.21,-175.36 5.24,-5.17 -2.8,-4.53 20.48,-6.31 7.39,-0.57 16.74,-0.08 26.57,-0.8l-1.02 -42.13 -47.35 -4.35c-2.25,-38.32 7.47,-36.95 41.41,-37.4 25.86,-3.98 5.63,1.27 26.6,-13.66 1.36,-28.99 7.29,-31.26 -29.24,-34.72 -100.24,-9.5 -97.41,34.47 -103.83,90.07l-24.37 9.37z"/>
   <path class="fil26" d="M8569.34 18770.64c-13.04,-45.89 -4.55,-371.21 -4.29,-465.92 0.1,-33.8 0.03,-35.26 33.98,-42.39 20.73,-4.36 42.88,-13.3 65.98,-10.84l-2.7 441.3c28.44,15.08 347.33,-5.19 392.94,4.63 32.24,6.95 53.04,51.96 51.44,81.24 -9.07,7.99 -9.93,8.78 -25.14,14.73 -46.63,18.26 -479.26,-9.45 -512.21,-22.75zm31.36 -522.24c-14.81,7.27 -24.58,-0.28 -41.95,17.35 -10.6,15.78 -6.52,334.05 -6.13,395.6 0.3,45.6 -7.81,101.82 16.25,120.8 26.75,23.42 235.34,19.73 284.07,21.54 82.66,3.08 203.34,30.18 268,-23.19 5.21,-50.88 -16.32,-58.23 -41.02,-92.6 -81.42,-16.7 -358.87,13.28 -406.34,-5.81 -8.6,-8.42 -4.37,-43.31 -3.8,-57.96 2.75,-70.36 8.34,-355.19 0.38,-385.04 -24.55,-6.52 -44.72,6.1 -69.46,9.31z"/>
   <path class="fil24" d="M11587.11 19201.44c-37.35,5.47 -63.3,17.84 -64.93,-29.34 -0.92,-26.31 -1.35,-73.71 1.78,-99.3l62.07 -2.1 0.18 -44.33 -61.55 -1.4c-4.35,-25.04 3.04,-27.86 -8.21,-47.47l-34.8 0.41c-11.67,31.11 -6.92,36.88 -33.74,56.09 -11.55,8.28 -22.1,10.92 -15.85,28.76 6.14,17.54 -1.46,2.79 10.54,10.17l12.56 5.91c0.8,-1.27 3.22,1.02 4.47,2.08 1.42,95.89 -25.36,189.21 98.51,173.93 38.09,-4.7 33.52,-16.94 28.97,-53.41z"/>
   <path class="fil24" d="M10157.85 19615.59c-82.08,-45.92 -176.77,1.41 -177.66,103.37 -0.91,105.42 90.29,151.56 175.15,101.63l-0.27 -49.46c-34.96,8.33 -46.33,23.31 -87.3,9.21 -34.48,-25.14 -33.16,-99.22 4.31,-124.39 29.13,-6.83 46.88,3.14 74.45,6.5l11.32 -46.86z"/>
   <path class="fil24" d="M9074.12 19082.59c7.6,-20.46 14.25,-25.64 11.55,-47.54 -83.55,-46.24 -176.05,1.9 -176.59,104.63 -0.54,104.35 90.47,149.62 174,101.01l0.42 -49.44c-53.3,11.47 -111.26,39.56 -111.33,-51.69 -0.06,-86.09 46.46,-66.49 101.95,-56.97z"/>
   <path class="fil24" d="M10351.58 19034.48c-253.08,-84.63 -234.55,305.45 -3.83,206.62l-1.74 -52.05c-52.49,18.4 -107.45,38.44 -110.34,-43.96 -3.46,-98.72 49.96,-65.97 102.37,-63.72l13.54 -46.89z"/>
   <polygon class="fil23" points="10585.12,19832.48 10646.77,19832.54 10645.11,19517.05 10584.88,19517.53 "/>
   <path class="fil27" d="M9301.45 17710.35c-15.78,-3.51 -21.61,101.33 73.33,104.42 26.64,0.87 51.77,-7.41 70.37,-23.61 22.27,-19.39 17.62,-47.63 15.09,-79.87l4.6 -1.06c0,29.49 4.6,41.69 -5.49,56.64 -7.09,10.5 -0.84,1.92 -14.69,12.21 5.51,-50.31 13.16,-86.13 -40.46,-105.35 -67.54,-24.22 -82.18,33.86 -102.75,36.62z"/>
   <path class="fil25" d="M9834.06 17797.88l-2.45 -0.56 56.27 -0.72c19.07,-38.23 53.5,-17.23 46.96,-86.83 -7.7,-81.89 -132.29,-64.1 -142.17,0.13 -2.57,16.75 -1.01,42.44 10.85,55.21 19.22,20.72 17.45,-3.37 30.54,32.77z"/>
   <path class="fil28" d="M8584.97 17058.48c37.66,-2.67 69.68,41.01 83.54,-2.16 -34.77,5.26 -69.39,-9.24 -98.82,-29.71 -2.72,-83.84 -4.32,-162.55 -2.45,-246.68l-0.67 -239.09c56.04,-38.33 198.98,-26.75 271.14,-23.42 72.95,3.39 246.22,-9.37 302.98,6.86 -0.21,25.75 -12.29,26.61 -19.39,52.18 11.91,-5.27 4.74,-1.66 18.18,-3.92l18.36 -52.84 -13.24 -10.73c-97.34,-10.7 -209.53,0.52 -310.01,-4.52 -51.47,-2.57 -244.2,-11.62 -275.29,23.51l-4.13 416.73c1.77,126.08 0.13,77.4 29.8,113.79z"/>
   <path class="fil29" d="M10439.72 16947.38c4.21,32.47 92.88,44.99 127.64,55.01 147.86,42.66 132.42,2.5 293.59,-39.67 31.4,-8.22 32.67,-16.4 63.7,-24.58 104.04,-27.4 85.37,-45.06 80.23,235.08 -0.74,40.51 -2.78,81.9 -2.59,122.24 0.22,47.11 -6.13,90.72 56.37,76.8 -50.26,-44.71 -42.35,43.23 -40.22,-209.67 0.41,-48.37 8.29,-216.25 -6.03,-250.65 -24.2,-25.7 -177.1,45.92 -205.23,55.16 -143.01,46.98 -135.64,58.06 -296.6,4.89 -18.79,-6.2 -57.97,-23.15 -70.86,-24.61z"/>
   <polygon class="fil23" points="10400.11,19252.39 10462.69,19249.81 10460.43,19025.44 10400.21,19024.95 "/>
   <path class="fil29" d="M11167.62 17197.84c1.25,17.06 -8.54,10.02 19.26,13.96 55.07,2.66 300.61,17.47 333.04,2.22 12.2,-38.62 -11.03,-130.02 17.85,-156.66 17.77,-7.08 114.41,-17.95 137.11,-15.31 7.73,22.73 6.55,483.97 -1.34,509.99 26.51,-6.94 19,-27.06 16.79,-54.59 -7.91,-98.34 11.09,-421.69 -6.94,-464.68 -29.17,-6.29 -138.11,4.5 -159.2,19.69 -24.6,38.93 -3.25,107.03 -14.51,151.42 -19.56,7.61 -61.76,3.87 -83.66,3.78l-258.4 -9.82z"/>
   <path class="fil30" d="M11186.88 17211.8l21.43 11.84c6.49,1.79 13.72,1.86 20.6,2.22 50.01,2.63 289.69,5.59 301.46,-6.71 12.06,-24.47 0.92,-105.08 13.94,-150.26 34.17,-6.48 89.26,-16.76 121.98,-14.02l0.31 485.5 -69.27 -0.14c20.88,19.35 46.25,11.37 76.21,11.81 7.89,-26.02 9.07,-487.26 1.34,-509.99 -22.7,-2.64 -119.34,8.23 -137.11,15.31 -28.88,26.64 -5.65,118.04 -17.85,156.66 -32.43,15.25 -277.97,0.44 -333.04,-2.22z"/>
   <path class="fil30" d="M11080.72 16263.6l-185.86 65.18c-127.44,46.99 -152.84,45.03 -260.01,79.59 -41.1,13.27 -56.39,6.78 -65.22,26.27 56.84,5.72 352.47,-97.92 435.9,-124.85 19.69,-6.37 22.41,-11.57 46.51,-17.5 15.12,-3.72 37.05,-3.01 49.7,-12.19 23.34,-16.95 6.84,-10.69 43.98,-20.95 17.58,-4.85 28.87,-11.13 44.49,-16.42 46.26,-15.7 115.69,-26.13 164.22,-29.44 -24.79,-32.63 -107.17,-0.61 -141.32,9.23 -42.64,12.29 -89.52,33.47 -132.39,41.08z"/>
   <path class="fil31" d="M8584.97 17058.48c-29.67,-36.39 -28.03,12.29 -29.8,-113.79l4.13 -416.73c31.09,-35.13 223.82,-26.08 275.29,-23.51 100.48,5.04 212.67,-6.18 310.01,4.52 -3.93,-20.99 -18.12,-14.58 -62.32,-14.82l-228.61 -1.06c-51.84,-1.03 -254.99,-5.64 -290.36,13.31 -32.08,17.21 -17.05,97.52 -17.01,130.03l-1.52 302.94c1.65,49.05 -16.82,118.83 40.19,119.11z"/>
   <polygon class="fil23" points="10266.14,19606.19 10210.61,19606.32 10209.52,19829.41 10266.44,19830.69 "/>
   <path class="fil29" d="M10143.77 16773.06l4.56 3.45c19.05,-32.25 75.33,-42.32 113.29,-34.86 14.8,14.17 23.97,34.16 36.52,50.44l67.73 101.99c27.67,44.49 29.47,29.46 31.82,53.11 21.52,9.91 23.86,31.48 3.74,46.2 -17.46,12.76 -41.29,17.04 -50.18,36.38 27.57,0.94 14.35,-0.24 35.34,-13.68 16.27,-10.41 18.61,-7.13 31.97,-13.45 6.32,-18.69 11.29,-34.91 1.65,-50.21 11.3,-6.79 -9.28,-5.01 19.51,-5.05 -5.07,-23.06 -55.31,-80.77 -71.21,-103.4 -10,-14.24 -71.42,-99.3 -71.72,-100.16 -33.94,-20.06 -40.15,-61.58 -90.4,-78.3 16.4,31.63 34.45,18.14 44.08,60.34 -22.85,3.56 -41.72,-0.02 -63.23,7.69 -12.91,4.64 -25.76,14.99 -43.86,22.97l0.39 16.54z"/>
   <path class="fil30" d="M9395.65 16989.69c-0.99,0.97 -2.5,1.05 -3.03,2.82 -3.97,13.26 -38.97,3.97 -58.52,38.69 27.43,1.34 93.62,-46.32 177.82,-57.74 32.87,-4.46 67.71,-10.75 101.81,-14.19 72,-7.23 227.33,28.87 290.04,61.64 77.96,40.75 119.64,88.43 143.56,95.59 -12.98,-36.42 -56.99,-45.14 -76.38,-75.55l-35 -21.88c-25.21,-3.98 -76.67,-30.7 -105.85,-41.04 -19.38,-6.88 -36.82,-12 -56.82,-16.45 -22.88,-5.08 -43.85,-3.07 -55.79,-18.6 -44,9.59 -118.15,-6.02 -177.66,7.61 -24.4,5.58 -49.81,9.1 -73.39,17.08 -19.57,6.62 -52.32,18.92 -70.79,22.02z"/>
   <path class="fil32" d="M11770.16 19182.38c38.04,-80.9 -44.66,-151.78 -78.15,-90.05 -42.93,79.15 44.82,160.94 78.15,90.05z"/>
   <path class="fil25" d="M9188.33 19160.94c9.63,69.39 107.49,68.63 89.43,-46.91 -10.05,-64.36 -104.96,-64.96 -89.43,46.91z"/>
   <path class="fil29" d="M9976.27 18309.27l-2.39 1.34c-9.11,21.1 -44.92,40.2 -67.86,46.93 -36.9,30.19 -145.32,58.75 -194.28,66.66 -42.61,6.88 -87.1,6.44 -130.16,2.93 -41.58,-3.41 -79.2,-15.75 -117.85,-18.59 6.57,18.87 -2.71,8.92 24.53,17.12l82.76 13.93c37.36,5.12 81.76,7.06 118.85,1.54 40.56,-6.03 75.65,-7.19 110.23,-19.73 1.17,-0.43 2.51,-1.05 3.67,-1.49 1.17,-0.45 2.52,-1.08 3.69,-1.53 1.19,-0.45 2.55,-1.07 3.75,-1.53 4.53,-1.69 7.81,-2.7 11.9,-4.14 11.03,-3.83 12.36,-3.91 22.41,-9.05l122.91 -68.91c38.48,-20.66 9.18,9.27 34.2,-27.53 11.86,-17.44 34.56,-31.41 48.41,-47.82l9.89 -11.73c0.83,-0.8 2.09,-1.78 2.95,-2.55l16.88 -19.33c22.51,-44.73 55.86,-67.02 53.18,-108.28 -15.16,10.88 -24.29,39 -34.44,57.18 -9.95,17.83 -22.67,34.1 -36.06,49.12 -22.54,25.28 -57.11,75.83 -87.17,85.46z"/>
   <path class="fil30" d="M10206.39 16665.52c50.25,16.72 56.46,58.24 90.4,78.3 -5.67,-22.72 -34.76,-65.99 -55.28,-76.09 -26.41,-13 -61.49,-24.21 -79.74,-48 -8.97,-50.97 38.49,-51.13 80.05,-68.24 39.52,-16.25 50.2,-12.92 74.19,-25.43 0.99,-0.52 2.25,-1.4 3.26,-1.91l199.29 -66.82c50.73,-14.98 44.6,-5.8 51.07,-22.69 -26.44,-4.91 -185.23,51.45 -226.55,64.86 -43.52,14.13 -169.67,50.81 -199.26,83.56 -8.76,66.32 46.83,60.15 62.57,82.46z"/>
   <path class="fil33" d="M8600.7 18248.4c24.74,-3.21 44.91,-15.83 69.46,-9.31 7.96,29.85 2.37,314.68 -0.38,385.04 -0.57,14.65 -4.8,49.54 3.8,57.96 47.47,19.09 324.92,-10.89 406.34,5.81 -9.37,-19.53 -13.86,-16.08 -39.84,-15.39l-154.52 0.63c-60.85,0.42 -145.67,7.89 -202.88,3.66 -15.36,-73.6 20.02,-408.23 -6.85,-442.86 -21.92,-12.85 -67.33,-8.8 -75.13,14.46z"/>
   <path class="fil30" d="M9464.64 18107.77l-2.24 -31.95 332.06 -4.67c0.01,43.21 -35.18,100.69 -67.26,129.59 -67.88,61.13 -120.76,21.89 -148.12,21.57 24.74,46.24 130.94,17.99 162.52,-12.55 31.53,-30.46 70.81,-93.44 62.5,-143.66 -13.05,-21.32 -123.36,-4.14 -169.08,-3.69 -34.29,0.34 -168.63,-9 -187.32,7.9 -15.07,18.09 -0.89,33.38 16.94,37.46z"/>
   <path class="fil29" d="M9502.72 18133.69c-6.09,-22.16 -17.29,-29.03 -28.58,-46.37l306.43 -6.97c-1.9,24.71 -24.63,68.35 -38.17,87.23 -17.7,24.68 -43.55,45.22 -75.32,52.52 -84.92,19.5 -125.25,-68.82 -164.36,-86.41zm-38.08 -25.92c26.26,8.92 13.11,19.59 38.08,25.92 5.76,38.12 65.59,58.12 76.36,88.62 27.36,0.32 80.24,39.56 148.12,-21.57 32.08,-28.9 67.27,-86.38 67.26,-129.59l-332.06 4.67 2.24 31.95z"/>
   <path class="fil29" d="M11167.62 17197.84c-2.22,-29.74 -19.27,-2.45 -13.03,-168.12 1.19,-31.68 -6.66,-155.05 9,-171.61 16.65,-20.68 97.57,-38.1 124.89,-50.37 41.54,-18.65 100.16,-18.34 126.88,-54.73l-142.22 44.12c-161.46,59.17 -130.28,-4.38 -131.65,328.26 -0.11,28.97 -6.31,71.04 26.13,72.45z"/>
   <path class="fil31" d="M8988.79 17711.48c19.88,-8.29 5.8,-9.14 38.56,-40.31 17.95,-17.07 30.03,-32.05 20.16,-57.83 -23.41,-61.15 -23.82,-85.04 -18.48,-153.3 10.8,-138.09 91.47,-228.55 94.67,-249.59l-17.19 2.53c-3.94,11.35 -55.67,94.23 -66.16,135.89 -5.01,19.87 -8.53,35.01 -15.23,54.17 -24.36,69.62 -21.98,169.44 14.94,227.24 -15.73,26.8 -51.26,48.18 -51.27,81.2z"/>
   <path class="fil30" d="M9460.24 17711.29c2.53,32.24 7.18,60.48 -15.09,79.87 -18.6,16.2 -43.73,24.48 -70.37,23.61 -94.94,-3.09 -89.11,-107.93 -73.33,-104.42 6.62,-32.29 30.77,-47.85 67.52,-50.52 51.06,-3.71 48.21,11.49 82.81,29.67 -9.69,-52.09 -110.87,-46.59 -137.58,-23.49 -35.69,30.87 -48.33,78.32 -18.23,122.12 29.76,43.3 73.83,50.53 121.98,33.36 52.82,-18.84 59.69,-56.38 60.01,-109.1l-17.72 -1.1z"/>
   <path class="fil34" d="M9121.3 16576.46c-18.41,45.14 -60.85,30.61 -108.19,30.52 -44.22,-0.08 -88.58,-0.28 -132.86,-0.47 -99.56,-0.45 -213.59,-22.13 -210.04,57.26 32.78,-31.62 -2.47,-46.5 98.42,-45.78l276.39 2.37c51.98,2.44 75.11,4.64 94.46,-47.82 -13.44,2.26 -6.27,-1.35 -18.18,3.92z"/>
   <path class="fil29" d="M9778.93 17699.35c2.44,21.8 -4.78,46.99 6.41,67.88 4.66,8.71 12.15,14.54 17.86,18.62 17.32,12.4 7.59,8.24 30.86,12.03 -13.09,-36.14 -11.32,-12.05 -30.54,-32.77 -11.86,-12.77 -13.42,-38.46 -10.85,-55.21 9.88,-64.23 134.47,-82.02 142.17,-0.13 6.54,69.6 -27.89,48.6 -46.96,86.83 32.84,-6.53 52.24,-21.83 58.27,-55.61 15.46,-86.58 -63.51,-111.49 -109.15,-93.16 -37.2,14.94 -33.8,31.18 -58.07,51.52z"/>
   <path class="fil30" d="M10153.79 16942.49c1.31,0.96 3.18,0.87 3.79,3.06l22.87 27.31c6.83,10.7 13.33,21.74 20.66,32.67 12.96,19.33 27.86,48.37 45.75,60.49 44.95,7.27 66.92,-38.66 104.39,-36.25 8.89,-19.34 32.72,-23.62 50.18,-36.38 20.12,-14.72 17.78,-36.29 -3.74,-46.2l1.62 35.98c-17.6,2.95 -68.05,34.05 -89.36,46.63 -4.14,2.44 -13.04,7.31 -17.63,9.67 -18.51,9.53 -22.63,12.52 -43.5,14.06 -14.56,-24.84 -33.62,-46.12 -49.12,-72.21 -12.08,-20.31 -35.1,-67.61 -58.44,-68.88l12.53 30.05z"/>
   <path class="fil29" d="M11080.72 16263.6c42.87,-7.61 89.75,-28.79 132.39,-41.08 34.15,-9.84 116.53,-41.86 141.32,-9.23 40.98,-2.34 40.72,63.79 67.78,85.63 0.61,-30.22 -15.05,-74.17 -39.96,-91.5 -69.42,-48.31 -180.73,10.02 -255.68,30.66 -56.15,15.49 -41.98,4.93 -45.85,25.52z"/>
   <path class="fil35" d="M9778.93 17699.35c24.27,-20.34 20.87,-36.58 58.07,-51.52 45.64,-18.33 124.61,6.58 109.15,93.16 -6.03,33.78 -25.43,49.08 -58.27,55.61l-56.27 0.72c14.02,35.35 99.62,4.13 113.79,-20.36 41.16,-71.12 -7.6,-162.36 -97.81,-143.54 -42.96,8.96 -63.63,24.36 -68.66,65.93z"/>
   <path class="fil32" d="M8529.18 19075.92c25.55,-0.28 32.86,-60.59 -9.98,-61.94l-42.61 -3.44 1.4 72.63 51.19 -7.25z"/>
   <path class="fil30" d="M10148.33 16776.51c34.17,-3.4 47.97,-30.24 92.4,-24.67 31.6,3.97 37.33,35.56 56.35,61.72 19.07,26.22 30.26,44.97 47.21,70.59 14.73,22.25 30.02,56.96 53.4,63.04 -2.35,-23.65 -4.15,-8.62 -31.82,-53.11l-67.73 -101.99c-12.55,-16.28 -21.72,-36.27 -36.52,-50.44 -37.96,-7.46 -94.24,2.61 -113.29,34.86z"/>
   <path class="fil29" d="M9047.06 17966.79c-18.83,-41.42 -69.2,-30.39 -75.42,-102.76 -2.48,-28.84 0.11,-52.62 4.2,-80.34 3.59,-24.25 13.39,-56.99 12.95,-72.21 -24.62,-2.08 -20.05,38.73 -25.33,66.38 -10.32,54.06 -20.14,109.24 22.79,150.14 19.75,18.82 34.14,35.81 60.81,38.79z"/>
   <path class="fil36" d="M10459.2 19728.99c-127.1,-3.08 -71.14,92.68 -16.6,53.88 18.04,-12.82 17.38,-33.95 16.6,-53.88z"/>
   <path class="fil30" d="M9976.27 18309.27c30.06,-9.63 64.63,-60.18 87.17,-85.46 13.39,-15.02 26.11,-31.29 36.06,-49.12 10.15,-18.18 19.28,-46.3 34.44,-57.18 -4.51,-24.21 8.13,-32.07 11.89,-59.35 -22.36,14.19 -10.45,5.54 -21.05,36.73 -12,35.27 -41.56,82.15 -64.54,114.49l-37.56 42.18c-37.63,42.71 -41.34,35.17 -46.41,57.71z"/>
   <path class="fil37" d="M9796.54 19749.5l-0.91 30.68c22.24,15.69 36.19,9.1 57.79,0.07 15.68,-16.22 14.63,-25.51 14.05,-49.59 -25.92,-3.54 -59.01,-3.04 -70.93,18.84z"/>
   <path class="fil24" d="M10268.64 19567.02c26.72,-39.69 -43.85,-72.32 -60.91,-35.53 -21.7,46.77 45.02,59.15 60.91,35.53z"/>
   <path class="fil38" d="M10266.14 19606.19l0.3 224.5 -56.92 -1.28 1.09 -223.09c-12.83,12.09 -8.19,0.87 -8.67,27.33l3.54 202.65 65.56 -2.61c2.1,-11.42 11.64,-217.16 -4.9,-227.5z"/>
   <path class="fil24" d="M10399.49 18978.81c10.79,33.31 76.92,23.14 63.6,-23.76 -8.35,-29.41 -80.15,-27.33 -63.6,23.76z"/>
   <path class="fil27" d="M8731.06 19112.62l81.03 0.51c1.34,-65.29 -80.01,-64.47 -81.03,-0.51z"/>
   <path class="fil39" d="M9992.77 19111.6l83.14 1.55c2.22,-63.04 -79.81,-64.88 -83.14,-1.55z"/>
   <path class="fil39" d="M10986.44 19111.62l82.84 1.49c-0.15,-66.23 -80.9,-61.68 -82.84,-1.49z"/>
   <path class="fil33" d="M9301.45 17710.35c20.57,-2.76 35.21,-60.84 102.75,-36.62 53.62,19.22 45.97,55.04 40.46,105.35 13.85,-10.29 7.6,-1.71 14.69,-12.21 10.09,-14.95 5.49,-27.15 5.49,-56.64 -8.22,-6.33 -11.51,1.7 -13.06,-20.73 -34.6,-18.18 -31.75,-33.38 -82.81,-29.67 -36.75,2.67 -60.9,18.23 -67.52,50.52z"/>
   <path class="fil29" d="M10351.25 17029.77c-37.47,-2.41 -59.44,43.52 -104.39,36.25 -17.89,-12.12 -32.79,-41.16 -45.75,-60.49 -7.33,-10.93 -13.83,-21.97 -20.66,-32.67l-22.87 -27.31c-0.61,-2.19 -2.48,-2.1 -3.79,-3.06 -0.81,17.34 24.13,49.42 35.23,65.39 63.83,91.92 52.69,89.64 132.36,43.23 18.45,-10.76 21,-3.42 29.87,-21.34z"/>
   <path class="fil29" d="M9183.23 17129.02c1.44,-0.74 3.47,-3.65 4.17,-2.47 0.32,0.54 5.29,-3.46 7.63,-4.82 13.17,-7.59 -3.34,-1.97 14.47,-6.82 9.96,-20.33 64.13,-60.42 88.05,-66.24 5.11,-9.8 22.81,-17.82 36.55,-17.47 19.55,-34.72 54.55,-25.43 58.52,-38.69 0.53,-1.77 2.04,-1.85 3.03,-2.82 -21.54,-2.05 -42.18,8.4 -67.99,20.31l-100.3 69.91c-31.55,24.31 -30.94,5.01 -44.13,49.11z"/>
   <path class="fil40" d="M9656.56 19655.38c-14.07,17.03 -5.47,141.61 -6.21,175.36l-55.59 -1.81 -2.06 -175.49 -34.02 -9.4 7.13 -28.59c-17.21,11.12 -16,11.82 -11.21,34.21 17.56,11.25 15.86,3.62 32.43,11.34l3.03 174.67 67.22 -1.89 -0.72 -178.4z"/>
   <path class="fil29" d="M9935.95 17019.07c-21.55,-31.22 -124.39,-64.31 -145.62,-67.76 -26.96,-4.37 -45.2,-11.22 -72.84,-8.33 11.94,15.53 32.91,13.52 55.79,18.6 20,4.45 37.44,9.57 56.82,16.45 29.18,10.34 80.64,37.06 105.85,41.04z"/>
   <path class="fil30" d="M10182.39 17979.61l48.08 -17.28c16.19,-25.3 21.12,-12.36 27.45,-50.04 4.66,-27.73 10.14,-47.6 12.71,-77 -8.47,5.88 -10.12,3.41 -16.16,24.13 -1.03,3.51 -3.78,16.09 -5,21.22 -22.66,94.98 -5.02,30 -53.34,80.87 -9.18,9.67 -7.38,4.5 -13.74,18.1z"/>
   <path class="fil31" d="M10182.39 17979.61c-14.67,11.05 -33.24,57.47 -36.56,78.55 -3.76,27.28 -16.4,35.14 -11.89,59.35 14.06,-12.51 25.17,-63.56 32.78,-83.32 14.34,-37.25 22.51,-45.15 60.08,-57.55l3.67 -14.31 -48.08 17.28z"/>
   <path class="fil30" d="M9579.08 18222.31c-10.77,-30.5 -70.6,-50.5 -76.36,-88.62 -24.97,-6.33 -11.82,-17 -38.08,-25.92l1.36 16.18c36.09,20.17 68.73,95.41 113.08,98.36z"/>
   <path class="fil30" d="M9190.64 18218.08c-0.34,-19.55 -19.64,-31.8 -30.32,-55.74 -6.61,-14.82 -5.79,-23.3 -9.93,-32.78 -3.03,-6.96 -8.09,-9.65 -12.87,-24.49l-16.08 -2.71c4.94,25.92 16.51,46.06 27.68,66.59 12.73,23.41 23.67,42.79 41.52,49.13z"/>
   <path class="fil26" d="M10129.85 16895.67c-3.53,-22.85 -14.24,-41.86 -10.94,-67.85 4.7,-37.03 26.46,-23.45 24.86,-54.76 -35.1,10.65 -40.91,57.22 -35.4,91.24 3.03,18.68 7.84,23.88 21.48,31.37z"/>
   <path class="fil29" d="M10047.33 17116.5l13.96 0.38 -3.48 -23.54c-25.99,-10.32 -17.51,-14.28 -38.44,-27.63 -32.85,-20.94 -7.78,-23.87 -48.42,-24.76 19.39,30.41 63.4,39.13 76.38,75.55z"/>
   <path class="fil30" d="M9209.5 17114.91c16,2.43 33.51,-16.01 49.09,-26.23 18.08,-11.86 34.65,-19.72 38.96,-40.01 -23.92,5.82 -78.09,45.91 -88.05,66.24z"/>
   <path class="fil41" d="M9183.23 17129.02c-20.33,21.59 -44.5,44.8 -52.9,71.15 20.93,-2.02 9.43,0.27 23.92,-19.06 5.64,-7.51 12.36,-15.99 18.72,-23.8 12.09,-14.86 30.39,-26.56 36.53,-42.4 -17.81,4.85 -1.3,-0.77 -14.47,6.82 -2.34,1.36 -7.31,5.36 -7.63,4.82 -0.7,-1.18 -2.73,1.73 -4.17,2.47z"/>
   <path class="fil42" d="M8529.18 19075.92l-51.19 7.25 -1.4 -72.63 42.61 3.44c-9.22,-13.26 -32.78,-9.08 -48.46,-6.94l-0.48 79.86c23.8,3.65 45.28,6.68 58.92,-10.98z"/>
   <path class="fil26" d="M9207.17 18250.78c20.45,8.34 15.65,10.19 31.33,25.68 15.55,15.37 19.02,10.1 24.73,29.32l13.93 0.75 -0.92 -14.93c-15.01,-10.3 -24.26,-12.99 -35.93,-27.51 -15.77,-19.64 -9.19,-21.01 -32.35,-25.65l-0.79 12.34z"/>
   <path class="fil43" d="M10141.39 17219.21l4.05 -14.5c-11.03,-9.69 -15.99,-16.34 -25.22,-27.6 -13.93,-17 -14.06,-21.89 -34.01,-30.44 4.88,22.11 11.12,22.64 25.09,38.79 4.43,5.14 7.62,9.84 11.5,14.83 10.94,14.06 6.21,9.21 18.59,18.92z"/>
   <path class="fil29" d="M9263.23 18305.78c-5.71,-19.22 -9.18,-13.95 -24.73,-29.32 -15.68,-15.49 -10.88,-17.34 -31.33,-25.68 4.72,22.69 34.71,51.1 56.06,55z"/>
   <path class="fil34" d="M9906.02 18357.54c22.94,-6.73 58.75,-25.83 67.86,-46.93 -29.15,8.56 -16.72,6.1 -35.99,21.2 -18.17,14.22 -18.75,5.13 -31.87,25.73z"/>
   <path class="fil44" d="M9853.42 19780.25c-21.6,9.03 -35.55,15.62 -57.79,-0.07l0.91 -30.68c-32.57,38.68 38.52,65.55 56.88,30.75z"/>
   <path class="fil45" d="M10221.72 17660.03c-6.45,-19.6 -6.28,-18.11 -2.27,-39.51 -18.06,9.47 -25.66,13.57 -17.07,34.71l19.34 4.8z"/>
   <path class="fil46" d="M9656.56 19655.38l50.75 -2.34c4.1,-16.29 9.06,-38.34 -4.72,-46.9l1.02 42.13c-9.83,0.72 -19.18,0.23 -26.57,0.8 -23.28,1.78 -15.24,1.14 -20.48,6.31z"/>
   <path class="fil29" d="M9299.32 18331.12l-1.01 -10.18c-15.03,-4.16 -17.82,-0.98 -21.15,-14.41l-13.93 -0.75c3.06,17.37 1.18,9.64 15.91,24.72l20.18 0.62z"/>
   <path class="fil26" d="M9207.96 18238.44l-1.51 -15.18 -15.81 -5.18c-2.9,17.55 0.22,16.5 17.32,20.36z"/>
   <path class="fil47" d="M9298.31 18320.94l-4.27 -14.68 -16.88 0.27c3.33,13.43 6.12,10.25 21.15,14.41z"/>
   <polygon class="fil46" points="8568.41,19136.56 8568.86,19120.84 8585.03,19106.96 8556.44,19120.56 "/>
   <path class="fil48" d="M9696.65 19564.39c12.11,8.36 -1.48,6.73 18.58,6.04l8.02 -19.7c-20.97,14.93 -0.74,9.68 -26.6,13.66z"/>
   <path class="fil44" d="M10459.76 19667.49c-3.19,-15.52 -4.96,-12.52 -18.02,-19.14l18.02 19.14z"/>
  </g>
  <g style="clip-path:url(#id2)">
   <image x="-12404.97" y="7620.89" width="6821.54" height="6643.3" xlink:href="REC. FACIAL 2_Images\REC. FACIAL 2_ImgID3.png"/>
  </g>
  <g id="_2302829692944">
   <path class="fil49" d="M-11677.34 17745.96l69.72 -0.43 0.75 247.58 -69.54 4.04 -0.93 -251.19zm363.94 154.74c-31.34,-201.34 224.91,-209.15 241.95,-53.73 21.18,193.09 -218.97,201.33 -241.95,53.73zm-1160.45 95.86l-68.33 0.21 -1.62 -328.42c118.38,-10.46 247.92,-10.35 226.13,129.15 -7.52,48.18 -49.38,75.36 -96.3,81.15 -44.92,5.55 -55.9,-12.26 -59.51,28.13 -2.32,25.94 1.39,60.85 -0.37,89.78zm561.68 0.05l-68.07 0.87 -0.77 -253.01c67.14,-0.25 48.1,-0.11 64.1,29.67 59.49,-47.54 125.6,-45.52 156.08,2.39 22.19,34.87 14.66,168.71 11.78,219.6l-66.62 1.13c-2.9,-54.39 26.67,-205.72 -47.62,-200.49 -71.39,5.03 -45.59,141.01 -48.88,199.84zm541.77 -190.75c-38.9,-3.36 -84.14,-22.36 -102.53,19 -18.55,41.67 -6.44,84.65 15.31,113.95 59.7,14.72 57.78,-1.95 99.84,-10.27l0.85 53.81c-47.51,32.13 -190.44,48.09 -193.95,-102.07 -2.88,-123.46 78.6,-163.46 197.22,-126.45 2.24,23.14 -6.02,35.5 -16.74,52.03zm-878.67 -45.95c51.2,-24.54 147.18,-35.61 183.14,13.55 25.33,34.66 17.46,171.47 14.81,221.58 -60.84,9.36 -34.96,0.06 -66.56,-21.86 -33.13,18.39 -44.78,35.36 -94.27,28.35 -76.52,-10.85 -87.69,-117.82 -21.33,-147.25 37.39,-16.58 65.8,-7.79 105.55,-19.94 1.45,-0.45 3.8,-1.23 5.53,-2.2 -3.06,-71.43 -68.6,-29.15 -112.09,-27.49l-14.78 -44.74zm572.24 -59.74c-11.57,-81.09 62.55,-54.32 69.47,-36.26 16.78,43.78 -26.25,64.6 -69.47,36.26zm-573.88 17.01c9.15,-28.35 17.33,-28.91 35.61,-51.34 25.35,-31.09 29.03,-23.77 97.43,-22.32 16.87,21.66 43.44,44.84 51.4,73.71 -69.51,1.51 -45.2,-10.72 -92.55,-31.76 -43.73,19.8 -21.23,32.27 -91.89,31.71zm1072.76 -596.97l-0.08 -116.03 67.22 -1.68 1.54 348.88c-38.52,3.9 -43.01,5.91 -62.48,-13.73 -0.99,-0.99 -2.61,-3.19 -3.38,-4.04 -0.77,-0.85 -2.01,-2.93 -3.3,-4.14 -34.85,18.75 -67.43,48.6 -117.15,16.25 -70.27,-45.72 -60.9,-185.97 -9.59,-229.9 46.53,-39.85 89.26,-12.08 127.22,4.39zm-1334.69 142.9c-40.41,-197.81 214.56,-221.36 239.11,-68.73 32.54,202.29 -210.18,210.28 -239.11,68.73zm1460.38 -6.86c-29.25,-201.24 225.57,-208.17 241.55,-53.55 21.05,203.52 -220.9,195.63 -241.55,53.55zm-459.34 13.71c-36.79,146.28 -280.5,110.11 -234.67,-87.89 32.53,-140.57 284.15,-108.79 234.67,87.89zm-727.92 -130.26c4.95,-35.49 10.97,-14.02 33.99,-39.34 9.54,-10.51 16.63,-33.6 23.53,-52.03l45.34 -0.9 2.28 53.01 66.67 1.23 1.53 48.01c-52.42,11.79 -69.85,-16.79 -71.84,37.16 -1.24,33.82 -1.01,83.97 7.76,110.23l64.56 2.14 0.53 49.12c-167.13,49.1 -139.73,-72.37 -141.93,-189.54 -35.41,-14.44 -13.34,2.6 -32.42,-19.09zm-361.35 41.14l16.04 14.58c41.25,40.14 29.07,109.52 -12.61,136.3 -49.44,31.75 -138.61,24.8 -206.11,20.47l-1.13 -327.83c88.46,-4.12 228.89,-19.06 235.38,74.26 1.36,19.57 -0.58,33.95 -7.86,48.3l-23.71 33.92zm595.69 -63.86c54.89,-23.52 147.16,-37.98 184.05,14.31 27.13,38.47 16.87,163.83 13.4,221.48 -55.77,2.51 -35.54,0.7 -63.14,-26.84 -81.95,56.72 -149.6,33.91 -158.13,-29.21 -13.51,-99.88 69.04,-95.57 151.74,-102.51 1.3,-73.9 -61.48,-37.29 -111.34,-33.27l-16.58 -43.96zm37.17 -3281.79c45.64,-18.71 120.38,26.95 142.3,51.28 44.81,49.71 116.18,177.91 156.87,247.32l221.57 381.54c24.18,41.37 43.36,86.56 69.47,128.95l149.61 255.36c56.1,106.71 93.88,159.91 144,253.24l220.21 383.49c26.01,39.63 45.14,82.01 71.04,127.52l365.34 642.88c26.47,41.07 51.37,82.4 77.76,128.08 48.45,83.88 218.49,342.81 17.74,392.83 -128.85,32.11 -618.06,17.82 -784.63,17.95l-1611.12 -0.04c-142.75,0 -696.53,15.97 -788.38,-14.43 -37.59,-12.45 -38.13,-6.85 -72.2,-30.46 -139.49,-96.65 -26.54,-207.58 32.23,-338.9 27.56,-61.6 177.44,-313.57 217.41,-385.87l290.9 -510.26c64.9,-131.06 150.24,-262.19 218.65,-392.02 65.07,-123.48 148.87,-255.42 216.73,-379.95l255.08 -450.71c48.3,-84.31 216.81,-395.17 258.7,-440.59 61.71,-66.9 82.38,-47.4 130.72,-67.21zm-134.37 -460.51c-226.99,37.71 -255.75,30.34 -499.84,107.67 -104.32,33.04 -221.86,82.42 -320.41,131.18 -34.71,17.18 -65.74,37.12 -98.62,52.03 -66.68,30.22 -171.33,98.37 -231.9,144.85l-130.11 95.81c-105.69,92.19 -219.91,186.09 -314.19,289.37 -20.39,22.33 -48.14,55.45 -68.22,82.43l-97.55 128.89c-15.55,18.24 -15.92,22.17 -30.45,45.22 -60.91,96.61 -113.9,178.29 -165.32,287.19 -72.15,152.8 -118.2,273.54 -163.21,441.25 -9.55,35.59 -26.45,78.27 -31.47,115.7l-38.82 266.55c-12.81,263.96 -17.91,440.86 38.03,703.04 22.52,105.54 96.55,358.98 144.16,459.92 31.15,66.06 59.09,145.91 94.54,206.62l172.27 280.9c44.79,56.84 81.43,118.76 131.66,169.77 30.65,31.13 44.94,54.26 69.25,81.13 132.01,145.87 288.89,267.2 451.6,378.62 17.37,11.89 23.3,16.44 47.76,28.56 38.3,18.96 62.73,38.12 93.54,56.46 132.54,78.89 274.57,134.56 420.89,183.32 36.43,12.14 78.06,23.42 118.55,33.55 80.2,20.05 158.59,36.1 248.01,50.74 269.37,44.09 577.09,44.61 840.55,-18.01 169.21,-40.22 299.24,-74.62 458.37,-144.74 166.82,-73.49 337.21,-158.08 480.6,-273.14 37.43,-30.03 72.64,-47.88 106.07,-78.51 16.5,-15.11 2.03,-3.77 23.05,-18.29l121.9 -104.27c66.22,-66.52 124.08,-117.56 180.53,-196.94l98.8 -127.1c77.18,-110.14 113.8,-170.19 177.73,-282.4 0.75,-1.32 1.78,-3.04 2.51,-4.37 120.3,-218.07 221.06,-546.91 260.61,-782.04 27.34,-162.49 35.82,-534.75 -4.05,-709.91 -32.18,-141.43 -30.69,-204.93 -85.25,-366.19 -54.96,-162.38 -107.65,-335.13 -198.65,-480.98 -90.88,-145.64 -107.28,-177.83 -208.38,-319.4 -9.09,-12.74 -24.55,-30.04 -34.55,-40.83 -14.02,-15.11 -21.19,-25.71 -34.07,-41.04 -49.88,-59.47 -107.53,-108.97 -147.74,-154.05l-162.07 -140.17c-30.39,-23.33 -54.81,-40.98 -85.46,-63.97l-135.35 -91.92c-15.97,-11.75 -23.71,-17.69 -44.59,-30.22 -182.91,-109.85 -367.86,-199.85 -571.69,-258.98 -8.4,-2.44 -16.88,-5.2 -24.89,-8.9 -28.83,-13.3 -60.34,-11.7 -96.45,-21.58l-183.21 -39.55c-176.83,-23.57 -389.61,-53.96 -574.47,-23.27z"/>
   <path class="fil13" d="M-12102.38 13374.68c184.86,-30.69 397.64,-0.3 574.47,23.27l183.21 39.55c36.11,9.88 67.62,8.28 96.45,21.58 8.01,3.7 16.49,6.46 24.89,8.9 203.83,59.13 388.78,149.13 571.69,258.98 20.88,12.53 28.62,18.47 44.59,30.22l135.35 91.92c30.65,22.99 55.07,40.64 85.46,63.97l162.07 140.17c40.21,45.08 97.86,94.58 147.74,154.05 12.88,15.33 20.05,25.93 34.07,41.04 10,10.79 25.46,28.09 34.55,40.83 101.1,141.57 117.5,173.76 208.38,319.4 91,145.85 143.69,318.6 198.65,480.98 54.56,161.26 53.07,224.76 85.25,366.19 39.87,175.16 31.39,547.42 4.05,709.91 -39.55,235.13 -140.31,563.97 -260.61,782.04 -0.73,1.33 -1.76,3.05 -2.51,4.37 -63.93,112.21 -100.55,172.26 -177.73,282.4l-98.8 127.1c-56.45,79.38 -114.31,130.42 -180.53,196.94l-121.9 104.27c-21.02,14.52 -6.55,3.18 -23.05,18.29 -33.43,30.63 -68.64,48.48 -106.07,78.51 -143.39,115.06 -313.78,199.65 -480.6,273.14 -159.13,70.12 -289.16,104.52 -458.37,144.74 -263.46,62.62 -571.18,62.1 -840.55,18.01 -89.42,-14.64 -167.81,-30.69 -248.01,-50.74 -40.49,-10.13 -82.12,-21.41 -118.55,-33.55 -146.32,-48.76 -288.35,-104.43 -420.89,-183.32 -30.81,-18.34 -55.24,-37.5 -93.54,-56.46 -24.46,-12.12 -30.39,-16.67 -47.76,-28.56 -162.71,-111.42 -319.59,-232.75 -451.6,-378.62 -24.31,-26.87 -38.6,-50 -69.25,-81.13 -50.23,-51.01 -86.87,-112.93 -131.66,-169.77l-172.27 -280.9c-35.45,-60.71 -63.39,-140.56 -94.54,-206.62 -47.61,-100.94 -121.64,-354.38 -144.16,-459.92 -55.94,-262.18 -50.84,-439.08 -38.03,-703.04l38.82 -266.55c5.02,-37.43 21.92,-80.11 31.47,-115.7 45.01,-167.71 91.06,-288.45 163.21,-441.25 51.42,-108.9 104.41,-190.58 165.32,-287.19 14.53,-23.05 14.9,-26.98 30.45,-45.22l97.55 -128.89c20.08,-26.98 47.83,-60.1 68.22,-82.43 94.28,-103.28 208.5,-197.18 314.19,-289.37l130.11 -95.81c60.57,-46.48 165.22,-114.63 231.9,-144.85 32.88,-14.91 63.91,-34.85 98.62,-52.03 98.55,-48.76 216.09,-98.14 320.41,-131.18 244.09,-77.33 272.85,-69.96 499.84,-107.67zm224.74 -278.18c1493.99,0 2705.11,1207.4 2705.11,2696.81 0,1489.41 -1211.12,2696.81 -2705.11,2696.81 -1493.99,0 -2705.11,-1207.4 -2705.11,-2696.81 0,-1489.41 1211.12,-2696.81 2705.11,-2696.81z"/>
   <path class="fil50" d="M-12109.94 16317c-37.16,-234.81 301.16,-284.96 335.48,-61.34 36.66,238.83 -300.67,281.2 -335.48,61.34zm110.21 -1576.84c130.22,-39.17 247.69,60.48 286.35,143.6 36.62,78.73 -6.03,295.68 -19.43,394.22 -17.32,127.41 -36.36,258.11 -51.39,387.43 -13.46,115.87 -16.77,289.36 -104.06,332.52 -62.97,31.13 -128.03,1.59 -157.62,-47.59 -29.39,-48.85 -31.55,-116.51 -39.55,-180.96 -16,-129 -35.26,-255.74 -51.41,-386.52 -16.04,-129.76 -38.69,-259.83 -51.2,-388.91 -13.07,-134.76 90.87,-224.48 188.31,-253.79zm46.59 -665.59c-22.28,20.58 -158.01,267.92 -184.46,316.34 -127.81,233.99 -1246.89,2187.36 -1260.14,2233.09l2903.28 -0.94c-4.39,-27.6 -156.98,-282.75 -180.37,-323.27 -63.86,-110.62 -121.05,-210.12 -181.66,-317.86 -62.6,-111.25 -1075.59,-1886.74 -1096.65,-1907.36z"/>
   <path class="fil51" d="M-11953.14 14074.57c21.06,20.62 1034.05,1796.11 1096.65,1907.36 60.61,107.74 117.8,207.24 181.66,317.86 23.39,40.52 175.98,295.67 180.37,323.27l-2903.28 0.94c13.25,-45.73 1132.33,-1999.1 1260.14,-2233.09 26.45,-48.42 162.18,-295.76 184.46,-316.34zm-14.87 -239.38c-48.34,19.81 -69.01,0.31 -130.72,67.21 -41.89,45.42 -210.4,356.28 -258.7,440.59l-255.08 450.71c-67.86,124.53 -151.66,256.47 -216.73,379.95 -68.41,129.83 -153.75,260.96 -218.65,392.02l-290.9 510.26c-39.97,72.3 -189.85,324.27 -217.41,385.87 -58.77,131.32 -171.72,242.25 -32.23,338.9 34.07,23.61 34.61,18.01 72.2,30.46 91.85,30.4 645.63,14.43 788.38,14.43l1611.12 0.04c166.57,-0.13 655.78,14.16 784.63,-17.95 200.75,-50.02 30.71,-308.95 -17.74,-392.83 -26.39,-45.68 -51.29,-87.01 -77.76,-128.08l-365.34 -642.88c-25.9,-45.51 -45.03,-87.89 -71.04,-127.52l-220.21 -383.49c-50.12,-93.33 -87.9,-146.53 -144,-253.24l-149.61 -255.36c-26.11,-42.39 -45.29,-87.58 -69.47,-128.95l-221.57 -381.54c-40.69,-69.41 -112.06,-197.61 -156.87,-247.32 -21.92,-24.33 -96.66,-69.99 -142.3,-51.28z"/>
   <path class="fil51" d="M-11999.73 14740.16c-97.44,29.31 -201.38,119.03 -188.31,253.79 12.51,129.08 35.16,259.15 51.2,388.91 16.15,130.78 35.41,257.52 51.41,386.52 8,64.45 10.16,132.11 39.55,180.96 29.59,49.18 94.65,78.72 157.62,47.59 87.29,-43.16 90.6,-216.65 104.06,-332.52 15.03,-129.32 34.07,-260.02 51.39,-387.43 13.4,-98.54 56.05,-315.49 19.43,-394.22 -38.66,-83.12 -156.13,-182.77 -286.35,-143.6z"/>
   <path class="fil51" d="M-12109.94 16317c34.81,219.86 372.14,177.49 335.48,-61.34 -34.32,-223.62 -372.64,-173.47 -335.48,61.34z"/>
   <path class="fil52" d="M-12731.28 17211.51c49.72,-4.54 64.97,-8.15 95.35,20.54 7.65,68.04 -34.65,66.9 -97.84,62.11l2.49 -82.65zm0.37 -129.61c45.15,-3.19 56.31,-3.53 86.87,14.19 5.13,65.46 -27.06,61.7 -90.09,55.92l3.22 -70.11zm153.75 65.02c7.28,-14.35 9.22,-28.73 7.86,-48.3 -6.49,-93.32 -146.92,-78.38 -235.38,-74.26l1.13 327.83c67.5,4.33 156.67,11.28 206.11,-20.47 41.68,-26.78 53.86,-96.16 12.61,-136.3l-16.04 -14.58 23.71 -33.92z"/>
   <path class="fil52" d="M-11250.45 17163.99c0,0 7.05,-21.77 47.18,-6.32 43.94,16.93 34.67,119.85 7.2,136.54 -74.89,45.51 -106.1,-86.35 -54.38,-130.22zm72.5 -43.78c-37.96,-16.47 -80.69,-44.24 -127.22,-4.39 -51.31,43.93 -60.68,184.18 9.59,229.9 49.72,32.35 82.3,2.5 117.15,-16.25 1.29,1.21 2.53,3.29 3.3,4.14 0.77,0.85 2.39,3.05 3.38,4.04 19.47,19.64 23.96,17.63 62.48,13.73l-1.54 -348.88 -67.22 1.68 0.08 116.03z"/>
   <path class="fil52" d="M-12470.59 17726.26c118.91,-11.89 113.09,102.41 -1.37,96.48l1.37 -96.48zm-3.26 270.3c1.76,-28.93 -1.95,-63.84 0.37,-89.78 3.61,-40.39 14.59,-22.58 59.51,-28.13 46.92,-5.79 88.78,-32.97 96.3,-81.15 21.79,-139.5 -107.75,-139.61 -226.13,-129.15l1.62 328.42 68.33 -0.21z"/>
   <path class="fil52" d="M-12200.63 17899.05c31.65,-14.69 36.79,-21.23 79.35,-15.26 5.3,57.44 -29.22,76.33 -80.84,59.05l1.49 -43.79zm-11.32 102.48c49.49,7.01 61.14,-9.96 94.27,-28.35 31.6,21.92 5.72,31.22 66.56,21.86 2.65,-50.11 10.52,-186.92 -14.81,-221.58 -35.96,-49.16 -131.94,-38.09 -183.14,-13.55l14.78 44.74c43.49,-1.66 109.03,-43.94 112.09,27.49 -1.73,0.97 -4.08,1.75 -5.53,2.2 -39.75,12.15 -68.16,3.36 -105.55,19.94 -66.36,29.43 -55.19,136.4 21.33,147.25z"/>
   <path class="fil52" d="M-11951.77 17302.28c-18.18,-64.92 18.62,-65.65 75.83,-62.18 -0.29,56.12 -16.38,73.42 -75.83,62.18zm-77.23 -5.56c8.53,63.12 76.18,85.93 158.13,29.21 27.6,27.54 7.37,29.35 63.14,26.84 3.47,-57.65 13.73,-183.01 -13.4,-221.48 -36.89,-52.29 -129.16,-37.83 -184.05,-14.31l16.58 43.96c49.86,-4.02 112.64,-40.63 111.34,33.27 -82.7,6.94 -165.25,2.63 -151.74,102.51z"/>
   <path class="fil52" d="M-12413.45 17157.77c87.27,-37.09 86.14,119.08 46.08,138.12 -87.1,41.42 -99.53,-115.41 -46.08,-138.12zm-99.19 105.34c28.93,141.55 271.65,133.56 239.11,-68.73 -24.55,-152.63 -279.52,-129.08 -239.11,68.73z"/>
   <path class="fil52" d="M-11163.9 17940.93c-51.31,7.87 -71.21,3.32 -78.02,-46.94 -5.22,-38.43 0.32,-80.03 26.69,-92.02 79.62,-36.2 91.95,84.53 51.33,138.96zm-149.5 -40.23c22.98,147.6 263.13,139.36 241.95,-53.73 -17.04,-155.42 -273.29,-147.61 -241.95,53.73z"/>
   <path class="fil52" d="M-11651.1 17159.27c85.04,-42.17 93.24,112.4 45.97,137.08 -80.35,41.94 -101.43,-109.58 -45.97,-137.08zm139.5 110.69c49.48,-196.68 -202.14,-228.46 -234.67,-87.89 -45.83,198 197.88,234.17 234.67,87.89z"/>
   <path class="fil52" d="M-10958.95 17160.27c79.09,-52.59 105.57,102.76 57.04,133.16 -83.33,52.21 -103.35,-102.37 -57.04,-133.16zm-93.31 95.98c20.65,142.08 262.6,149.97 241.55,-53.55 -15.98,-154.62 -270.8,-147.69 -241.55,53.55z"/>
   <path class="fil52" d="M-11912.17 17996.61c3.29,-58.83 -22.51,-194.81 48.88,-199.84 74.29,-5.23 44.72,146.1 47.62,200.49l66.62 -1.13c2.88,-50.89 10.41,-184.73 -11.78,-219.6 -30.48,-47.91 -96.59,-49.93 -156.08,-2.39 -16,-29.78 3.04,-29.92 -64.1,-29.67l0.77 253.01 68.07 -0.87z"/>
   <path class="fil52" d="M-12239.52 17139.7c19.08,21.69 -2.99,4.65 32.42,19.09 2.2,117.17 -25.2,238.64 141.93,189.54l-0.53 -49.12 -64.56 -2.14c-8.77,-26.26 -9,-76.41 -7.76,-110.23 1.99,-53.95 19.42,-25.37 71.84,-37.16l-1.53 -48.01 -66.67 -1.23 -2.28 -53.01 -45.34 0.9c-6.9,18.43 -13.99,41.52 -23.53,52.03 -23.02,25.32 -29.04,3.85 -33.99,39.34z"/>
   <path class="fil52" d="M-11370.4 17805.86c10.72,-16.53 18.98,-28.89 16.74,-52.03 -118.62,-37.01 -200.1,2.99 -197.22,126.45 3.51,150.16 146.44,134.2 193.95,102.07l-0.85 -53.81c-42.06,8.32 -40.14,24.99 -99.84,10.27 -21.75,-29.3 -33.86,-72.28 -15.31,-113.95 18.39,-41.36 63.63,-22.36 102.53,-19z"/>
   <polygon class="fil52" points="-11676.41,17997.15 -11606.87,17993.11 -11607.62,17745.53 -11677.34,17745.96 "/>
   <path class="fil53" d="M-10958.95 17160.27c-46.31,30.79 -26.29,185.37 57.04,133.16 48.53,-30.4 22.05,-185.75 -57.04,-133.16z"/>
   <path class="fil53" d="M-11651.1 17159.27c-55.46,27.5 -34.38,179.02 45.97,137.08 47.27,-24.68 39.07,-179.25 -45.97,-137.08z"/>
   <path class="fil53" d="M-12413.45 17157.77c-53.45,22.71 -41.02,179.54 46.08,138.12 40.06,-19.04 41.19,-175.21 -46.08,-138.12z"/>
   <path class="fil54" d="M-11163.9 17940.93c40.62,-54.43 28.29,-175.16 -51.33,-138.96 -26.37,11.99 -31.91,53.59 -26.69,92.02 6.81,50.26 26.71,54.81 78.02,46.94z"/>
   <path class="fil53" d="M-11250.45 17163.99c-51.72,43.87 -20.51,175.73 54.38,130.22 27.47,-16.69 36.74,-119.61 -7.2,-136.54 -40.13,-15.45 -47.18,6.32 -47.18,6.32z"/>
   <path class="fil55" d="M-12250.71 17717.18c70.66,0.56 48.16,-11.91 91.89,-31.71 47.35,21.04 23.04,33.27 92.55,31.76 -7.96,-28.87 -34.53,-52.05 -51.4,-73.71 -68.4,-1.45 -72.08,-8.77 -97.43,22.32 -18.28,22.43 -26.46,22.99 -35.61,51.34z"/>
   <path class="fil56" d="M-12733.77 17294.16c63.19,4.79 105.49,5.93 97.84,-62.11 -30.38,-28.69 -45.63,-25.08 -95.35,-20.54l-2.49 82.65z"/>
   <path class="fil53" d="M-12471.96 17822.74c114.46,5.93 120.28,-108.37 1.37,-96.48l-1.37 96.48z"/>
   <path class="fil57" d="M-12734.13 17152.01c63.03,5.78 95.22,9.54 90.09,-55.92 -30.56,-17.72 -41.72,-17.38 -86.87,-14.19l-3.22 70.11z"/>
   <path class="fil58" d="M-11951.77 17302.28c59.45,11.24 75.54,-6.06 75.83,-62.18 -57.21,-3.47 -94.01,-2.74 -75.83,62.18z"/>
   <path class="fil57" d="M-12200.63 17899.05l-1.49 43.79c51.62,17.28 86.14,-1.61 80.84,-59.05 -42.56,-5.97 -47.7,0.57 -79.35,15.26z"/>
   <path class="fil55" d="M-11676.83 17700.17c43.22,28.34 86.25,7.52 69.47,-36.26 -6.92,-18.06 -81.04,-44.83 -69.47,36.26z"/>
  </g>
 </g>
</svg>
